<svg version="1.1"
	 id="svg2" xmlns:rdf="http://www.w3.org/1999/02/22-rdf-syntax-ns#" xmlns:dc="http://purl.org/dc/elements/1.1/" xmlns:cc="http://creativecommons.org/ns#" xmlns:svg="http://www.w3.org/2000/svg"
	 xmlns="http://www.w3.org/2000/svg" xmlns:xlink="http://www.w3.org/1999/xlink" x="0px" y="0px" width="100%"
	 height="100%" viewBox="0 0 432.732 94.973" enable-background="new 0 0 432.732 94.973" xml:fpace="preserve">
<path id="path14" fill="#231F20" d="M149.669,23.088c0,3.063-1.245,5.422-3.73,7.07c-2.142,1.391-4.815,2.083-8.025,2.083
	c-3.183,0-5.715-0.664-7.593-1.995c-2.143-1.533-3.312-3.806-3.515-6.812l4.208-0.044c0.145,1.94,0.883,3.401,2.214,4.383
	c1.242,0.898,2.848,1.348,4.813,1.348s3.646-0.437,5.033-1.304c1.62-1.013,2.43-2.43,2.43-4.252c0-1.852-1.086-3.342-3.254-4.469
	c-0.606-0.318-2.486-0.969-5.641-1.953c-2.835-0.867-4.874-1.779-6.117-2.731c-1.881-1.447-2.82-3.369-2.82-5.771
	c0-2.894,1.156-5.104,3.472-6.638c1.967-1.331,4.482-1.997,7.551-1.997c2.92,0,5.278,0.563,7.07,1.691
	c2.109,1.389,3.196,3.472,3.255,6.247h-4.123c-0.289-3.236-2.37-4.858-6.248-4.858c-1.852,0-3.397,0.405-4.642,1.216
	c-1.476,0.925-2.213,2.256-2.213,3.992c0,1.592,0.926,2.878,2.776,3.858c0.375,0.203,1.069,0.492,2.083,0.87
	c1.012,0.375,2.356,0.839,4.034,1.389c2.951,1.014,5.006,1.938,6.161,2.775C148.73,18.635,149.669,20.601,149.669,23.088"/>
<path id="path16" fill="#231F20" d="M163.154,31.96c-0.594,0.044-1.135,0.064-1.627,0.064c-3.558,0-5.336-1.678-5.336-5.033V12.588
	h-4.296V9.942h4.296V5.69l3.816-1.604v5.855h4.904v2.646h-4.904v12.885c0,1.359,0.158,2.271,0.477,2.734
	c0.378,0.606,1.217,0.912,2.518,0.912c0.23,0,0.58-0.037,1.041-0.109c0.463-0.073,0.797-0.109,0.998-0.109v2.908
	C164.374,31.866,163.746,31.916,163.154,31.96"/>
<path id="path18" fill="#231F20" d="M182.612,20.918c-1.272-0.088-1.924-0.13-1.951-0.13c-5.96,0-8.938,1.62-8.938,4.858
	c0,1.273,0.491,2.3,1.477,3.081c0.896,0.692,2.011,1.041,3.341,1.041c2.518,0,4.223-0.927,5.119-2.777
	C182.294,25.749,182.612,23.723,182.612,20.918z M183.393,31.851c-0.06-0.316-0.115-0.729-0.174-1.237
	c-0.059-0.505-0.132-1.118-0.218-1.844c-1.619,2.344-4.093,3.517-7.418,3.517c-2.17,0-3.964-0.506-5.382-1.519
	c-1.533-1.188-2.299-2.836-2.299-4.948c0-4.886,4.181-7.331,12.539-7.331c0.144,0,0.391,0,0.737,0c0.376,0,0.854,0.017,1.432,0.042
	c-0.027-0.285-0.042-0.533-0.042-0.736c0-0.2,0-0.375,0-0.521c0-3.527-1.592-5.292-4.772-5.292c-2.808,0-4.324,1.287-4.556,3.862
	h-3.729c0.085-2.229,0.968-3.878,2.645-4.948c1.445-0.924,3.298-1.388,5.554-1.388c2.893,0,5.004,0.605,6.335,1.823
	c1.33,1.213,1.994,3.224,1.994,6.03v8.067c0,2.864,0.232,5.005,0.696,6.422L183.393,31.851"/>
<path id="path20" fill="#231F20" d="M207.429,20.94c0-2.364-0.489-4.342-1.472-5.93c-1.152-1.847-2.854-2.769-5.101-2.769
	c-2.105,0-3.704,0.938-4.801,2.812c-0.836,1.528-1.252,3.461-1.252,5.8c0,2.422,0.474,4.385,1.427,5.885
	c1.123,1.818,2.823,2.728,5.102,2.728c2.161,0,3.761-0.924,4.8-2.771C206.997,25.195,207.429,23.278,207.429,20.94L207.429,20.94z
	 M207.603,31.851l-0.219-3.341c-1.763,2.461-4.105,3.689-7.026,3.689c-3.123,0-5.553-1.158-7.29-3.472
	c-1.533-2.111-2.3-4.772-2.3-7.983c0-3.065,0.767-5.654,2.3-7.767c1.737-2.314,4.123-3.472,7.159-3.472
	c3.152,0,5.538,1.302,7.158,3.906V0.484h3.818v24.989c0,3.183,0.044,5.308,0.13,6.378H207.603"/>
<path id="path22" fill="#231F20" d="M226.224,31.96c-0.594,0.044-1.137,0.064-1.628,0.064c-3.559,0-5.337-1.678-5.337-5.033V12.588
	h-4.295V9.942h4.295V5.69l3.818-1.604v5.855h4.903v2.646h-4.903v12.885c0,1.359,0.159,2.271,0.478,2.734
	c0.376,0.606,1.216,0.912,2.517,0.912c0.231,0,0.579-0.037,1.042-0.109c0.463-0.073,0.796-0.109,0.997-0.109v2.908
	C227.446,31.866,226.816,31.916,226.224,31.96"/>
<path id="path24" fill="#231F20" d="M257.007,3.996c-0.954,2.141-2.039,4.875-3.255,8.2c-0.492,1.389-0.999,2.775-1.519,4.164
	c-0.521,1.392-1.027,2.778-1.52,4.166h12.801L257.007,3.996z M268.027,31.851l-3.255-8.286h-15.187l-3.21,8.286h-4.121
	l12.757-31.367h4.468l13.232,31.367H268.027"/>
<path id="path26" fill="#231F20" d="M290.976,31.851l-0.172-3.472c-1.767,2.461-4.121,3.689-7.072,3.689
	c-2.836,0-4.874-0.738-6.117-2.214c-1.157-1.33-1.736-3.427-1.736-6.291V9.942h3.817V22.09c0,2.342,0.262,4.006,0.782,4.99
	c0.723,1.416,2.153,2.125,4.294,2.125c4.021,0,6.032-2.562,6.032-7.681V9.942h3.816v10.631c0,2.979,0.008,5.4,0.021,7.267
	c0.015,1.867,0.037,3.203,0.064,4.013L290.976,31.851"/>
<path id="path28" fill="#231F20" d="M316.545,20.398c0-2.169-0.51-4.021-1.523-5.555c-1.159-1.763-2.786-2.646-4.877-2.646
	c-2.233,0-3.916,0.911-5.049,2.734c-0.956,1.533-1.438,3.471-1.438,5.812c0,2.313,0.48,4.208,1.438,5.685
	c1.16,1.763,2.829,2.646,5.006,2.646c2.235,0,3.919-0.925,5.05-2.775C316.081,24.765,316.545,22.799,316.545,20.398z
	 M320.363,12.543c-0.028,1.245-0.044,2.909-0.044,4.99v8.113c0,5.12-0.478,8.648-1.431,10.586c-1.447,2.864-4.412,4.294-8.896,4.294
	c-6.046,0-9.068-2.227-9.068-6.68h3.73c-0.027,2.719,1.736,4.078,5.295,4.078c2.169,0,3.773-0.594,4.814-1.778
	c0.927-1.069,1.477-2.661,1.648-4.772c0.028-0.348,0.052-0.825,0.064-1.434c0.015-0.605,0.021-1.33,0.021-2.169
	c-1.706,2.575-4.122,3.862-7.246,3.862c-3.123,0-5.554-1.086-7.288-3.256c-1.562-1.938-2.343-4.525-2.343-7.767
	c0-3.122,0.794-5.696,2.388-7.721c1.793-2.229,4.19-3.342,7.201-3.342c3.324,0,5.8,1.373,7.42,4.123v-3.73h3.86
	C320.435,10.434,320.389,11.301,320.363,12.543"/>
<path id="path30" fill="#231F20" d="M342.74,25.518c0,2.314-0.938,4.078-2.816,5.291c-1.592,0.984-3.617,1.478-6.076,1.478
	c-5.698,0-8.548-2.356-8.548-7.072h3.818c0.202,2.979,1.836,4.469,4.903,4.469c1.303,0,2.415-0.289,3.342-0.867
	c1.067-0.694,1.604-1.647,1.604-2.864c0-1.328-0.797-2.356-2.386-3.078c-0.521-0.231-1.896-0.622-4.122-1.172
	c-2.025-0.521-3.529-1.144-4.514-1.867c-1.389-0.981-2.082-2.369-2.082-4.164c0-2.083,0.911-3.688,2.733-4.814
	c1.504-0.956,3.369-1.433,5.596-1.433c5.178,0,7.855,2.211,8.029,6.638h-3.777c-0.085-2.688-1.533-4.036-4.337-4.036
	c-1.157,0-2.157,0.247-2.996,0.739c-1.011,0.607-1.518,1.445-1.518,2.516c0,1.156,0.681,2.068,2.039,2.734
	c0.579,0.289,2.084,0.753,4.514,1.389c1.041,0.289,1.938,0.586,2.689,0.889c0.753,0.305,1.358,0.646,1.822,1.021
	C342.049,22.323,342.74,23.723,342.74,25.518"/>
<path id="path32" fill="#231F20" d="M364.198,20.854c0-2.308-0.432-4.227-1.3-5.758c-1.042-1.904-2.632-2.854-4.772-2.854
	c-2.256,0-3.964,0.922-5.12,2.769c-0.984,1.531-1.475,3.505-1.475,5.93c0,2.338,0.434,4.255,1.3,5.755
	c1.042,1.848,2.648,2.771,4.817,2.771c2.284,0,3.989-0.908,5.12-2.728C363.722,25.239,364.198,23.276,364.198,20.854L364.198,20.854
	z M368.235,20.573c0,3.269-0.796,5.958-2.391,8.067c-1.77,2.372-4.233,3.561-7.395,3.561c-2.812,0-5.102-1.229-6.869-3.689
	l-0.216,3.341h-3.739c0.087-1.242,0.131-3.37,0.131-6.378V0.484h3.816V13.63c1.71-2.747,4.178-4.122,7.396-4.122
	c3.044,0,5.394,1.114,7.047,3.341C367.495,14.843,368.235,17.418,368.235,20.573"/>
<path id="path34" fill="#231F20" d="M388.24,31.851l-0.175-3.472c-1.763,2.461-4.119,3.689-7.069,3.689
	c-2.836,0-4.876-0.738-6.116-2.214c-1.158-1.33-1.737-3.427-1.737-6.291V9.942h3.817V22.09c0,2.342,0.262,4.006,0.78,4.99
	c0.726,1.416,2.153,2.125,4.295,2.125c4.021,0,6.03-2.562,6.03-7.681V9.942h3.819v10.631c0,2.979,0.007,5.4,0.021,7.267
	c0.015,1.867,0.037,3.203,0.065,4.013L388.24,31.851"/>
<path id="path36" fill="#231F20" d="M408.896,13.369c-0.304-0.029-0.602-0.046-0.891-0.046c-3.989,0-5.986,2.242-5.986,6.728v11.8
	h-3.817V16.362c0,0.464-0.044-1.678-0.131-6.42h3.731l0.175,3.515c1.474-2.431,3.7-3.645,6.681-3.645
	c0.202,0,0.405,0.008,0.609,0.021c0.199,0.016,0.402,0.037,0.605,0.064V13.5C409.524,13.442,409.201,13.398,408.896,13.369"/>
<path id="path38" fill="#231F20" d="M428.789,20.398c0-2.169-0.508-4.021-1.521-5.555c-1.162-1.763-2.787-2.646-4.878-2.646
	c-2.234,0-3.917,0.911-5.051,2.734c-0.957,1.533-1.438,3.471-1.438,5.812c0,2.313,0.48,4.208,1.438,5.685
	c1.16,1.763,2.828,2.646,5.008,2.646c2.234,0,3.918-0.925,5.05-2.775C428.326,24.765,428.789,22.799,428.789,20.398L428.789,20.398z
	 M432.608,12.543c-0.029,1.245-0.045,2.909-0.045,4.99v8.113c0,5.12-0.477,8.648-1.43,10.586c-1.448,2.864-4.411,4.294-8.896,4.294
	c-6.046,0-9.066-2.227-9.066-6.68h3.729c-0.028,2.719,1.737,4.078,5.297,4.078c2.17,0,3.773-0.594,4.814-1.778
	c0.926-1.069,1.475-2.661,1.648-4.772c0.028-0.348,0.051-0.825,0.064-1.434c0.013-0.605,0.021-1.33,0.021-2.169
	c-1.706,2.575-4.123,3.862-7.247,3.862c-3.123,0-5.554-1.086-7.289-3.256c-1.561-1.938-2.342-4.525-2.342-7.767
	c0-3.122,0.795-5.696,2.387-7.721c1.795-2.229,4.19-3.342,7.201-3.342c3.326,0,5.802,1.373,7.42,4.123v-3.73h3.861
	C432.68,10.434,432.636,11.301,432.608,12.543"/>
<path id="path40" fill="#231F20" d="M16.923,16.44L8.946,8.463l7.978-7.979l7.979,7.979L16.923,16.44"/>
<path id="path42" fill="#231F20" d="M16.923,33.846l-7.978-7.977l7.978-7.979l7.979,7.979L16.923,33.846"/>
<path id="path44" fill="#231F20" d="M25.626,25.143l-7.978-7.977l7.978-7.979c1.292,1.325,3.27,3.714,4.634,5.906
	c0.953,1.531,1.727,3.019,1.938,3.479L25.626,25.143"/>
<path id="path46" fill="#231F20" d="M8.22,25.143l7.978-7.977L8.22,9.187c-1.291,1.325-3.269,3.714-4.635,5.906
	c-0.953,1.531-1.726,3.019-1.938,3.479L8.22,25.143"/>
<path id="path48" fill="#231F20" d="M10.635,41.585c4.028,1.608,8.55,1.608,12.576,0l-6.288-6.289L10.635,41.585"/>
<path id="path50" fill="#231F20" d="M1.206,32.156l6.288-6.285l-6.288-6.29C-0.403,23.609-0.403,28.129,1.206,32.156"/>
<path id="path52" fill="#231F20" d="M1.649,33.166c0.806,1.688,1.908,3.271,3.307,4.669c1.399,1.397,2.982,2.503,4.671,3.308
	l6.571-6.57L8.22,26.593L1.649,33.166"/>
<path id="path54" fill="#231F20" d="M32.64,19.58l-6.288,6.289l6.288,6.285C34.248,28.129,34.248,23.609,32.64,19.58"/>
<path id="path56" fill="#231F20" d="M17.649,34.573l6.571,6.57c1.688-0.805,3.271-1.909,4.671-3.308
	c1.398-1.399,2.501-2.981,3.307-4.669l-6.571-6.573L17.649,34.573"/>
<path id="path58" fill="#A7A5A6" d="M56.427,11.776c-0.301,1.144-0.76,2.556-1.274,3.933C54.624,17.119,25.5,94.973,25.5,94.973
	h8.936c0,0,9.96-28.08,11.073-31.283h35.812L79.294,58.2H47.401l16.146-43.146c0,0-1.458-6.034-4.941-9.144
	c-2.857-2.548-8.009-2.281-8.009-2.281C57.548,4.278,57.096,9.226,56.427,11.776"/>
<path id="path60" fill="#231F20" d="M44.572,0.484h25.633l36.126,94.489H92.673c0,0-28.869-78.984-28.973-79.266
	c-0.114-0.312-0.468-1.297-1.447-3.729c-3.066-7.615-9.417-8.417-13.56-8.417h-4.122L44.572,0.484L44.572,0.484"/>
</svg>
