<?xml version="1.0" encoding="utf-8"?>
<!-- Generator: Adobe Illustrator 14.0.0, SVG Export Plug-In  -->
<!DOCTYPE svg PUBLIC "-//W3C//DTD SVG 1.1//EN" "http://www.w3.org/Graphics/SVG/1.1/DTD/svg11.dtd" [
	<!ENTITY ns_flows "http://ns.adobe.com/Flows/1.0/">
]>
<svg version="1.1"
	 xmlns="http://www.w3.org/2000/svg" xmlns:xlink="http://www.w3.org/1999/xlink" xmlns:a="http://ns.adobe.com/AdobeSVGViewerExtensions/3.0/"
	 x="0px" y="0px" width="612px" height="39px" viewBox="27.6 11.1 612 39" enable-background="new 27.6 11.1 612 39"
	 xml:fpace="preserve">
<defs>
</defs>
<g id="strokeTL05_1_" display="none">
	<g display="inline">
		<path fill-rule="evenodd" clip-rule="evenodd" d="M368.4,14.5c1.8-0.7,4.7-0.2,7.4-0.5c-2.7-1.3-6.9-0.7-8.6,0.2
			C367.8,14.3,368.9,13.8,368.4,14.5z M379.7,13.6c-0.9,0.2-2.9-0.8-3.6,0.2C376.9,13.8,378.4,14.2,379.7,13.6z M345.4,15.3
			c1.7-0.1,2-0.1,3.6,0c-1.7-1.6-2-0.5-4.3-0.5C345,14.8,345.5,14.8,345.4,15.3z M320.6,16c-1.1-0.8-3.7-0.6-4.3,0.5
			C317.9,16.5,319.6,16.8,320.6,16z M326.4,16.2c0.3-1.1-2.9-0.8-2.4-0.5C325.7,16,325,15.9,326.4,16.2z M314.2,16.7
			c0.2-0.7,2.4-0.7,2.2-1c-2,0-4.7-0.2-4.8,1c1.3-0.1,0.6-0.6,1.9-0.7C314,15.9,313.3,17.1,314.2,16.7z M275.3,17.4
			c0.5,0.1,1.3,0.6,1.4-0.2c-0.9,0.2-0.6-1.1-1.7-0.2C275.5,16.9,275.5,17.1,275.3,17.4z M17.8,27C14.6,26.7,15.1,27.8,17.8,27
			L17.8,27z M762.5,21c-1,0.6-2.6,0.5-3.6,0c0.4-0.1,1.4,0.3,1.4-0.2c-0.7-0.7-1.7-1-1.9,0.2c0.2-1.1-0.9-0.3-1-0.7
			c0.1-0.5,1.1-0.1,1-0.7c-1.2-0.3-1-0.4-2.4-0.2c-1.5-2.3-6.2-0.2-8.2-2.2c-0.8-0.3-0.2,0.8-1,0.5c-1-0.4-1.7-1-2.6-1.4
			c-1.8,1.3-2.8-0.6-5.5-0.2c-0.2,0.4,0.7,0.8,0,1c-6.7,0.4-16.2-1.1-22.3-0.2c0-0.4-1,0.3-1-0.7c-6.5,0.8-14.7-0.8-21.1-0.2
			c0-0.3,0.4-0.2,0.5-0.5c-3.3,0.4-9-0.4-11.3-0.2c-0.5,0.6-2.8,0.7-3.6,0.2c0.6,0.2,1.9-0.2,1.2-0.5c-1.3,0.6-1.9,0.2-3.1,0.2
			c0.4,0,0.6,0.2,0.7,0.5c-4.6-0.7-8.3-0.4-11.8-0.7c-0.6,0.6-1.5-0.7-1.9-0.2c-1.9,0.9-5.4-0.3-7-0.7c-0.3,1.3-4.2,0.4-5.8,0.7
			c-0.5-0.6,0.1-0.3,0.2-0.7c-1.6-0.6-1,0.6-2.6,0.5c0.4-0.8-2.1-1.3-2.4-0.5c0.6,0.2,2.1-0.5,1.9,0.5c-2.5-0.4-3.4,0.4-5.8-0.7
			c1,0.1,2.4,0.5,3.6,0c-24.7-1.5-52.3-1.4-78.7-1.4c-8.9,0-17.4-0.1-25.4-0.5c-27.3-1.1-55.8-0.1-81.8-0.2c-0.1,1.5,1.6-0.2,1.7,1
			c-4.2-0.1-6.5,0.5-9.8-0.2c1.2-0.4,2.9,0,4.3,0c1.2,0,3.1,0,3.4-0.7c-8.3,0.2-12.5,0-18.5,0.2c1.2,1.4,5.6-0.3,7,0.7
			c-5.9,0.7-8,0-12.5,0.2c-1.8-1.6-6-1.2-7.4-0.2c1,0.2,2.7-0.3,3.4,0.2c-1.2,0.3-4.7,0.5-6.5,0c0.9-0.3,2,0.2,2.9-0.5
			c-4.2-0.8-8.3,0.3-12.7,0.2c-1.6,0-3.2-0.6-4.8-0.2c-0.1,0-2.1,0.5-2.2,0.5c-0.1,0,0.4-0.5,0-0.5c-2.3,0.2-6,0.8-7.7,0.5
			c-5.8-0.9-13.2,0.3-19,0.7c-1,0.1-2.1-0.7-2.9,0.5c1.6,0.7,3.7-1,4.8,0.5c-22,0.6-40.8,1.6-60.2,2.4c-0.8,0.5,0.7,0.5,0,0.7
			c-1.7-1.1-4.5-0.4-7.4-0.2c-8.2,0.3-20.2,0.8-27.8,0.7c-2.2,0-4.6,0.5-6.5-0.5c1.9-0.1,4.1,0.5,5-0.2c-0.7,0.1-1.7-0.4-1.9-0.5
			c0.2,0,0.3,0.4,0,0.5c-1.2-0.4-1.7-0.7-2.6,0c-0.3-0.9-5.2-0.5-6.7-0.2c2.6,0.7,4.9,0.3,6,1c-5.3,0.2-9.7,0.5-15.6,0
			c0.7-0.4,2.9,0.4,2.9-0.7c1.4,0.8,3.5,0.8,4.8-0.5c-1.8,0.5-1.8-0.3-3.8,0.5c1-1.2-3.2,0.3-3.6,0c0.3,0.4-8.5-1.4-10.6,0.7
			c2.5,0.1,4.5-0.4,7.9,0c0-0.4,0-0.8,0.5-0.7c-0.3,0.9,1.8,0.1,1.7,1c-0.2,0.6-1.6-0.6-1.4,0.7c0.5,0.1,1.6-0.3,1.7,0.2
			c-2.6-0.2-4.5,0.3-5.5,0c0.5-0.8,2.9,0.4,3.1-0.7c-4.2-0.4-9.6,0.8-12.5-0.5c1.6-0.3,3.7,0.5,4.3-0.2c-0.2-0.3-3.1,0-1.4-0.7
			c-0.8,0.1-3.3-0.2-2.9,0.2c0.6,0.2,2.1-0.5,1.9,0.5c-2.1-0.1-4.2-1.1-7-0.2c0.3,0,0.6,0.1,0.2,0.2c-1.2,0-1.3-0.1-0.5-0.5
			c-1.2-0.4-1.7,1.1-2.6,0.2c0.3-0.1,1.2,0.3,1.2-0.2c-2.1,0.1-4.6-0.3-6,0.5c-0.1-0.1,0.5-0.5,0.5-0.5c-0.9-0.4-3.3,0.1-3.4,0.5
			c-0.5-0.5-6.3-1.1-6.5,0.2c-0.1-1.2-2.6-0.4-1,0c-0.7-0.2-2.1,0.3-2.4-0.2c0.4-0.1,1.4,0.3,1.4-0.2c-3.1,0.1-5.6-0.2-6.5,0.5
			c-0.5-0.1,0.4-0.7-0.7-0.5c-0.1,0.7-0.5,0-1,0.7c-5.8-1.1-11.5-0.2-16.3,0c0.4,0,0.9-0.1,1,0.2c-2.4-0.4-6.3-0.5-10.1-0.5
			c0.1,0.9-1.1,0.7-1.4,1.2c-0.3-0.9,0.8-0.5,1-1c-1.3,0-3-0.7-3.8,0.2c0.4,0.1,1.4-0.3,1.4,0.2c-2.5-0.3-2.4,0.9-4.6,0
			c0.1-0.3,0.9,0,1-0.5c-0.9-0.2-1.1,0.3-1.9,0.2c-0.9,0.1-3.4-0.3-3.1,0.2c1.2,0.2,3-0.3,3.8,0.2c-3.8-0.2-7,0.7-10.1,0
			c1.3,0.2,2.6,0,4.1-0.2c0.4,0,2,0.1,1.2-0.2c-3.8,0-5.5,0.3-10.1,0.2c-1.3,0.2,0.9,0.3,1.4,0.2c1.4-0.2,0.8,0.3,1.4,0.7
			c-0.8,0-2.5-0.7-4.1-0.5c0-0.3,0.4-0.2,0.5-0.5c-1.9-0.3-0.7,0.6-1.4,0.7c-0.5-0.2-0.3-1.1-1.9-0.7c-0.1,0.9,1-0.2,1.2,0.7
			c-1.6-0.5-3.8,0.3-5.5,0c0.5-0.6,2-0.1,2.9-0.2c-0.5-0.6-2-0.1-2.9-0.2c-0.2,0.3-0.5,0.4-1,0.5c-0.7-0.1,0.6,0.7-0.2,0.7
			c-0.6-1.3-2.3,0.4-3.1-0.7c1.3,0.2,1.9-0.4,3.1-0.2c1,0,0-0.4-0.5-0.2c-9.2,0.7-22.6,0.1-30.2,1c0.5,0.2,1.9-0.4,1.7,0.5
			c-2.1-0.1-3.6,0.3-5.5-0.2c0.8,0.1,1.5,0,2.1-0.1c-13.4-0.6-34.9,0.6-47.5,1.7C79.7,22.2,85,21.8,85,22c-23.8,1.4-48.3,5-71.9,5.5
			c0.2,0,0.3-0.1,0.4-0.2c-3.9,0.6-8.6-0.5-13.2,0.2c0.8,0.6,0.5,1.2,1.7,2.2c-0.1,1.6-1.1,1.3-1.7,1.9c0.3,0,0.7,0,0.7,0.2
			c-0.8,0-0.8,0.6-1,1.2c1.6,2.4,0.1,8.1,2.4,9.8c-1,0-2.2-0.2-2.2,0.7c1.9,0.4,3.4,0.2,4.6,1.7C34.1,45,63,41,92.2,39.5
			c20.4-1.1,40.9-1,61.4-1.7c39-1.2,79.5-1.5,119.3-2.4c36.8-0.8,74.6-2.7,111.8-4.3c7.2-0.3,15.3-0.4,22.8-0.7
			c7.9-0.4,15.9-0.2,25.4-0.5c8.9-0.3,17.8-0.8,25.9-0.7c1.9,0,3.4-0.4,5-0.5c1.2-0.1,2.6,0.6,3.8,0.7c3,0.2,6.4-0.6,9.4-0.7
			c7.1,1,15.3-0.3,21.8,0c3.2,0.1,5.7,0.5,7.9-0.2c4.1,0.8,10.2,0.1,14.4,0c7,1.6,15.1-0.8,21.8,0.7c2.6-1,5.8-0.3,8.6-0.2
			c9.1,0.1,19.1,0.4,29,0.5c11.5,0.1,30,0,40.8-0.5c7.3,1.6,16-0.4,24.2,1.2c-0.2-0.7,0.5-0.4,1-0.5c4.5,0.6,9.8,0.5,14.6,0.5
			c5.1,0,10.3,1,15.6,1c27.2-0.3,54.8,2.7,81.8,3.8c0.2-1,0.7-0.2,1.4-0.7c-0.2-0.9-0.4-2,0-2.9c-1,0-1.9-0.1-2.2-0.7
			c0.4-0.1,1.2,0.2,1-0.5c-0.3-1.3-2,1.1-1.9-0.7c0.2-0.2,1.6,0,2.2-0.5c-1.1-0.9-1.6-2.4-1.4-3.6c0.6,0.6,0.3-0.6,1.2-0.2
			c-0.6,1.2-0.1,1.8-0.5,2.4c0.3,0.2,1.8,1,1.2,1.7c1,0.2,0.9-0.7,1.4-1c-1.1-0.6-1.1-1.4-1.9-2.2c0.6-1.3,2.2,0.9,2.4-0.7
			c0.7-0.4-0.7-0.7-1-1c0.6-0.7,0.9-1,0-1.4C761.7,23.1,763.1,22.2,762.5,21z M70.1,24.9c0-0.4,1.8-1,1.7,0H70.1z M85.2,22
			c0.4-0.5,1.8-0.1,2.6-0.2C86.9,22.2,85.8,22.2,85.2,22z M88.1,22c-0.1-0.9,2.3-0.5,2.6-0.2C89.3,21.8,89.3,21.8,88.1,22z
			 M91.9,21.7c-0.2-0.9,1.1-0.3,1.7-0.5C93.3,21.6,92.7,21.8,91.9,21.7z M102.2,22.7c0-0.7,1-0.4,1.7-0.5
			C103.6,23.2,102.8,22.3,102.2,22.7z M105.6,22.5c0.4-0.5,1.8-0.1,2.6-0.2C107.6,22.7,106.4,22.8,105.6,22.5z M109.2,22.5
			c-0.3,0,2.6-1.1,2.6,0H109.2z M98.9,21.3c4.4-1.1,10.6-0.2,15.4-1c0.2,0.1,0.4,0.2,0.7,0.2C109.9,21.4,105.4,20.8,98.9,21.3z
			 M117.6,20.5c-0.8,0.1-0.5,0.2-1.7,0.2h-0.7C116,20,122,20.1,117.6,20.5z M120,20.5c1.4,0.5,3.8-1.2,7.2-0.5
			C125.1,20.1,123,21.5,120,20.5z M137.8,19.8c-0.5,0.6-1.9,0.3-2.4,0.2C135.7,19.5,137,20,137.8,19.8z M136.8,21.5
			C133.8,22.2,133.3,21.2,136.8,21.5L136.8,21.5z M137,21.7c0.6-0.9,3-0.3,4.6-0.2C140.1,21.9,139.2,21.5,137,21.7z M141.6,35.4
			c0.3-0.3,0.1-0.4,0-0.7c-0.3,0-0.2,0.4-0.2,0.7c-0.5,0.1-0.6-0.2-1-0.2c0.5-0.4,1-0.8,1.9-0.7c0,0.4,0.3,0.5,0.2,1H141.6z
			 M145.4,21.5c0.6-0.6,2.3-0.1,3.4-0.2C147.5,21.8,146.8,21.7,145.4,21.5z M148.3,20.1c-1.9-0.4-4.5,0.2-7.4,0
			c-0.6-0.1-1.7,0.3-1.9-0.2h2.2c2.7-0.1,5.2-0.4,8.2-0.2C149.5,20.2,148.1,19.4,148.3,20.1z M151.7,30.9c0.6,0.6,1.5-0.5,2.4,0
			C153.7,31.6,151.7,31.5,151.7,30.9z M153.4,34.7v-0.5h1.4C155,35.1,153.9,34.6,153.4,34.7z M153.8,19.8
			C155.6,18.5,156.7,19.9,153.8,19.8L153.8,19.8z M157.2,34c-0.3-0.8,2-0.8,1.7,0C157.9,33.9,158.2,33.9,157.2,34z M158.9,35.2
			c-0.5,0.1-0.3-0.5-0.7-0.5c0-0.6,0.8-0.5,1.4-0.5C159.6,34.8,159.1,34.8,158.9,35.2z M167.8,33.3c-0.5,0-0.3-0.7-1-0.5
			c0.2-0.4,0.6-0.5,1.2-0.5C168,32.7,167.7,32.8,167.8,33.3z M170.2,21c0.3-0.9,2.1-0.3,3.1-0.5C172.6,21.4,171.6,20.7,170.2,21z
			 M174,34.2c-0.4-0.1,1.3-0.5,1.7-0.2C175.7,34.7,174.3,34.6,174,34.2z M174.2,33.5c0.1-0.7,1.2-0.4,1.9-0.5
			C175.8,34,174.9,33,174.2,33.5z M200.6,18.1c0.2,0.9-1.1,0.3-1.7,0.5C199,17.9,200,18.2,200.6,18.1z M197.3,18.1
			c0.2,0.9-1.1,0.3-1.2,1c-0.4-0.7-0.6-0.3-1.4-0.2C194.8,18,196.7,18.7,197.3,18.1z M179.3,20.5C176.6,21.3,176.1,20.2,179.3,20.5
			L179.3,20.5z M181.9,21.3c0.8-1.3-1-0.1-2.2-0.5c0.6-0.7,2.1-0.4,3.4-0.5C183,20.9,182.4,21,181.9,21.3z M184.8,33.5
			c0.3,0,0.7,0,0.7-0.2c0.3,0.1,0.1,0.7,0.5,0.7C185.8,34.5,184.5,34.2,184.8,33.5z M183.6,20.8c-0.1-1.2,2.2,0.1,2.4-0.7
			C186.8,20.9,184,20.3,183.6,20.8z M187.9,34.5C189.4,33.2,189.8,34.7,187.9,34.5L187.9,34.5z M186.5,20.1c2.9,0.1,7.1,0,10.6-0.2
			C194,20.6,189.9,20.7,186.5,20.1z M198,33.7c-0.1-0.6-0.2-1.2-1-1.2c1.3-0.5,2.6,0.3,4.1-0.2c0.5,0.6,0.8,1.2,2.2,1
			C202.1,34.5,199.4,33.3,198,33.7z M213.4,18.1c0-0.5,1-0.1,1.4-0.2c-0.5,0.3-0.4,1.2-1.4,1C213.3,18.5,213.8,18.2,213.4,18.1z
			 M211.7,18.6c-0.3,0.6-2.4,1.3-2.4,0C210.7,19.3,210.6,18.4,211.7,18.6z M208.8,20.1c1-0.7,2.3-0.1,4.3-0.5
			C213,20.5,210.3,19.9,208.8,20.1z M213.4,29.4c0.9,0,1.3,0.3,1.7,0C214.2,30.5,209.7,29.4,213.4,29.4z M217.2,18.4h2.4v0.5
			C218.9,18.6,217.2,19.4,217.2,18.4z M219.1,29.9c-0.7,0-1.3,0-1.2-0.7C218.1,29.7,219.4,29,219.1,29.9z M219.6,33.3
			c-2.7,0.3-2.4-0.6-0.5-0.2c0.1-0.6-0.9-0.2-0.7-1c1.4,0.2,0.5-0.4,1-1c0.6,0.1-0.2,1.7,1,1.2C220.1,32.6,219.7,32.8,219.6,33.3z
			 M223.7,18.4c-0.3,0.6-1.3,0.2-1.4,0.5C221.5,18.4,223.4,17.9,223.7,18.4z M222.2,26.1c0.2-0.6,0.4-1,1.2-1
			C223.2,25.6,222.8,26.6,222.2,26.1z M223.2,29.4c0.7-0.5,1.9,0.1,2.4,0C224.9,29.9,223.7,29.4,223.2,29.4z M224.2,18.6
			c0.5-0.6,1.9-0.4,2.9-0.2C226.2,19,225.3,18.8,224.2,18.6z M227,32.3c0.4-0.4,1.1-0.5,1.9-0.5C228.9,32.6,227.8,32.2,227,32.3z
			 M229.2,28.9c0.3,0.1,1.2-0.3,1.2,0.2C230.6,30.1,229,29.6,229.2,28.9z M230.6,33c1.1-1.1,1.8-0.6,3.1-1
			C232.9,33.5,232.6,33.1,230.6,33z M232.6,29.7c-0.6,0.5-0.7-0.5-1.7,0c-0.1-1.1,1.4-0.6,1.4-0.5c0.2,0,0.2-0.1,0.2-0.2
			C233.4,29,231.7,29.6,232.6,29.7z M239,32.8c0.2-0.2,0.4-0.7,0-0.7c0.3-0.7,0.9,0.3,1.7,0C240.3,32.5,240,33,239,32.8z M240,19.6
			h-1.4c0.1-0.9,0.7,0.1,1.2-0.5c-2.6-1-7.5,0.1-10.8-0.5c0.1-1.1,4,0.1,3.4-1c0-0.2,0.1-0.2,0.2-0.2h0.7c-0.2,0.2-0.4,0.4-0.7,0.5
			c4.2,0.5,6.7-0.1,9.1,0.2c-0.2-1-1.1,0-1.4-0.5c0.7-0.5,2.4,0,1.9,0.5c3.1-0.3,7.1-0.4,9.6,0c-2.7,0.4-6.4,0.8-9.4,0.2
			C241.9,19.1,240,18.4,240,19.6z M244.3,19.6c-0.5-0.5,1.5-0.6,2.6-0.5C249.2,19.4,244.1,19.4,244.3,19.6z M246.2,21.3
			c0-0.5,1-0.1,1.4-0.2c0.2,0.7-0.5,0.5-0.5,1c-0.3,0-0.1-0.2,0-0.2C247.2,21.3,246.4,21.6,246.2,21.3z M246.7,25.1
			c1,0.4,1.4-0.3,2.4-0.5c-0.2,0.4-0.9,0.8,0.2,0.7C249.7,25.4,246.4,26.6,246.7,25.1z M250.3,32.8c0-0.4-0.3-0.5-0.2-1
			c1-0.3,1.7,0.1,3.1,0C251.9,32.3,251.4,32.1,250.3,32.8z M250.8,19.3c0.6-0.5,1.6-0.6,2.4-0.2C252.6,19.5,252,19.2,250.8,19.3z
			 M255.8,24.9c0.3-0.8,1.5,0.6,1.9-0.2c0.3,0.1,0.2,0.6,0.2,1h-3.1C253.7,25.7,256.8,25.3,255.8,24.9z M255.4,28.9
			c1-0.2,2.3-0.3,3.4,0C258,29.5,256.1,29.2,255.4,28.9z M262.6,29.2c-0.1-1.5,1.1-0.2,1.9-0.5C263.7,29.3,263.3,28.9,262.6,29.2z
			 M268.3,31.8c-0.7,0.1-1.4-0.2-2.2-0.2c0.2-0.2,0.3-0.5,0.2-1c0.6,0.3,0.4,0,1.2,0.2c-0.1,0.3-0.6,0.2-1,0.2
			C268.3,31.3,270.4,31.6,268.3,31.8z M269.5,28.5c-0.6-0.1,0.1,1.1-0.7,0.7c0-0.4,0.3-0.5,0.2-1c0.6-0.1,0.5,0.4,1.2,0.2
			C270.2,28.8,269.5,28.8,269.5,28.5z M270,31.3c0.9,0,0.7,0.3,1.4,0C271.8,32.1,269.7,32.1,270,31.3z M274.8,31.6
			c-0.5-0.5,1.8-0.2,2.4-0.2C276.5,32.1,275.9,31.5,274.8,31.6z M283,24.9c0-0.5,1-0.1,1.4-0.2C284.2,25.5,283.3,25.3,283,24.9z
			 M288.5,28.9c-0.7,0.1-0.9-1-1.2,0c-0.3-0.1-0.5-0.3-0.5-0.7h-0.7c0.8-0.9,1.2,0.1,2.4,0V28.9z M291.8,24.6
			c0.2-0.5,0.9-0.5,1.7-0.5C293.5,24.9,292.2,25,291.8,24.6z M295.2,24.9c0.6-0.6-0.4-0.2-0.2-1c0.6,0.2,1.5,0.1,1.4,1H295.2z
			 M301.2,28.2c0.1-0.3,2.2-0.6,1.9,0.2C302.2,28.2,302,28.7,301.2,28.2z M304.6,31.8c-0.9,0.2-0.7-0.7-1.4-0.7
			C303.5,30.6,304.9,30.9,304.6,31.8z M304.8,24.6c0-0.6,0.8-0.5,1.4-0.5C306.3,24.9,305,24.8,304.8,24.6z M311.8,28.2
			c-0.7,0.2-0.9-0.2-1.4-0.2C310.3,27.6,312.1,27.5,311.8,28.2z M313.9,30.9c0.9-0.7,2.5-1.2,2.6,0.2
			C315.4,31.1,315.6,31.1,313.9,30.9z M393.6,13.3c0.1,0.9-1.3,0.3-1.9,0.5C392.1,13.4,392.8,13.3,393.6,13.3z M391.2,13.6
			c-0.9,0.7-1.7,0-2.6,0.5C389,13.1,390.3,13.6,391.2,13.6z M341.3,29.9c0.5-0.6,1.4-1.4,2.2-0.5C343.4,30.2,342.1,29.8,341.3,29.9z
			 M342,26.3c1.6,0.4,2-0.2,3.4,0C344.8,26.9,342.3,27.4,342,26.3z M354.7,22.7c-0.6-0.1-1-0.3-1.4-0.5c0.3-0.3,1.5-0.2,1.9-0.5
			C356,22.2,354.6,22.2,354.7,22.7z M357.4,22c0-0.3-0.1-0.4-0.2-0.5c0.3-0.3,1.6,0.5,2.4,0.5C359.1,22.6,358.3,21.6,357.4,22z
			 M364.1,26.1c-0.3-0.1-0.2-0.6-0.2-1c0.7-0.2,0.3,0.8,1.2,0.5C365.2,26.2,363.9,25.4,364.1,26.1z M371.8,16.2c0-1,1.7-0.2,2.4-0.5
			C373.6,16.2,372.8,16.3,371.8,16.2z M377.8,16c0.1-0.8,1.6-0.4,2.4-0.5C379.8,16.6,378.3,15.5,377.8,16z M384,25.1
			c-0.4-0.9,1.1,0,0.7-1c0.5,0.6,1.2-0.5,1.2,0.7C385.1,24.8,384.6,25,384,25.1z M387.4,21.7c-0.6-1.1-1.7-0.4-3.1-0.5
			c0.7-0.7,2.1-0.6,3.4-0.7C387.2,21.1,387.1,21,387.4,21.7z M389.5,21c-0.2,0.2-0.4,0.4-0.5,0.7c-0.7-0.2,0.7-1.3-0.7-1
			c0-0.2,0.3-0.2,0.5-0.2c0-0.2-0.1-0.2-0.2-0.2c0.2-0.4,0.6-0.2,0.5,0.2h1v1C389.6,21.6,389.5,21.3,389.5,21z M390,24.6
			c1.3-1.2,3-0.4,5-0.5C393.8,25,391.8,24,390,24.6z M409.7,12.9c-1.5,1.7-4.9,0.2-6.7,0.5C404.5,12.9,408.2,12.9,409.7,12.9z
			 M404.6,26.3C403.6,27.4,401.4,25.8,404.6,26.3L404.6,26.3z M403.9,20.5v-0.5h1.2C405.4,20.9,404.4,20.4,403.9,20.5z M405.4,15
			c3.8-1.1,7.4-0.3,10.3-0.7C412.7,15.5,408.8,14.6,405.4,15z M415,14.1c-0.6-0.1-1.1-0.3-1.9-0.2C412.3,13.6,415.3,13.1,415,14.1z
			 M416.2,14.5c0.2-0.3,2.5-0.6,2.4,0.2C417.7,14.2,417,14.9,416.2,14.5z M419,26.1c0.6-0.3,2-0.5,2.4-0.2
			C420.8,26.4,420,26.3,419,26.1z M419.5,14.5c1-0.5,1.8-0.3,2.9-0.2C421.8,14.7,419.8,14.6,419.5,14.5z M423.8,19.8
			c0-0.7,1-0.4,1.7-0.5C425.5,20.1,424.2,20.1,423.8,19.8z M410.2,13.3c-0.5-0.9,2.6-0.3,3.1-1c3.4,0.8,9-0.3,12.5,0.2
			C421.8,13.5,413.1,12.9,410.2,13.3z M426.7,14.5c1.4-0.9,3-0.6,4.3-0.5C430.3,14.7,428.5,14.5,426.7,14.5z M431.5,14.3
			c1-0.4,2.4-0.5,2.9-0.2C433.7,14.8,432.2,14.3,431.5,14.3z M433,12.6c0-0.2,0.2-0.2,0.2-0.5c0.2,0,0.2-0.1,0.2-0.2
			c0.6,0.7,1.6,0.1,2.6,0.5C436,13,433.7,12.7,433,12.6z M437.5,19.6c0.3-0.5,1.9-0.3,2.2,0C439.3,20.6,438.4,19.4,437.5,19.6z
			 M439.9,19.3c0-0.6,0.8-0.5,1.4-0.5c0,0.3,0.1,0.4,0.2,0.5C441.2,20.4,441,19,439.9,19.3z M436.1,14.1c2.3-0.1,6.9-0.8,9.4,0.2
			C442.2,14,439.9,14.7,436.1,14.1z M447.1,14.1c-0.6,0-0.7,0.5-1.4,0C447.4,13.6,449.6,13.9,447.1,14.1z M524.2,11.9
			c-1,0.7-2.1,0.3-3.8,0.2C520.6,11.4,522.8,12.2,524.2,11.9z M521.5,12.6c-0.4,1.1-1.5-0.1-2.2,0.5
			C519.3,12.1,520.9,12.8,521.5,12.6z M515.8,11.9c0.1,0.4-0.2,0.5-0.5,0.5c0.4,0.5,1.8,0.1,2.6,0.2c-0.2-1-1.9,0.2-1.7-0.7
			c1.9,0,1.8-0.2,3.4,0c0,0.3-0.4,0.2-0.7,0.2c0,0.4,0.3,0.5,0.2,1c-2.3,0-2.8-0.3-5.3-0.2c-0.8-0.3,0.8-0.2,1.2-0.2
			c-0.5-0.8-2.4-0.3-3.6-0.5C512.7,11.4,513.8,12,515.8,11.9z M508.8,11.9c-0.5,0.4-1.8,0.7-1.9-0.2C507.5,12.1,508,11.4,508.8,11.9
			z M485.3,11.7c4.2,0.5,7.2-0.3,12.7,0.2c1,0,0,0.4-0.5,0.2c-0.8,0.4-1.3,0.1-2.2,0c-0.2,0.7,0.5,0.4,1,0.5c-0.5,0.7-1.4,0-2.4,0.5
			c0-0.5,0.6-0.5,1.2-0.5c-1.5-0.8-2.5,0.8-3.8,0.5c-0.2-0.9,1.1-0.3,1.7-0.5c-4.8-0.9-7,0.1-12-0.5
			C482.8,11.1,483.6,12.2,485.3,11.7z M471.4,11.9c0,0.7-1,0.4-1.7,0.5C469.5,11.5,470.8,12.1,471.4,11.9z M469.2,11.9
			c-1.2,1-3.5,0.6-5.3,0.5C465.2,11.4,467.6,12.3,469.2,11.9z M451.2,19.6c0.2-0.5,1.3-0.1,1.9-0.2
			C453.1,20.1,451.6,19.9,451.2,19.6z M454.1,18.9c0.8,0,0.9,0.7,1.9,0.5C455.6,20.1,453.9,20,454.1,18.9z M449.5,14.1
			c2.1-0.7,6.5-0.4,8.9-0.2C455.9,14.4,452.4,13.9,449.5,14.1z M467.5,23.9c0.4-0.5,0-0.3,0-1c0.8,1,1.8-0.5,2.2,1H467.5z
			 M470.6,24.1c-0.9-0.3-0.7,1-1.4,0.2c0.6-0.2,0.8-0.8,1.4-1V24.1z M471.4,13.8c-4.5-0.2-8.3,1-12.7-0.2c4.4,0,7.4,0,11.8,0h1.4
			C472.3,13.8,471.7,13.8,471.4,13.8z M479.8,12.4c-2.6,0-4-0.2-5.8-0.2C476,12,478.9,11.2,479.8,12.4z M475.2,13.8
			c0.2-0.2,2.8-1,3.4,0H475.2z M478.8,13.3c2.8,0.2,5.2-0.1,8.4,0c-0.2-0.2-0.4-0.4-0.7-0.5c0.6-0.4,1.3,0.3,1.9,1
			C485.4,13.5,481.1,14.5,478.8,13.3z M488.9,13.8c1.9-1.1,5.7-0.2,8.4-0.5C495.1,14.5,492.1,13.5,488.9,13.8z M497.5,13.3
			c0.9,0.6,4.1-0.8,4.8,0.5C500.9,13.2,498.9,14.5,497.5,13.3z M500.6,22.7c0.7-0.8,1.7-0.3,2.6-0.2
			C503.4,23.3,501.6,22.4,500.6,22.7z M500.2,12.1c-0.3-0.7,2.9,0.2,3.4-0.5c0.6,0.4,2.3-0.2,2.4,0.7
			C504.3,12,502.1,12.2,500.2,12.1z M521.5,24.1c0.1-0.6,0.5-0.8-0.5-0.7c0-0.5,0.9-0.1,1.2-0.2c-0.4,0.4-0.3,1.1,0.5,1
			C523.3,24.7,522,24.1,521.5,24.1z M503.5,13.8c6.7-1,14.9-0.3,21.1-0.2C517.9,14.7,512.2,13.4,503.5,13.8z M528.5,12.4
			c-0.9-0.2-0.9,0-1.4-0.2C527,11.8,528.8,11.6,528.5,12.4z M530.6,14.1c0.2-0.6,1.7-0.7,2.2-0.2C532.5,14.4,531.3,13.9,530.6,14.1z
			 M530.4,12.4c0.4-1,1.5,0.1,2.6-0.2C532.4,13.2,531.8,12.4,530.4,12.4z M534.5,12.4c0-0.7,1.4-0.6,1.7-0.2
			C536.1,12.7,535,12.2,534.5,12.4z M539.5,14.1c-4.3-0.2,3.7-0.5,4.8-0.2C543.2,14.4,541,13.9,539.5,14.1z M538.8,12.4
			c0.8-0.6,4.6-0.2,6-0.2C543.1,12.9,541.3,12.3,538.8,12.4z M605.8,13.3h-2.9C602.7,12.6,606.9,13.2,605.8,13.3z M602.6,13.1
			c-0.8,0.6-2.6,0.1-3.8,0.2c-0.4,0.1,0.1,0.3,0,0.7h-2.2c0.5-0.5,0.1-0.9-0.7-0.7C598.2,12.8,600,13,602.6,13.1z M595.7,13.1
			c-0.9,0.6-2.8,0.1-4.1,0.2C592.5,12.8,594.4,13.3,595.7,13.1z M591.1,13.8c-0.5-0.3-1.3-0.3-1.4-1C590,13.4,591.5,12.6,591.1,13.8
			z M573.4,12.9c-0.2,0.9-1.4-0.5-1.4,0.2C571.3,12.3,573.2,12.8,573.4,12.9z M569.8,12.6c-2.4,0.4-8.5,0.8-11-0.2
			C562.2,12.6,565.6,12.6,569.8,12.6z M546.2,12.1c0.7,0.1,1.6,0.2,2.6,0C548.5,13,546.5,13.1,546.2,12.1z M550.1,12.1
			c1,0.2,6,0.3,2.6,0.5c-0.4,0.1-2.4,0.1-3.1-0.2C549.6,12.2,549.9,12.2,550.1,12.1z M550.1,14.3c0.5-0.6,2-0.1,2.9-0.2
			C552.5,14.6,551,14.2,550.1,14.3z M553.2,13.8c8.7,0.5,19.1,0.3,27.8,0.7C571.4,14.8,562.8,14.9,553.2,13.8z M581.3,14.8
			c0.6-0.6,2.2-0.1,3.1-0.2C583.8,15.1,582.2,14.6,581.3,14.8z M611.3,15h-2.2c-7.8,0.1-13.8-0.1-20.4-0.2c7.4-0.5,15.2-0.2,21.4,0
			C610.6,14.7,612.6,14.8,611.3,15z M606.5,13.3c1.5-0.3,5.3-0.7,6.5,0.2C610.3,13,608.2,13.8,606.5,13.3z M613.9,15
			c-0.2-0.5,2.6-0.1,3.6-0.2C617,15.8,615.3,14.6,613.9,15z M613.2,13.3c1.3-0.6,3.6-0.1,5.3-0.2C617.5,14.2,614.9,13.5,613.2,13.3z
			 M625.7,14.8c0.7-0.2,0.9,0.2,1.4,0.2C627.1,15.4,625.3,15.6,625.7,14.8z M625.4,13.8c0.1,0.3,0.3,0.5,0.7,0.5
			c-1.1,0.7-1-0.5-2.2-0.5c-0.3,0-0.2,0.4-0.2,0.7c-0.2-0.8-1.4-1-2.6-0.2c0-1-1.3-0.7-2.2-0.7c2.5-1.3,5.3,0.4,8.4-0.5
			c-0.1,0.6,1.1-0.1,0.7,0.7C626.5,13.9,626.5,13.5,625.4,13.8z M630.2,15C627.6,15.7,627.1,14.7,630.2,15L630.2,15z M628.6,13.6
			c0.2-0.3,3.4-0.5,3.4,0.2C630.5,14,629.9,13.5,628.6,13.6z M632.2,13.3c1.4,0.3,1.7,0.1,3.1,0.2C635,14.2,632.8,14.2,632.2,13.3z
			 M637.4,13.6c2.1,0.1,2.9-0.1,4.8,0.2C641.2,14.1,638,14.5,637.4,13.6z M651.1,16c0.3-0.9,0.8-0.1,1.4-0.5
			C652.8,16.4,651.6,15.8,651.1,16z M674.2,16.2c0.4-0.5,1.8-0.1,2.6-0.2C675.8,16.7,675.1,16.3,674.2,16.2z M677,16.5
			c0.9-1.3,2.7-0.4,4.8-0.5C680.2,16.9,679.2,16,677,16.5z M755.8,31.3c-0.4-1-1.5-1.2-1.9-2.2c1.3,0.3,1.4-0.8,2.4-0.2
			c-0.5,1.1,0,1.4,0.7,1.4C756.5,30.6,756.5,31.4,755.8,31.3z M129.8,20c0.4,0,0.8,0,1.2,0.1C130.7,20,130.3,20,129.8,20z
			 M667.9,14.3c-0.6,0.1-1.7-0.3-1.9,0.2c0.4,0,0.9-0.1,1,0.2C667.1,14.5,667.9,14.8,667.9,14.3z M437.5,11.9
			c1.5,0.1,3.2,1.1,3.8-0.2c-1.8-0.1-3,0.4-4.1,0C437.3,11.9,437.4,12.3,437.5,11.9z M364.6,14.3c-1.5-0.3-3.5-0.8-4.6,0.2
			c-0.1-0.3-0.3-0.5-0.7-0.5C360.1,15.3,363.2,14.5,364.6,14.3z M358.8,14.3c-2.1-0.7-6.8,0.2-8.9,0.2
			C352.3,15.4,357.7,15.2,358.8,14.3z M320.6,15.7c0.4,0,0.6,0.2,0.7,0.5c0.6-0.1,1-0.5,1.4-0.7c-0.8-0.1-1.2,0.1-1.4,0.5
			C321.6,15.4,319.9,15.4,320.6,15.7z M300.5,16.9c1.2,0.2,3.6-0.3,5.5,0c0.1-0.4-0.4-0.6,0-0.7c1.2,0.4,2.9,0.2,5.3,0.5
			c-1.3-1.4-5-0.6-7.7-0.5c-1.4,0.1-2.6-0.4-3.6,0.2C301.1,16.3,299.8,16.9,300.5,16.9z M288,17.4c0.9,0.1,0.7-0.7,1.4-0.7
			c-0.5,0.8,0.3,0.4,0.5,0c0,0.3,0.1,0.5,0.2,0.7c0.5,0.2,3.2-1.5,2.4-0.2c2.6,0.1,4.4-0.2,7.2,0c0.4-0.6-1.1-0.5-0.2-0.7
			c0.1,0,0.3-0.2,0-0.2c-0.5,1-1.3,0-1.2,0c-1.7-0.5-2.2,0.6-2.8,0.7c0.1-0.2-4.1-1.3-4.6,0.3c-0.2-0.2-1.1-0.1-0.2-0.7
			c-1,0.2-2.6-0.3-3.1,0.2h0.7C288.2,17,287.9,17,288,17.4z M344.6,15.5c0.1-0.3,0.3-0.4,0-0.7c-1.9,0.1-4.8-0.6-7.2,0
			c-0.3,0.1-0.6,0-1.7,0c-2.7,0-7.2,0.4-8.4,1.2C332.8,16.2,338.1,15.2,344.6,15.5z"/>
	</g>
</g>
<g id="strokeTML04_1_">
	<g>
		<path fill-rule="evenodd" clip-rule="evenodd" d="M639.3,23.8c0.3-1.2-1.3-0.7-1.4-0.2C638.6,23.4,638.6,24,639.3,23.8z
			 M98.4,11.5c-0.7,0.1-1.9-0.3-2.2,0.2C97.2,12,97.8,12.2,98.4,11.5z M110.8,11.5c-1.3,0.2-3.2-0.3-4.1,0.2
			C107.6,12,110.4,12.5,110.8,11.5z M116.8,12.5c0.6,0.2,0.5-0.5,0.7-0.7c-1-0.4-2.4-0.3-3.1,0C114.9,12.3,117.6,11.6,116.8,12.5z
			 M126.7,11.8c-0.7,0.2-2.1-0.3-2.4,0.2C125.1,12,126.6,13.2,126.7,11.8z M144.7,12c-0.8,0.2-2.2-0.3-2.6,0.2
			C142.7,12.2,144.1,13,144.7,12z M158.1,12c-1,0.2-2.6-0.3-3.1,0.2C156,12.1,157.6,12.6,158.1,12z M256.3,14.4
			c0.7,0,1.3-0.1,1.7-0.5C257.6,13.6,256.3,13.7,256.3,14.4z M315.6,14.4c-1.2,0-2.9-0.7-3.8-0.2C313,14.6,314.2,14.8,315.6,14.4z
			 M325.4,14.7c0.3-0.8-1.6-0.6-1.7-0.2C324.3,14.9,324.7,14.2,325.4,14.7z M343.4,14.2c-0.7,0.2-2.1-0.3-2.4,0.2
			C341.8,14.8,342.8,14.6,343.4,14.2z M317,14.9h-1v1C316.8,16,317.1,15.7,317,14.9z M362.6,15.9c0-0.5,1-0.1,1.4-0.2
			C364.2,14.5,361.7,15.5,362.6,15.9z M356.4,15.4h-1v0.7h0.7C356.1,15.8,356.2,15.6,356.4,15.4z M456.2,16.3
			c0.2-0.9,0.8,0.1,1.2-0.7c-0.4-0.3-2.4,0-2.2,0.2C456,15.6,455.8,16.2,456.2,16.3z M579.6,16.8c-0.8-0.2-3.1-0.5-3.4,0
			C577.3,16.7,578.7,17.5,579.6,16.8z M602.4,17.1C599.2,16.3,599.7,17.7,602.4,17.1L602.4,17.1z M591.3,17.5c-2,0.2-3.5-0.7-5.5,0
			C588.1,17.7,589.5,18.4,591.3,17.5z M606.4,17.8c0.2-0.8-1.8-0.6-1.9-0.2C605.3,17.4,605.9,17.6,606.4,17.8z M234.7,27.6
			c-0.2-0.1-0.3-0.2-0.2-0.5c-0.6,0-1.2,0-1.2,0.5C233.9,27.4,234.4,28.4,234.7,27.6z M151.4,40.3c0.8,0.2,2.4,0.5,2.4-0.5
			C152.9,39.9,151.7,39.7,151.4,40.3z M160.3,40.1c-0.3,0.8,1.4,0.6,1.4,0.2C161,40.4,160.8,39.6,160.3,40.1z M187.6,39.9
			c-0.5-0.1-0.5,0.3-1,0.2c-0.3,0.6,0.8,1.1,1,0.5C186.5,40.5,187.9,40.5,187.6,39.9z M209,39.9c-0.3,0.8,0.8,0.2,0.5,1
			c-0.2,0.1-0.5,0-0.5,0.2h1c0-0.4,0.1-0.7,0.2-1C209.5,40.3,209.6,39.8,209,39.9z M218.4,41.5c1-0.1,2.3,0.2,2.6-0.5
			c-0.3-0.5-1.6,0-1.9-0.5C219,41.1,218.6,41.2,218.4,41.5z M442.8,40.8c0.3,0.3,0.8,0.3,1.4,0.2C444.5,40.3,442.8,40.5,442.8,40.8z
			 M447.1,40.6C443.9,40.3,444.4,41.3,447.1,40.6L447.1,40.6z M470.4,41.1c0.5,0.3,2.5,0.6,2.6-0.2
			C471.9,40.6,471.3,40.5,470.4,41.1z M331.6,41.8c0.7,0,1.3-0.1,1.7-0.5C332.4,41.4,331.8,40.7,331.6,41.8z M343.2,41.5
			c0,0.8,1,0.8,1.2,0.2C344.1,41.6,343.7,41.5,343.2,41.5z M533,42.5c0.4,0,2.4,0.2,2.9,0C535.3,42.3,532.9,41.8,533,42.5z
			 M620.8,48c0,0,4.1,1,4.1,0.2C624.1,48,620.9,47.3,620.8,48z M637.9,21.2c-0.7,0.1-2.1,0.2-1.7-1.7c-1.3,0.1-0.2,1-1,1.4
			C635.9,21.1,638.4,22.2,637.9,21.2z M209.2,39.4c0-0.1,0-0.1,0-0.2c-0.1,0-0.2,0-0.3,0.1C209,39.3,209.1,39.4,209.2,39.4z
			 M637.4,26.2c0.3-1.2,0.2-1.5,0.5-2.6c-1.1-0.1-1.9-0.9-2.9-0.5c-0.3-2-3.4,0.4-3.8-1.4c0.5,0.2,1.2-0.9,2.4-0.2
			c0.1-1.2-0.9-0.9-1.4-0.5c0-0.9-0.7-1.1-1-1.7c-7.3-0.4-15.9-1.9-24-1.7c0.8,0.7,3.7,0,4.6,1c-0.4,0-0.9-0.1-1,0.2
			c0.7,0.3,1.8-0.3,2.2,0.7c-5.6-0.2-13.3-1.9-19.2-1.2c1.8,0.5,4.8-0.3,5.8,1c-11.1-0.8-23-2-35.5-2.2c0.4,0.1,0,0.4-0.2,0.5
			c-6.6-1.8-14.1-1.3-20.2-1.4c-0.2-0.4,1.4-0.1,0.5-0.5c-0.7,0-0.7,0.8-1.7,0.5c-0.2-0.1-0.3-0.2-0.2-0.5c-3.6,1.1-6.3-0.2-8.2,0
			c0.2,0.2,0.7,1.4,0.2,1.4c0-0.9-2.2-0.7-1-1.4c-4.9-0.5-7.8-0.6-13.9-0.7c-0.5,0.3,0.3,0.6-0.2,0.7c-1.4,0.1-2-0.6-2.2,0.2
			c-0.7-0.8-1.3-0.3-2.4-0.2c-4.3,0.1-11.1-1-15.1-0.5c-2.7,0.3-5.2-0.6-7.7-0.7c-0.8,0-1.5,1-2.6,0.5c-0.6-0.3-1.9-0.5-2.9-0.5
			c-2,0.1-6.6,0.1-7.7,0.2c-0.9-0.8-2.3,0.1-3.6,0.2c1.1,0.8,2.5-0.5,3.1,1c-2.5-0.3-6.7-0.7-8.9,0.2c-0.4-0.3-1.1-0.3-1.4-0.7
			c1.1,0,1.8-0.8,2.4,0c0.3-0.5-0.6-0.9,0-1c0.7,0.7,2,0.9,2.6,0c-0.9-0.3-2.5-0.3-3.4,0c0-0.2,0.2-0.3,0.2-0.5
			c-1.8,0.5-4.2-0.2-6,1c-0.8-0.8-1.7-0.1-3.1-0.5c0,1.1,2,0.2,2.2,1.2c-1.1,0.2-1.5-0.4-2.6-0.2c0-1.6-2.2-0.6-2.4-0.5
			c0.6,0.4,2.7-0.4,2.2,1.7c-2.2-0.1-2.8,0.1-4.6,0.2c0-0.3,0.4-0.5,0-0.7c-0.6,1.1-1.3-0.4-3.1,0c0-0.2,0.2-0.3,0.2-0.5
			c-0.4,0-0.7-0.1-1-0.2c-0.1,0.5,0.3,0.5,0.5,0.7c-1.3,0.3-0.5-1.6,0-1.7c-0.1,0.6,0.5,0.6,1,0.7c0.1-1.7-2.4-0.5-3.8-0.5
			c0.6,0.3,1.6,0.2,1.7,1c-0.3-0.2-0.6-0.3-1.2-0.2c-0.4,1.1,1.6-0.1,1.2,1c-1.3-0.3-3.9,0.2-4.8-1c-0.9,0.5-1.4,0.2-1.4,0.7
			c-0.4-0.4-0.9,0.2-1.4-0.5c0-0.4,0.5-0.9,1.2-1.2c-0.7,0.4-2.7-0.8-3.8,0.2c0.3,0.5,1.1,0.3,1.4,0.7c-0.9,0.1-1.5-0.1-1.9-0.5
			c-0.2,0.7-0.4,0.9-0.5,1.2c-0.2-1-1.5-0.4-1.9-0.7c0-0.4,0.7-0.1,0.7-0.5c-1.1,0.4-1-0.6-1.9,0.2c0.8,0,0,0.6,0,1
			c-0.3-0.1,0-0.9-0.5-1c-1,0.1-2.6,0.7-3.8-0.2c0.3-0.6,0.7,0.4,1-0.2c-0.5,0.1-0.5-0.3-1-0.2c-0.2,0.6-0.7,1.2,0,1.4
			c-1.5,1-2.8-0.2-4.1-0.7c0.7-0.4,0.9,0.4,1.9,0c-0.2-1.1-2.7-0.5-0.7-1.2c-1.3,0.2-3.2-0.3-4.1,0.2c0.4,0,0.8,0,0.7,0.5
			c-0.6-0.1-0.8-0.3-1.2,0.2c0.6,0,1.4-0.1,1.7,0.2c-0.2-0.8,1.2-1.3,1.7-0.7c-0.6,0.1-0.7,0.8-1,1.2c-1.2-0.6-1,0.3-2.4,0.5
			c0.5-0.9-0.3-0.1-1-0.2c0-0.3,0.3-0.4,0-0.5c-0.6,0-2.3,0.4-3.1-0.2c0-0.5,0.8-0.2,0.7-0.7c-3.2,0.5-6.2-0.8-8.9,0.7
			c1.1,0.1,1.3-0.5,1.9,0c-0.2,0.1-0.3,0.2-0.2,0.5c-2.2,0.9-5,0.7-7.7,0c-0.1,0.2,0,0.5-0.2,0.5c-0.8-1.3-4.5,0.4-5.3-1
			c1.5,0,5.4,0.5,5-0.5c-0.2,0.8-1-1-1.4,0c0.3,0,0.7,0,0.7,0.2c-1.5-0.5-4,0.3-4.6-0.7c-0.5,0.1,0.4,0.6-0.5,0.7
			c-1-0.2-1.3-0.1-2.4-0.5v1c1.1,0,0.9-0.2,1.9,0c-0.6,0.6,0.3,0.5,0.5,1c-2-0.5-6,1.1-6.5-1c1-0.3,2.9,1.1,1.9,0
			c0.6,0,1.9-0.2,1.2,0.5c0.6,0.3,1.1-0.8,0.5-1c-2.3,0.3-2.4-0.7-4.3,0c-0.1,0.5,0.3,0.5,0.5,0.7c-0.4,0-1.4,0.6-1.7,0
			c0-0.2,1-0.5,0.2-0.7c-0.6,0.1-1.9-0.5-2.6,0.5c0.7,0.2,2.3-0.5,2.2,0.5c-1.1-0.3-1.5,0.2-2.4-0.2c-0.5,0.4,0.3,0.7-0.5,1
			c0.2-0.7-0.4-0.7-0.2-1.4c-0.7,0.7-2.3,0.5-3.1,0c-1.9,2-4.4-0.9-6.2,0c-0.7-0.7-2.5-1.5-3.8-0.7c0.1,0.4,1.1,0,1.2,0.5
			c-0.9,0.4,0,0.4,0.2,0.7c-3.3-0.7-6-0.8-8.6,0c0.7,0.1,1.9-0.3,2.2,0.2c-0.7,0-1.2,0.1-1.4,0.5c0.4,0,0.8,0,0.7,0.5
			c-0.7-0.6-1.8,0.6-2.2-0.5c1.9-0.1-1.3-2.3-1.7-1c0.3,0.6,1.5,0.2,1.4,1.2c-2.1-0.3-4.7-0.1-6.2-0.7c-0.1-0.6,1.1,0.1,0.7-0.7
			c-0.8-0.1-0.8,0.4-1.7,0.2c-0.2,0.7,0.3,0.6,0.2,1.2h-1.4c0.3-0.7-0.8-1.2-1-0.7c0.3,0.1,0.5,0.3,0.5,0.7c-0.8,0-4.6,0.1-2.9-1.2
			c-1.7,0-2.9-0.1-2.2-0.7c-0.5,0.7-3.4,0.6-1.9-0.5c-1.6-0.4-1.3,2-2.6,1c-0.1,0.8,1.1,0.8,0.5,1.4c-1-0.7-2.2,0.3-2.9-0.7
			c0.4,0,1.2,0.5,1.2-0.2c-0.3-0.9-1.9,0.3-2.6-0.5c-0.5,0.4,0.3,0.7-0.5,1c0-0.6-0.8-0.1-1,0c0.3-1.6-3.8-0.1-2.4-1.7
			c-0.7,0.2-0.7,0.2-1.4,0c-0.2,0.8-0.6,1.4-1.4,1c-0.2,1,1.3,0.1,1.2,1c-2.4-1-4.1,0.5-6-0.5c1.5,0.1,1.7,0.1,2.6-0.5
			c-1.9-0.2-3.4,0.1-4.6,0c0.7-0.3-0.1-0.7,0.7-1c0.4,0.5,0.9,0.1,1.4,0c0,0.7,0.4,0.8,0.7,0.5c-0.9-1.9-3.4,0.5-4.3,0.2
			c-0.3,0.9,0.7,0.5,0.5,1.2H329c0.2-0.7,0.2-0.5,0-1.2c-1.1-0.3-2.6,0-3.1,1c-0.4-0.1-1.4,0.3-1.4-0.2c0.4,0,0.6-0.2,0.7-0.5h-1.9
			c0,0.3,0,0.7-0.2,0.7c-0.9,0.1-1.2-1-2.9-0.7c-0.1,0.4,0.4,0.6,0,0.7c-1-0.1-1.5,0.6-1.9-0.2c0.3-0.1,0.5-0.3,0.7-0.5
			c-1.4,0.1-3.5,1.8-5.3,0.5c1-0.2,1.5,0.1,1.9-0.2c-1.2-0.4-1.8-0.8-2.6,0c-0.6-0.3-0.1-0.5-0.5-0.7c-0.4,0.2-0.4,0.7-0.7,1
			c-0.7-0.3-2.1-0.1-2.6,0.2c-0.7-0.2-0.2-0.8-0.5-1c-2.8-0.1-5.6,0.7-7.7,0.5c-0.5,0.9-0.8,0.8-1.7,1c-0.1-0.5,0.3-0.5,0.2-1
			c-0.7,0.2-0.6-0.3-1.2-0.2c-0.1,1.1-2.6,1.7-3.1,0c-1.8,0.4-1.8,0.3-3.6,0c-0.1,0.5,0.3,0.5,0.5,0.7c-0.8,0.2-1-0.3-1.4-0.5
			c0,0.3,0,0.7-0.2,0.7c-0.5-0.9-1.9-0.9-3.1-1.2c-0.2,0.9,1.2,0.1,0.7,1.2c-1.7,0.1-0.5-1.3-2.2-1.2c-0.3,0.5,0.6,0.9,0,1h-1.2
			c-0.1-0.3-0.3-0.4,0-0.7c-0.5,0.1-1.6-0.3-1.7,0.2c0.2,0.1,0.5,0,0.5,0.2c-2.7,0.5-5.2-1.6-7.4-0.5c0-0.2,0.2-0.3,0.2-0.5
			c-1.4,0.9-2.9-0.4-3.8,1.2c-0.6-1.2-1.3,0.2-1.9-0.7c-0.6,0.6,0.4,0.2,0.2,1c-1.2-0.9-4,0.1-4.8-1.2c-1,0.1-5.2,1.7-4.8,0
			c-1.7,0-2.1,0.2-3.4-0.2c-0.1,0.4,0.4,0.6,0,0.7c-1-0.3-2.9,0.3-2.6-0.7c-1.3,0.6-2.6,0.1-3.6,0.2c0.3,0.1,0.5,0.3,0.7,0.5
			c-2.8-0.3-3.5-0.3-5.5-1c-1.2,2.1-5.8,0.2-8.4,0.7c-0.9-1.8-5,0.2-6.2-1.2c0,0.6-0.1,1-0.5,1.2c-0.2-1.6-2.3,0.1-2.9-1
			c0.2,1.5-2.4,0.7-0.7,0.2c-1.8-0.4-2.9,0.6-4.6,0.7c-1.7,0.1-2.9-0.8-4.6-1c-0.9-0.1-1.9,0.5-2.9,0.5c-1.2,0-2.4-1.3-3.4,0
			c0-0.3,0.3-0.4,0-0.5c-2.2,0.4-6.2,0.1-7.7-0.7c0.1,0.6-1.3-0.2-1,0.7c0.4,0.1,1.4-0.3,1.4,0.2c-1.8,0.7-3.5-1-5.3,0v-0.7
			c-2.4,0.8-4.8,0-6.5,0.7c-0.4-0.5,0.2-0.5-0.2-1c-1.2-0.2-2.2,0.7-3.1,0c-0.1,0.5,0.3,0.5,0.5,0.7c-0.9-0.1-1.6,0-2.2,0.2
			c-0.8-1.6-3-0.5-5.3-0.7c-0.5,0-0.6-0.5-1-0.5c-0.9,0-1.4,0.7-2.2,0.7c-1.4,0.1-2.4-1.2-4.1-0.7c-0.1,0.8-1.3,0.9-1.4,0.2
			c0,0.5-0.6,0.5-1.2,0.5c0-0.2,0.2-0.3,0.2-0.5c-1.1-0.1-1.5,0.1-1.4,0.5c-0.8,0.2-0.3-0.8-1-0.7c-1,1.3-2.6,0.4-3.8,0
			c0,0.3,0,0.7-0.2,0.7c-1.5-1.1-4.7,0.1-6.7-0.7c-0.4,0.6,1.1,0.5,0.2,0.7c-1.9-1.5-5.4,0.1-7.7-1c0.1,0.7-0.9,0.4-1,1
			c-1.2,0.1-1.9-0.6-1.7-1.2c-0.1,0.3-0.3,0.5-0.5,0.7c0.3-0.7-2,0.4-2.2-1c-1,1.5-3.1,0.4-4.6,0c0,0.3,0,0.7-0.2,0.7
			c-2.7,0.5-3.9,0.1-6.7,0.7c0-0.3,0.1-0.5,0.2-0.7c-1.6,0.5-2.8-0.9-4.6,0c0.3-1.1-1.2-0.4-1.4-1c0-0.7,1.5,0.2,1.4-0.5
			c-1.3-0.3-3.9-0.3-4.6,0c1,1,2.6,0.4,3.4,1.2c-2.1,0.4-4.2-0.6-4.6,0.2c-0.3-1-1.4-0.5-2.6-1c-0.7,0.3,0.1,0.7-0.7,1
			c-2.6-0.1-5,0-7-0.5c0-0.3,0.4-0.2,0.5-0.5c-1.1-0.4-0.4,0.9-1,1c-1.9-0.9-5.5,1.1-7.7-1c-0.3,1.3-1.1-0.8-1.7,0.2
			c0.3,0.1,0.5,0.3,0.7,0.5c-3.2-0.4-4.6,0.4-6.7-0.7c0.3,1.4-3.3,0.8-2.6,0.5c-1.3,0.3-3.8,0.7-3.8-0.2c-4.8-0.4-11.4,1.4-16.1,0.5
			c0.3,0.1,0.6,0.4,0.2,0.5c-5.9-0.3-8.8,0.4-13.9-0.5c-9.7,1-25.3-0.8-35.5-2.2c-0.2,0.5-0.4,1.1-0.7,1.4c0.4,0,0.9-0.1,1,0.2
			c-0.9,0.4,0.9,2-0.7,2.4c0.9,1.1,0,2.4-0.2,3.6c0.3,0,0.7,0,0.7,0.2c-1.1,2.7,0.3,4.3,0.5,6.7c-0.4,0.2-0.8,0.4-0.7,1
			c0.6,0.7,1,1.6,0.2,2.2c1.2,1-0.2,4.2,1.2,6c-0.3-0.1-0.5-0.4-0.5,0.2c2.9,4.3,10,3.8,15.1,4.6c-0.2,0-0.5,0.2-0.5,0.2
			c4.8,0.6,9.4,0.4,13.9,0.5c1.2-0.6,12.4,1.3,13.2-0.5c0,0.1-0.9,0-0.7-0.2c0.6,0.1,1.7-0.3,1.9,0.2c-0.5,0.1-1,0.1-1,0.7
			c6.7-0.5,12.8-0.1,19.7-0.5c-0.2-1-2.4,0-2.9-0.7c3-0.6,6,0.9,8.4,1c1.1,0,1.9-0.6,2.6,0c0.4-0.5-0.1-1.3,0.2-1.4
			c0.4,0.6,1.9,0.2,2.4,0.7c-0.8,0-1.7-0.1-1.9,0.5c2.5-0.4,4.2,0,5.8-0.2c-0.6,0-0.1-0.8,0.2-0.7c0.5,0.4,0.6,0,1.2,0
			c0.2,0.4-0.7,0.8,0,1c0.1-0.3,0.3-0.4,0.5-0.5c0.1,0.4-0.4,0.6,0,0.7c-0.1-0.2,1.9-0.2,1.2-0.7c0,0.6-0.8,0.1-0.7-0.2
			c0.7,0.3,1.6-0.4,1.7,0c-0.1,0.4-0.4,0.6-0.5,1c0.7,0,0.6-0.7,1.2-0.7c0.1,0.3,0.3,0.4,0,0.7c0.6,0.1,0.5-0.4,1.2-0.2
			c0.1-0.6-0.4-0.5-0.2-1.2c0.8,1.1,2.6-0.6,3.6,0c-0.4,0.3-0.6,1.5-1.4,0.7c0.4,1.1,1.5,0.6,1.7,0c1.4,0.7,3,1,5.5,0.2
			c-1,0-2,0-2.6,0.2c-0.2-1.4-2.1,0.2-2.4-1c2.9-0.1,6.2,0.6,9.6,0c0.4,0.3,1.1,0.2,1,1c-0.8-0.6-1.3-0.1-2.4-0.5
			c0,0.3-0.1,0.6-0.5,0.5c-1.9-0.4-0.9,0.1,0.5,0.2c1.6,0.1,3.8,0,4.8-0.2c-0.2,0.7,2.8,0.4,3.4,0c-1.9-0.8-2.4,0.5-4.1-0.5
			c2.4-0.2,4.5-0.7,7.2,0.2c0,0.3-0.4,0.2-0.5,0.5c1,0.2,1.8,0.4,1.9-0.2c0-0.1,0-0.2,0-0.3c0,0.1,0,0.2,0,0.3
			c0.1,0.4,0.8,0.7,1,0.2c-0.7,0.2,0.2-1.1-0.5-1c0,0.4-1.5,0.4-1.4,0c0.6-0.1,2.9-0.5,2.4,0.7c2.3,0.4,5.8,1,7.2-0.2
			c-1,0.2-1.5,0-2.2-0.5c1,0,1.5,0.4,2.6,0.2c0,0.4,0.1,0.7,0.2,1c1-0.1,2.6,0.4,2.6-0.7c-0.4,0-0.8,0-0.7-0.5
			c0.4,0.4,1.4,0.2,2.2,0.2c0.1,0.5-0.3,0.5-0.2,1c1.2,0,0.7-0.7,1-1.2c1.5,0.4,5.3-0.6,4.6,1c1.9,0.3,3.7,0.5,5-0.5
			c-0.5-0.1-1.4,0.3-1.2-0.5c1.5,0.6,3.3,0,3.8,1.2c0.4-0.1,1.4,0.3,1.4-0.2c-0.4-0.4-1.1,0.3-1.4-0.5c0.9-0.5,2.4-0.5,3.6-0.7
			c0.3-0.8-0.8-0.2-0.5-1c0.3-0.9,1.6-0.8,2.4-1.2c-0.4,0.5,0,0.3,0,1c-0.8-0.2-1.1,0.2-1.2,0.7c0.5,1.1,2.1,0.5,2.4,1.9
			c4.2-1.5,9.7-1.1,13.4-0.7c-0.8,0.4-1.6-0.4-1.9,0.7c0.6,0.6,0.6-0.6,1.7-0.2c0,0.2-0.2,0.3-0.2,0.5c0.8,0.3,0.2-0.8,1-0.5
			c0.2,1.2,1.9-0.5,2.9,0.5c0.4-0.9,0.5-2.2,1.9-2.2c0.1,0.7,0.4,1.2,1,1.4c0.5-0.6-0.1-1.3,0.2-1.7c0.9,0.6,1.8-0.4,2.9,0.2
			c0.4-0.9-0.8-0.1-0.7-0.7c1.2-0.3,2.2-0.5,2.6,0.7c-0.5-0.1-0.7-0.6-1.4-0.5c0.3,1-0.9,0.5-0.7,1.4c0.3,0.4,1.4,0,1.4,0.7
			c-0.6,0-1,0.1-1.2,0.5c1.5,0,2.6-0.1,1.4-1c1.3-0.1,2.3,1.4,3.1,1c-0.3,0-0.3-0.4-0.2-0.7c1.2,0.2,1.2-0.8,2.2-0.2
			c0.2-0.4-0.7-0.8,0-1c0.6,0.5,1.5-0.5,2.2,0.2c-0.4,1.2-1.3-0.6-1.7,0.5c0.3,0.8,1.9,0.2,2.4,0.7c-0.5,0.1-1,0.1-1,0.7
			c1.3,0.3,0.9-1.1,1.9-1.2c-0.8,0.1-0.7-0.6-1-1c1.6,1.3,5.3,0.8,7.4,0.3c-0.2-0.2-0.3-0.5-0.7-0.6c0-0.2,0.2-0.2,0.2-0.5h0.7
			c-0.4,0.4-0.1,0.6,0,1c0.4-0.1,0.8-0.2,1-0.3c1.6,0.6,3,0.3,1.7-0.7c0.9,0.3,1.3-0.3,1.7,0.5c-0.5,0.4-2.4,1-3.1,1.2
			c1,0.6,2.7,0.7,4.3,0.7c-0.1-0.9-1.3-0.7-1.7-1.4c1.3,0.6,0.6-0.4,1.7-0.7c0.1,1.2,0.6,1.3,1.4,2.2c-0.3-0.9,0.9-1.7,1.2-1.2
			c0,0.6-0.9,0.3-1,1c0.9,0.2,1.5,0.3,1.9-0.5c-0.3-0.6-0.5-0.1-0.7-0.5c0.6-0.5,1,0.4,1,1.2c0.8-0.1,1.9-1,2.4,0
			c0-1.2,1.3-0.9,1.7-1.7c1.2,0.9,2.3,0.3,3.1,1.2c-0.5,0.1-1.4-0.3-1.2,0.5c2.3,0.1,4.5,0.4,6-0.2c0.4,0.4,1,0.4,1.2,1
			c-0.4-0.2-1.7-0.4-1,0.2c0.1-0.4,1.9,1,2.2-0.2c-0.3,0-0.7,0-0.7-0.2c0.7-0.3,1.4,0.1,1.9-0.7c-0.4,0-0.8-0.2-1-0.5
			c1.9,0.5,2.7-0.1,5.3-0.2c-0.4,1.5,1.1-0.2,1.4,0.7c-0.1,0.3-0.3,0.4-0.5,0.5c-1.6-0.9-3.5,0.2-5.3-0.2c2.3,0.8,5,1.4,6.5-0.2
			c-0.2,0.9,1,0.2,1.2,0.7c-0.5-1.2-2.3-1-2.9-2.2c1.7,0.7,4.7-0.9,7,0.2c-1.4,0.8-3.8-0.5-4.8,0.5c0.7,0,1.6,0.1,1.9-0.2
			c0,0.3,0,0.7,0.2,0.7c1.3-1,2.9,1.1,3.4-0.5c0.2,0.6,0.6,1,1.2,1.2c-2.7,0.3-3.4-0.9-5.8-0.5c1.6,1,3.3,0.5,4.6,1.4
			c0.7-2,4.5,0.7,5-1.4c-0.7,0-0.5,0.8-1.4,0.5v-1c0.5,0.5,1-0.2,1.9,0c0-1-1.5-0.3-1.4-0.7c0.8-0.5,2.2-0.1,2.6,0
			c-1.2,0.3-0.7,1-1.4,1.9c1.3,0.2,1.7,0.1,3.4,0c0.2-0.9-1.1-0.2-1-1c1.4-0.3,2.1-0.3,2.9,0.2c0.1-0.4,0.1-1,0.5-1.2
			c0.3,0.6,0.7-0.4,1,0.2c-0.7,0.8-1.4,1.6-2.2,2.4c1,0.6,0.4-0.6,1.2-0.7c1,0.1,0.5,0.6,1.2,0.7c-0.1-0.7,1.3-0.4,1.7-0.7
			c-0.3-0.4-1.4,0-1.4-0.7c0.8-0.9,1.4-0.1,2,0.1c0.1,0,0.2-0.1,0.4-0.1c-0.1,0.1-0.3,0.1-0.4,0.1c-0.3,0.1-0.4,0.5-0.3,0.9
			c0.4,0,0.7,0.1,1,0.2c0.5-0.5-0.1-0.5-0.2-1c1.3,0.3,0.1-0.5,0.7-0.7c0.3,0.3,1.1,0.6,0.5,1.2c2.3,0.2,3.8-0.4,5,0.2
			c-0.2-0.1-0.3-0.2-0.2-0.5c0.5,0.1,2.6,0.9,2.2,0.5c-0.6-0.4-1.7-0.4-1.9-1.2c2.3-0.4,2.8,0.6,4.8,0c-0.2,0.9,1,0.4,1.2,1
			c-2.3-0.3-1.1-0.2-2.9-0.2c0.1,0.8,0.6,0.3,0.2,1.2c0.7-0.7,1.9-0.5,2.6,0c0.3-0.5,0.8-0.6,1.2-1c-0.2-0.1-0.5,0-0.5-0.2
			c1.3,0,0.1,1,0.7,1.4c0.5-0.9,3.2-0.2,3.6-1.2c-0.2,0.4-2,0.4-2.2,0c0.8-0.5,2.6,0,2.9-1c0.4,0.3,2.7,1.3,1.7,0.2
			c1.5,0.1,1.7,0,2.6,0.5c0.9-1.8,2.6,0.7,3.4-0.2c-0.3,0-0.2-0.3,0.2-0.2c0,0.7-0.4,1-1.2,1c-0.2-0.6-1.1-0.5-1.9-0.5
			c0.1,1.3-0.7,0-1.2,0.2c0.2,0.4,0.5,1.9,1,1.2c-0.1-0.9,2.5-1.2,3.1,0c-0.5-1.2,0.7-0.4,1.4-0.5c0.4-1-1.2,0-1.2-0.7
			c0.1-0.3,0.3-0.5,0.5-0.7c-0.3,1.1,1.4,0,1.4,0.7c-0.1,0.3-0.4,0.4-0.5,0.7c0.9,0.2,1.1-0.3,1.9-0.2c-0.3,0.3-0.3,0.6,0.2,0.7
			c2.1-0.9,4.1-1,7.2-0.7c0.1,0.3,0.3,0.4,0,0.7c1.5,0.2,2.3-0.4,2.6-1.4c-0.6,0-1.2,0-1.2-0.5c2.4,0.2,2.8-0.3,4.1,0.7
			c-0.3,0.1-0.5,0.3-0.5,0.7c1.2-0.3,2.5,0.2,1.7-0.7c1.2-0.3,1.2,0.5,1.9,0.7c0-0.7,1.5,0.2,1.4-0.5c-0.9-0.1-1.1-0.7-1.4-0.7
			c0-0.7,1-0.4,1.7-0.5c-0.7,1.1,1,0.6,1.4,1.2c-0.4,0-2-0.1-1.2,0.2c1.4,0.1,2.5,0.3,2.9,0.5c-0.7-0.2,0.2-1.1,0.5-0.5
			c-0.1-0.8-0.5-1.3-0.7-1.9c1.2-0.3,1.8,0.9,1,1.2c0.6,0.2,1.7-0.1,1.7,0.7c-0.9-0.2-0.6-0.1-1.7-0.2c0.4,1.7,2.4,0.6,3.6,0.5
			c0.4-1-1.2,0-1.2-0.7c1.2-0.1-0.3-0.1,0-0.7c0.6-0.1,0.5,0.4,1.2,0.2c-0.2-1.4-2.3,0-3.4-1c2.3-0.6,2.8-0.3,4.6,1.2
			c-0.4,0.1-1.4-0.3-1.4,0.2c1,0.2,1.2,0.2,2.2-0.2c0,0.2,0.2,0.3,0.2,0.5c-0.1,0.4-0.8,0.2-0.5,1c0.4,0,0.5-0.2,0.2-0.5
			c1.3-0.3,2.5,0.3,3.8-0.2c-0.5,0.1-0.9-0.1-1-0.5c0.7,0.6,1.3-0.7,1.9,0c0,0.7-0.7-0.6-0.5,0.5c0.8,0.2,1.3,0,2.6-0.2
			c-0.7-0.2-0.6-0.4-1-0.5c0.4-0.1-0.1-0.3-0.2-0.5c0.4-0.5,1,0.4,1.2-0.5c-0.8-0.3-1,0.2-1.4-0.2c0-0.3,0-0.7,0.2-0.7
			c0.6,0.7,2.2,0.6,3.1,1c-1.4-0.2-0.5,0.4-1.2,1c0.4,0,0.6,0.2,0.7,0.5c-0.4,0-0.8,0-0.7,0.5c1.5,0.1,1.3,0.5,2.6,0.2
			c-0.2-0.1-0.5,0-0.5-0.2c0.6-0.6,1.4,0.4,1.9-0.2c-0.2-0.1-0.5,0-0.5-0.2c0.5-0.1,1.3-0.8,1.4,0c0,0.2-1,0.5-0.2,0.7
			c0.1-0.5,1.1-0.1,1-0.7c-0.3,0-0.6-0.1-0.5-0.5c2.1-0.8,3.3,0.4,5-0.2c-0.3-0.2,0.1-0.6-0.2-1.2c1.8-0.1,4,0,6.1,0.4
			c-1.3,0-2.3,1-2.8,0.3c0.2,0.2,0.8-0.2,0.7-0.2c-1.5-0.2-1.5-0.1-3.4,0v0.5c0.1,0.3,0.3,0.4,0.5,0.5c-0.4-0.7,1-0.7,1-0.2
			c-1.2,0.7-0.1,0.2,0.2,0.5c-0.4,1.2-4.9-0.7-4.3,0.7c0.5-0.7,5,0.6,6.5,0c0.4-0.1,0.6-0.9,1-1c0.7-0.2,1.8,0.5,2.2-0.2
			c-0.2-0.4-0.8-0.4-0.7-1c0.5,0.1,1.6-0.3,1.7,0.2c-1.5,0-0.1,0.5,0.2,0.7c-1.4,0,0.7,1.1-0.2,1.7c0.4-0.1,1.4,0.3,1.4-0.2
			c-0.4,0-0.9,0.1-1-0.2c1-0.2,0.6-0.4,0.2-0.5c0.5-0.1,1.7-0.8,2.2-0.2c0.1,0.7-0.9,0.2-1,0.7c3.1-0.1,4.3-0.2,6.7,0
			c0-0.3,0-0.7,0.2-0.7c0.5,0.5,1.3,0.8,2.9,0.7c0.3-0.9-0.6-0.7-0.5-1.4c0.6,0.7,0.7,0.3,1.4,0c-0.1,0.8,2.2,0.5,3.1,0.2
			c0.1,0.8,0.6,0.3,0.2,1.2c3-0.2,5.6,0.6,7.7-0.5c1,1,4.4,0.4,5.3-0.2c0.8,0.7,1.2,0.9,2.2,0.2c-0.4,0-0.6-0.2-0.7-0.5
			c0.8,0.1,0.8-0.4,1.2-0.5c2.7-0.9,0.7,0.2-1-1c1.2,0.2,3.5-0.3,4.8,0.2c-1.2-0.1-1.9,0.3-2.4,1c1,0.2,1.6,0.3,2.2,0.5
			c-0.3,0.7-2.3-0.4-2.9,0c0.6,1.2,3.2,0.6,4.3,0.2c-0.4,0-0.8-0.2-1-0.5c0.6-0.2,1-0.6,1.9-0.5c0,0.3-0.3,0.4,0,0.5
			c0.2-0.4,1.9-0.3,2.7,0.3c-1,0.2-2.1-0.6-2.3,0.2c0.3,0.2,2.2,0.6,2.4-0.1c0.1,0.1,0.2,0.2,0.3,0.4c1.5-0.3,2.8,0.6,3.4-0.7
			c-0.8-0.3-1.4,0.6-1.7,0c0.8-0.2,3.4-1.4,3.4-0.2c1.9-0.3,3.7,0.1,6,0v1c1.4-0.2,1.7-0.2,3.1,0c-0.1-0.9-2-0.1-2.6-1
			c0.7-0.5,2.4,0,2.9-0.7c-0.5,0.6,0.1,0.3,0.2,0.7c0.8,0.1,1.1-0.4,1.4-0.7v1c0.7-0.2,1.1-0.4,1.4,0.2c0-0.8,1-0.6,1.2-1.2
			c0.1,0.9,3.4,0.2,3.8,0.7v0.5c-0.9-0.3-5.1-0.7-4.6,0.5c1.8-0.8,5.8,0.5,7.2-0.7c-0.5-0.6-1.8,0.8-2.4,0c0.3-0.1,0.1-0.3,0-0.5
			c2.8,0,5-0.3,7.9,0.2c-0.4,0.6-1.7,0.1-2.2,0c-0.3,1.3,2.6,0.7,3.1,0.5c-0.5,0-0.8-0.2-0.7-0.7c1.2,0.2,1.8-0.5,2.4,0.2
			c-0.8-0.2-1.1,0.2-1.2,0.7c1.9-0.2,3.9,0.4,4.6-0.5c-1.2-0.6-2.7,0.6-3.1-0.7c2,0.5,3.4-0.2,5.5-0.5c0,0.3-0.3,0.3-0.2,0.7
			c2-0.1,3.8-0.4,5.8,0.2c1.4-0.8,4.5,0,5.5-0.2c-0.1,0.5-1.1,0.1-1,0.7c1-0.3,3.1,0.4,4.3-0.2c-0.1-0.3-0.9,0-1-0.5
			c3.4-0.4,6.1-0.6,7.9,0c0-0.4,0-0.8,0.5-0.7c0.6,1.1,2.5,0.1,2.9,1c-0.2,0.6-1.9-0.3-1.7,0.7c0.9,0.1,1.5-0.8,2.2-0.2
			c-0.4-0.7,0.6-1.1,0.7-0.5c-0.1,0.5-0.4-0.1-0.5,0.2c1.3,0.4,4.2,0.4,5.5,0c-0.9-0.8-4,0.5-4.6-0.7c2.5,0.6,5.1-0.9,7.7,0.5
			c-0.7,0-1.2,0.1-1.4,0.5c1.7-0.3,3.8,0.7,4.3-0.5c-0.7,0.3-1.6,0.2-2.2-0.2c1-0.4,1.4,0.3,1.9-0.5c2.4,1.1,6.8,0,8.9,0.7
			c0.8-0.9,5.4,0.1,7.2,0.2c0,0.3-0.3,0.4,0,0.5c0.1-0.3,0.3-0.5,0.5-0.7c-0.7,0.9,0.8,1.2,1.2,0.5c-0.4,0-0.9,0.1-1-0.2
			c1.3-1.2,2.4,0.8,3.6,0.2c-1.4,0,2-1.4,2.6-1.4c0.1,0,0,0.5,0.2,0.5c0.2,0,1-1.6,1.2-0.5c-0.4,0-0.6,0.2-0.7,0.5
			c0.6,0.3,1.9,1.2,3.6,0.2c0.2,0.5,0.9,0.5,1.7,0.5c0,0.3-0.3,0.3-0.2,0.7c1.3-0.7,4.2-1.1,6-0.5c-0.3,0-0.7,0-0.7,0.2
			c4.8-1.1,10.1,0.4,15.6-0.5c0.8,0.9,3.1-0.4,3.8,1c0.3-1.3,2,0.3,2.6-0.5c0.1,0.6-0.7,0.3-0.7,0.7c1.6-0.1,1.3,0,1.9-0.7
			c0.6,0.5,1.4-0.4,1.9,0.2c-0.1,0.4-1.1,0-1.2,0.5c0.8-0.3,0.6,0.4,1,0.5c0-0.8,2.3,0,0.7-1c1.7-0.5,1.1,1.2,1.7,0.7
			c0.8-1.5,3.2-0.8,4.8-0.5c1.8,0.4,1.1-0.1,2.4,1c0.2-0.5,0.7-0.5,1-1c2.1,0.4,6.1,0,8.9,0.2c0,0.4,0.1,0.7,0.2,1
			c1.5-1.1,6.6-1,6.5,0c2.3-0.8,3.9-0.4,5.5,0c-0.2,0.1-0.5,0-0.5,0.2c0.9,0,1.5,0,0.7-0.5c0.8,0,2.3-0.1,1.2,0.5
			c0.7-0.2,1-0.7,2.2-0.5v0.7c3.1-0.6,8-0.9,11.8,0.7c3.8-1.5,7.3,0.9,10.3-0.2c-0.3-0.1-0.6-0.4-0.2-0.5c0.3,0.3,1.4,0.1,0.7,0.7
			c5.1,0.4,11,1,15.8,0.7c-0.5,0.1-0.9-0.1-1-0.5c1.2-0.4,1.2,0.9,1.7,0c0.2,0.3,0.3,0.6,0.2,1.2c1.7-0.2,3.1,0,4.3,0.2
			c0.6-1.4,1.1-0.9,2.6-0.7c-0.1,0.3-0.3,0.5-0.5,0.7c-0.1-0.2,0-0.5-0.2-0.5c0,1.1,1.6,0.7,2.6,0.5c0.2-0.9,0.7,0,1.9-0.2
			c-0.2,0.9-1.2,0.2-1.9,0.2c1.2,0.9,4.4,1.4,5.3,0c0,0.6,3.3-0.3,4.3,0.7c-1.1,0.6-2.2-0.3-3.1,0.2c1.1,0.6,4.7,0.3,6.7,0.7
			c0.1-0.9,2.1-0.9,2.4-0.2c-0.4,0-0.8,0-0.7,0.5c0.7-0.2,0.6,0.3,1.2,0.2c-0.1-0.5,0.1-0.9,0.5-1c2.1,0.4,4.1,0.2,7,1.2
			c-0.6,0.1-1.7-0.3-1.9,0.2c2.8,0.6,5.1,0.6,8.2,1.2c0.3-0.9-0.7-0.5-0.5-1.2c0.8-0.1,0.8,0.4,1.7,0.2c0.2-0.8-0.4-0.9-0.2-1.7
			c1.7-3.4,1.6-7.7,2.4-11.3c0.4-0.1,0.6-0.4,1-0.5c0-0.7-0.5-0.9-0.7-1.4c1.5-1,1.6-3.1,1.7-5c0.3,0.3,0.9,0.3,1-0.2
			C639.1,27.5,638.2,26.9,637.4,26.2z M30.7,12.3c-0.8,0.3-1.7-0.5-1.9,0C27.7,11.7,31,11.4,30.7,12.3z M70,17.8
			c0.5-0.1,0.6,0.2,1,0.2C73.7,18.1,71,18.8,70,17.8z M84.9,26.7c0,0.5-0.6-0.3-1.2,0c-0.1-0.5,0.3-0.5,0.7-0.5
			c-0.4-0.6-2.1,0.2-1.9-1c1.3,0.4,2,0,3.4,0.2C85.9,26,84.3,26.2,84.9,26.7z M88.8,26.7c0-0.8,1.1-0.7,1.7-1c-0.2,0.7-0.3,1,0.7,1
			C90.6,27.4,89.7,26.4,88.8,26.7z M91.6,13.5c0.2-0.5,1.3-0.7,1.7-0.2C93.2,13.8,92.1,13.3,91.6,13.5z M95.7,25.5
			c0-0.7,0.6-0.7,1.2-0.7C97,25.5,96.1,25.2,95.7,25.5z M101.2,17.8c0.1-0.3,2.2-0.6,1.9,0.2C102.1,17.9,102,18.1,101.2,17.8z
			 M113.5,14.4c-0.2,1.1-1.4,0.4-2.4,0.5C111.5,13.8,112.8,15,113.5,14.4z M109.4,37.5c0.5-0.4,2.6-0.3,3.1,0
			C111.7,37.7,110.6,37.7,109.4,37.5z M110.6,29.3c-0.1-0.6,2.1-0.9,1.9,0C111.5,29.1,111.7,29.3,110.6,29.3z M112.8,26.9
			c0.7-0.8-0.6-1.2-1.4-1.2c0.1-0.2,0.2-0.4,0.2-0.7c0.9,0.5,1.7,1,2.4,1.7C114,27.2,113.1,26.8,112.8,26.9z M127.4,17.8h1
			c0.1,0.3-0.9,0.6-0.2,0.7c-0.1,0.8-0.9-0.6-1,0.2C126.3,18.4,127.7,18.4,127.4,17.8z M126.4,18.5c-1-0.5-1.2-0.2-2.2-0.5
			C124.6,17.6,126.7,17.5,126.4,18.5z M125.5,13.2c-0.6,0.5-1.5,0-1.9,0C123.9,12.6,125,13.2,125.5,13.2z M122.8,25h1.9
			c-0.5,0.6-1.2,1.1-2.4,1C122.3,25,123.4,26.3,122.8,25z M119.2,14.9h1.4c0.3,0.9-0.7,0.5-0.5,1.2c-0.4-0.6-0.3-0.3-1.2-0.2
			C119,15.4,119.3,15.4,119.2,14.9z M114.4,25.2c0.4,0.1,1.2,1,1-0.2c0.7,0.1,1.1,0.5,1.2,1.2C115.6,26.1,114.1,26.6,114.4,25.2z
			 M117.3,26.9h-2.9c0.1-0.3,0.4-0.6,0.5-0.2C115.6,26.8,117.8,26.4,117.3,26.9z M119,25c1.1,0.1,2,0.3,2.4,0
			C122.1,25.7,119,26.1,119,25z M123.1,38.4c-0.7-0.1-0.8-0.8-1.7-0.7c0.3-0.5,1.5-0.1,2.2-0.2C123,37.9,123.4,37.9,123.1,38.4z
			 M122.8,33.4c0.2-0.9,1,0.1,1.9-0.2C124.2,33.8,123.7,33.5,122.8,33.4z M124.3,26.7c0.3-0.2,0.1-0.9,0.7-0.7
			c-0.2,1.1,0.4,0.6,1,0.5C125.8,27.4,124.8,27,124.3,26.7z M126.2,30c0.6-0.6-0.6-0.3-0.2-1.2c0.2,0.2,0.5,0.3,1,0.2
			C127,29.7,126.8,30.1,126.2,30z M126.2,26.2h1.4c0.2-1-1.4-0.2-1.2-1.2c0.8,0.6,1.8-0.2,2.4,0.2c-0.7,0.4-0.3,0.8,0.5,0.5
			c-0.4,0.7-0.7,0.7-0.7,1.4C127.9,26.7,126.4,27.1,126.2,26.2z M127.6,33.4c-0.1-0.2,2.3-0.3,3.1,0
			C130.8,33.8,127.8,33.7,127.6,33.4z M131,27.1c-0.8-0.2,0.3-0.5,0.2-0.7c-0.2-0.3-1.3,0.6-2.2,0.5c0.5-1.2,1.4-0.9,2.6-1.7
			c0,0.6,0.4,0.7,0,1.2c0.9-0.5,0.6,0.8,1.4-0.5c0.7,0.2,0.3,0.4,0.2,1C132.3,27.3,131.7,26.7,131,27.1z M132.2,38.9
			c-0.3-0.4,0.8-1.4,1.7-1.4C133.4,38.1,132.7,38.3,132.2,38.9z M132.9,25.5c0.4-1.1,1.5,0.1,2.2-0.5c0.1,0.8-0.4,1-0.7,1.4
			C133.5,26.5,133.9,25.3,132.9,25.5z M135.3,38.9c-0.5-0.1-1-0.1-1-0.7c0.4,0,0.9,0.1,1-0.2C135.9,38,135.4,38.8,135.3,38.9z
			 M135.1,26.2c-0.2-0.7,0.8-0.3,0.5-1.2c0.9-0.2,1.1,0.3,1.9,0.2c-0.6,0.4-1.4,0.3-0.2,0.7C136.7,26.4,135.9,25.7,135.1,26.2z
			 M135.8,38.4c0.2-0.5,1.3-0.1,1.9-0.2C137.4,38.9,136.4,38.5,135.8,38.4z M137.7,15.1c-0.6,0-1.2,0-1.4-0.2
			C136.3,14.5,138.1,14.4,137.7,15.1z M168,17.5c0.3,0.9-1.4,1-1.7,0.5C166.1,17.1,167.4,17.7,168,17.5z M162.7,17.8
			c0.7,0.3,1.2,0.3,1.9,0C164.9,18.6,162.4,18.6,162.7,17.8z M162.2,15.6c-0.8,0.1-0.9-0.3-1.4-0.5C161,14.6,162.5,14.8,162.2,15.6z
			 M159.3,17.8c-0.3,0.7-0.1,0.6,0,1.4c-0.5,0-0.5-0.6-0.5-1.2h-0.5C158.4,17.7,159,17.8,159.3,17.8z M159.8,19.7
			c1.2,0.7-0.7,0.8-1.4,0.5C158.3,19.5,159.8,20.4,159.8,19.7z M157.2,14.9h1v1C157.4,16,157,15.7,157.2,14.9z M154.5,14.2
			c0.4-0.7,0.7,0.9,1.7,0.5c-0.5,1-3.2,0.9-2.6,1.4c-0.3,0.6-1.2-0.3-1-1h-0.7C152.1,14.4,155.2,15.1,154.5,14.2z M148.5,18
			c-0.4,0.5-1.8,0.1-2.6,0.2C146.1,17.6,148,17.6,148.5,18z M138.9,33.1c0.8-0.1,1,0.4,1.9,0.2C140.8,34.1,139,33.8,138.9,33.1z
			 M141.3,40.3c-0.1-0.4-0.1-1-0.5-1.2c-0.5,0.1,0.3,0.4-0.2,0.7c-0.3,0-0.7,0-0.7,0.2c-0.4-0.5,1.1-1-0.2-1c1.1-1.1,0.2-1-0.2-1.7
			c1.4,0.3,2.8-0.4,3.6,0c-0.5,0.4-1.3,0.5-2.2,0.5c0.1,0.2,0.3,0.4,0,0.5c0.4,0.4,2-0.5,2.6,0C142.2,39.4,142.3,39.3,141.3,40.3z
			 M142,25.5c0.7-0.2,1.7,1.3,1.9,0c0.6,0.9,1.6,0.1,2.4,0.5c-0.1-0.2-0.2-0.4-0.2-0.7h1C146.7,27.5,142.3,27.3,142,25.5z
			 M149.7,33.6c-0.6,0-1.2,0-1.4-0.2C148.3,33,150.1,32.9,149.7,33.6z M147.3,26.7c0-0.6,1-0.3,0.7-1.2c0.2,0,0.2,0.1,0.2,0.2
			c1.1,0.9,3.2-0.7,3.6,0.7C149.5,26,148.9,26.9,147.3,26.7z M151.2,37.2c0.6,0.1,1.1,0.3,1.9,0.2C153.2,38.3,150.8,38.2,151.2,37.2
			z M151.9,29.3c0.6-0.6,0.9-0.2,1.7-0.5C153.5,29.5,152.2,29.6,151.9,29.3z M155,30c0.4,0.5-0.6-0.3,0-1c0.8-0.2,0.9,0.2,1.2,0.5
			C156.1,30.3,154.8,28.8,155,30z M157.2,40.1c-0.9,0.1-0.9-0.3-1.2,0.2c-0.3,0-0.2-0.4-0.2-0.7C156.2,39.8,157.4,39.2,157.2,40.1z
			 M158.8,38.7c-1.3,0.1-1.4,0-2.4,0.2c-0.1-0.6,0.3-0.8,1-0.7c0-0.5-0.6-0.5-1.2-0.5c0.6-1.4,1.7,0,2.6-0.2V38.7z M156.4,29.1
			c0.8,0,1.2,0.4,2.2,0.2C158.5,30.1,156.6,29.7,156.4,29.1z M155,26.7c-1.1,0-1.8-0.4-2.6-0.7c0.8-0.8,1.7,0.4,2.4,0.5
			c0.4-0.9-1.1,0-0.7-1c2.2-0.5,4.4-0.6,7.4,0c-0.9,0.5-1.3,0.3-2.4,0.7C160,25.7,154.7,25.3,155,26.7z M161,33.6
			c0-0.7,1.3-0.5,1.2,0.2C161.6,33.9,161.3,33.8,161,33.6z M161,26.9c0.5-1.1,1.5-0.5,2.4-0.2C162.5,26.8,161.7,27.1,161,26.9z
			 M162.9,26.4c0-0.6,1.6-0.9,0-1c0.1-0.3,0.6-0.2,1-0.2c-0.3,0.9,1.6,0.5,1.9-0.2c0.3,0.4,1.2,0.2,1.9,0.2c-0.9,0.8-0.3,0.4,0,1.4
			C165.3,26.3,165.1,25.6,162.9,26.4z M165.6,31.9c0.4-0.2,1.6-0.6,1.4,0.5C166.6,32.2,166.1,32,165.6,31.9z M167,35.3
			c0.6,0,0.8,0.5,1-0.2c0.3,0.1,0.5,0.3,0.5,0.7C168.1,36.2,166.8,36.2,167,35.3z M167.2,33.6c0.4-0.5-0.2-0.5,0.2-1
			c0.7,0.2,1.2,0.5,1.4,1.2C168.4,33.8,168,33.5,167.2,33.6z M197.7,20.7c0.2-0.2,0.5-0.3,1-0.2v0.7
			C198.3,21.1,197.5,21.4,197.7,20.7z M197,24h1c-0.1,0.2-0.3,0.4,0,0.5C197.8,25.1,196.7,24.6,197,24z M195.8,26.2
			c0.2-1.2,1.2-0.1,2.4-0.7c-0.2,0.3-0.3,0.6-0.2,1.2c-1,0.8-2.8-0.5-2.9,0.2c-0.6-0.1-0.1-1.1,0-1.2
			C195.4,25.8,195.5,26.1,195.8,26.2z M198.7,30.3c-0.1,0.3-0.5,0.2-0.5,0c-0.5,0-0.3,0.7-1,0.5c0-0.4,0.2-0.8,0.5-1
			C198.5,29.5,197.9,30.6,198.7,30.3z M186.4,15.1c-0.1,0.8-2.3,0.1-2.6,0.5C183.5,15.3,185.5,14.6,186.4,15.1z M183.1,15.1
			c0.4,0.1-0.2,0.4,0.2,0.5c-0.2,0.5-1.4,0-1.4-0.5c-0.8,0.3-0.6,0.5-0.5,1.4c-0.6-0.3-0.4,0-1.2-0.2c1-0.5-0.3-0.6-0.2-1.4
			C181,14.8,182.4,15.3,183.1,15.1z M180.7,17.3c0.2,0.8,0.1,0.7,1.2,0.5c-0.5,1.1-1.5,0.2-2.4,0.7c0-0.3-0.1-0.4-0.2-0.5
			C179.4,17.5,180.5,17.8,180.7,17.3z M179,25.9h1c0.2,1.1-0.9,0.3-1,0.7C178.6,26.6,179.1,26.4,179,25.9z M179.2,28.8
			c-0.2,0.4-0.6,0.7-0.7,1.2c-0.3-0.3-0.4-0.7-1.2-0.5C177.7,29.1,178.4,28.9,179.2,28.8z M174.9,18.5c-0.6,0-1.2,0-1.4-0.2
			C173.5,17.9,175.3,17.7,174.9,18.5z M173,26.9c-0.2,0.4-0.4,0.8-1.2,0.7C171.7,26.9,172.3,26.9,173,26.9z M169.9,26.4
			c0.6-0.4,0.3-0.3,0.2-1.2h1.7c-1,1.1-0.1,0.2,0.2,1.4c-1-0.3-0.9,0.5-1.7,0.5C170.2,27,170.2,26.5,169.9,26.4z M173,38.2
			c-0.1,0.8,1.2,0.1,1,1c-0.8-0.1-1.6-0.4-2.6-0.2c0.1-0.8,1.3,0.1,0.7-1.4c1.4,0,1.5,0.2,2.6,0C174.5,38.6,173.8,37.7,173,38.2z
			 M173,33.6c0.2-0.5,2-0.4,2.6-0.2C175.1,34.2,173.7,33.6,173,33.6z M173.5,31.9c0.6-0.2,2.3-1,2.2,0.2
			C174.6,31.5,174.3,32.9,173.5,31.9z M174.7,26.7c-0.3-1.1-1-0.3-1.9-0.7c0.1-0.2,0.2-0.4,0.2-0.7c1.4,0,1.5,0.2,2.6,0
			c-0.1,0.3-0.3,0.5-0.7,0.5c0,0.2,0.2,0.2,0.2,0.5c0.6-0.3,0.6-1.2,1.7-1c-0.3,0.9-1.3,0.4-0.5,1.4
			C175.6,26.3,175.6,26.6,174.7,26.7z M176.4,32.2c0.4-1.1,2.5-0.1,2.9-0.2C178.8,32.5,177.2,32,176.4,32.2z M182.4,39.1
			c-1.1,0.1-1.8-0.1-2.6-0.2c0.3-0.8,0.2-0.7-0.5-1c0.7-0.7,1.1-0.2,1.7,0.2c-0.4-1.1,0.3,0.1,0.5,0.5c0.7-0.2-0.2-0.5,0-1
			c0.9-0.4,1.8-0.2,2.4,0C182.8,38.2,182.3,38,182.4,39.1z M185.7,40.3c-0.7-0.2-0.7-0.2-1.4,0C183.8,39,186.8,39.7,185.7,40.3z
			 M185.5,30.5c-0.7,0-0.7-0.6-0.7-1.2c0.8,0.1,1.1-0.2,1.7-0.2C186.4,29.8,185.6,29.9,185.5,30.5z M186.2,27.1
			c-1.3-0.6-2.4,0-4.1,0c-0.1-0.8,0.7-0.7,1-1.2c0.4,0.3,0.2,1,1.2,0.7c0.2-0.4-0.1-1,1-0.5c0.3-1-1.1-0.3-1-1.2
			c1.2,0.3,2.7,0.4,4.1,0.5c-1.3,1-0.2,0.6-1,1.4c-0.3-0.1-0.1-0.7-0.5-0.7C186.1,26,186.6,27,186.2,27.1z M186.7,33.9
			c0.4-0.8,1.1-0.1,2.2-0.5C188.4,33.9,187.6,33.9,186.7,33.9z M186.9,15.1c0.6,0.1,2.3-0.4,2.6,0.2
			C189.2,16.4,186.9,15.4,186.9,15.1z M190,33.9h-0.7C191.1,32.7,193.4,33.7,190,33.9z M190.3,25.9c0.1-0.7,1.2-0.4,1.9-0.5
			C192.1,26.2,191,25.9,190.3,25.9z M193.2,16.8h-0.7c0.1-1-1.7-0.1-1.2-1.4c0.8-0.1,1,0.4,1.9,0.2
			C192.5,16.5,192.4,15.7,193.2,16.8z M193.4,25.5c0.8,0.3,0.5,0,1.4,0C195.2,26.2,193.1,26.2,193.4,25.5z M194.6,38.9
			c0.3-1,1.1,0.7,1.2,0C196.6,39.7,194.7,39.4,194.6,38.9z M193.9,33.6c1.6,0.4,4.5-0.6,5.5,0.5C197.3,34,194.7,34.4,193.9,33.6z
			 M198.2,24.5c-0.1-0.7,0.9-0.2,1-0.7c0.3,0,0.2,0.4,0.2,0.7H198.2z M200.4,20.9c-0.6,0-1.2,0-1.4-0.2
			C198.9,20.3,200.7,20.1,200.4,20.9z M198.7,15.4c0.7-0.3,1.2,0.7,1.4,0c0.3,0.1,0.2,0.5,0.5,0.5C200.2,16.1,198.9,16.3,198.7,15.4
			z M398.1,18c0.2,0.1,0.7-0.5,0.4-0.7c0.5,0.1,1.6-0.5,1.7,0.2c-0.4,0.6-4.5,1.3-5.5,0C396,17.5,397.4,17.5,398.1,18z M400,28.6
			c-0.2,0.2-0.3,0.5-0.2,1h-1C399,29,399.3,28.5,400,28.6z M398.4,27.6c-0.1,1.3-0.8,0.3-1.4,0.2C397.1,27,397.5,27.8,398.4,27.6z
			 M390.4,18.3c-1.6,0-2.1-0.3-3.6,0C387.4,17.3,389.6,17.5,390.4,18.3z M385.9,28.3c-0.9,0.2-1-0.4-1.9-0.2
			C384.1,27.8,386.1,27.5,385.9,28.3z M381.6,16.3c-0.9-0.4-2.1,0-2.6-0.2C379.4,15.4,381.6,14.9,381.6,16.3z M378.4,17.8
			c-0.3,0.6-1.9,0.8-1.7-0.2C377.4,17.6,378.1,17.5,378.4,17.8z M376,16.6c-0.6-0.4-1.4,0.5-1.4-0.7C375.3,15.9,376.1,15.8,376,16.6
			z M377.5,27.9c0.4-0.9-1.1,0-0.7-1c0.8,0.1,2.1-0.3,2.2,0.5c0.2-0.2,0.4-0.4,0.5-0.7c1.2,0.3,2.4,0.8,3.1,0.5
			c-0.6,0.4-3.3,1.9-4.8,1.2c0.2,0.2,0.6,0.2,0.5,0.7c-0.2-0.2-0.7-0.1-0.7-0.5c-0.3,0.1-0.2,0.5-0.5,0.5c0,0.3,0.4,0.2,0.7,0.2
			c-0.7,0.5-2.1,0.5-3.1,0.2C375.6,29,376.5,28.4,377.5,27.9z M373.4,15.4v1c-1,0.2-1.2-0.4-2.2-0.2
			C371.3,15.7,372.6,15.5,373.4,15.4z M366.9,17.8c0.7,0.3,1,0.5,1.7,0.2c-0.1,1.1-1.9,0.7-2.4,0C366.7,17.9,367,18.7,366.9,17.8z
			 M366.7,27.9c0.7-0.6,1-0.7,2.2-0.5c-0.5,0.7-1.4,0.5-1.9,0.7c-0.1,1,0.7,0.5,0.2,1.4c-0.9-0.1-1.1-0.8-1.9-1
			c0-0.5,0.6-0.5,1.2-0.5c0-1.2-2.2,0.8-1.9-1C364.8,27.8,366.8,26.8,366.7,27.9z M365.5,17.8c0.2,1-1.3,0.8-1.2,0
			C364.7,17.3,364.9,17.8,365.5,17.8z M363.3,28.8c0,0.7-1.1,0.6-1.4,0.2C361.9,28.5,362.9,29,363.3,28.8z M362.4,17.5
			c0.4,0.2,0.8,0.4,0.7,1c-1.1-0.2-2.1-0.1-2.6-0.2C360.5,17.3,362,18.5,362.4,17.5z M359.2,26.9c-0.2,0.8-1.7,0.1-0.2,0.7
			c-0.8,0.2-1.9,0.2-2.4,0.2c1.1-0.7-0.4-0.4-0.5-1.2C357.3,27.3,358.4,26.4,359.2,26.9z M356.8,37.2c-0.6,1.1-1.7,0.1-2.2,1.2
			c-1.3-0.3,0.2-1.8-1.7-1.4C353.6,36,355.8,37.6,356.8,37.2z M352.8,28.8c0.9-0.2,0.4,1,1.4,0.7C353.7,30.2,352.8,29.4,352.8,28.8z
			 M355.9,31.7c-0.1,0.5-1.3,0.2-1.4,0c0.2-0.4,0.8-0.5,1.4-0.5C355.7,31.4,355.6,31.7,355.9,31.7z M356.4,31.7
			c-0.2-0.9,0.9-0.3,1.4-0.5C357.8,31.8,357,31.7,356.4,31.7z M356.4,17.8c0.8,0.8-1.6,1-1.7,0C355.4,17.5,356.3,18.2,356.4,17.8z
			 M353.5,27.6c0.9,0.5,2.8,0.1,3.1,0.5c-1,1.3-3.5-0.5-3.6,0.2c-0.6,0-0.6-0.9-0.2-1.2C353.5,27.3,355.8,27.6,353.5,27.6z
			 M351.1,15.9c0.2-0.2,1.3-0.5,1.4,0C352.9,16.6,350.7,16.6,351.1,15.9z M351.8,27.1c0,0.4-1.8,0.5-1.4-0.2
			C351,26.9,351.5,26.9,351.8,27.1z M350.1,14.7c0.3,0.1,0.4,0.4,0.7,0.5c0.1,0.7-0.9,0.2-1,0.7C349.5,15.6,349.7,15.2,350.1,14.7z
			 M344.6,25.2c-0.1,0.6,0.3,0.8,1,0.7c-0.3,1-1.2-0.2-1.4,0.2c-0.3-0.1-0.2-0.5-0.5-0.5C343.8,25.4,344.2,25.3,344.6,25.2z
			 M341.5,15.6c-0.1,0.2-0.3,0.4-0.2,0.7c-0.6-0.2-2.1,0.5-1.9-0.5C339.9,16.4,340.7,15.7,341.5,15.6z M342.7,28.1
			c-1.1,0.5-2.7,1.3-3.4,1c0.2-0.2,0.6-0.2,0.5-0.7C340.7,29.2,340.8,27.6,342.7,28.1z M338.1,17.8c0.5,0.1,1,0.1,1,0.7
			C338.5,18.6,337.9,18.6,338.1,17.8z M338.8,27.4c0-0.2-0.8-0.7-0.7-0.2c-0.5-0.5,0.7-0.9,1.2-0.2c-0.4,0.6-0.3,0.7,0.5,0.5
			c-0.1,0.2-0.3,0.4,0,0.5c-0.4,0.3-0.6,0.7-1.2,0.7c-0.2-0.4-0.2-0.9-1-0.7C337.7,27.3,338.2,27.4,338.8,27.4z M337.4,26.7
			c0.7,0.5-0.8,0.7-1,1.2c-0.7,0.2-0.5-0.7-1.2-0.5C335.9,26.7,336.9,27.9,337.4,26.7z M334.8,27.4c-0.5,1-1.3,0.1-2.2,0.5
			C332.7,27.1,334,27.5,334.8,27.4z M331.6,17.5h0.5c-0.7,1.1,1.2-0.5,1,1c-0.5,0.1-1.2,0.5-1.7,0c0.2-0.2,0.4-0.7,0-0.7
			C331.4,17.6,331.5,17.6,331.6,17.5z M329,18c0.9,0.2,0.9,0,1.4,0.2C330.4,18.6,328.7,18.8,329,18z M329.7,31.2
			c-0.2,0.6-1.5,0.6-1.4-0.2C328.9,31,329.4,31,329.7,31.2z M326.8,18c0.5,0.5,1.1,0.1,1.7,0C328.8,18.8,326.5,18.8,326.8,18z
			 M321.3,27.1c0,0.7,0.1,1.6-0.2,1.9c-0.3-0.7-0.7-0.9-1.4-0.5c0,0.2,0.3,0.2,0.5,0.2c-0.4,0.6-1-0.7-2.2-0.2
			C318.7,28,321,28.2,321.3,27.1z M316.5,18.7c-0.3-0.3-0.8-0.3-1.4-0.2C315.1,17.7,316.9,17.5,316.5,18.7z M314.4,28.1
			c1.2,0.3,1.7-0.1,2.4,0.2c-1.1,0-1.7,1.4-2.6,0.7C314.6,28.6,314.6,28.9,314.4,28.1z M312.9,24.3c-0.2-0.6-1.5,0.7-1.4-0.5
			C312,24.3,312.8,23.2,312.9,24.3z M312.9,27.6c-0.1,0.2-0.3,0.4-0.2,0.7c-0.6,0.1-1-0.1-1-0.7C312.5,27.5,312.2,27.5,312.9,27.6z
			 M312.2,18c-0.1,0.8-2.5,0.7-2.4-0.2C310.8,18.2,311.4,17.5,312.2,18z M306.9,29.1c-0.5-0.6-0.9,0.1-1.7,0c-0.1-0.6,0.9-0.2,0.7-1
			C306.2,28.5,307,28.4,306.9,29.1z M306.4,18.3c-0.6,0.6-2.3,0.1-3.4,0.2C303.7,17.4,305.4,18,306.4,18.3z M303.6,28.8
			c-0.5,0.3-1.5,0.6-1.9,0.2c0,0.3,0.1,0.4,0.2,0.5c-0.1,0.3-0.6,0.2-1,0.2c-0.1-0.4,0.4-0.6,0-0.7
			C301.4,28.7,302.6,28.6,303.6,28.8z M301.4,27.6c0.2,0.1,0.4,0.7,0.5,0.2c0.5,1-2.7,0.1-3.1,1c-0.8-0.3,0.7-0.1,0.2-0.7
			c0.6,0.2,1.9-0.2,1.2-0.5C300.6,26.6,301.4,29,301.4,27.6z M300.4,18c-0.7,0.9-2.3,0.2-4.1,0.5C296.8,17.8,299.2,17.8,300.4,18z
			 M296.1,28.1c0.1-0.4-0.9-0.8-1-0.2c-0.3,0-0.2-0.4-0.2-0.7c0.2,0,0.2-0.1,0.2-0.2c0.6,1,1.4,0.3,2.6,0.7c-0.5,0.9-1.7,1-2.4,1.7
			c0,0.5,0.9,0.1,1.2,0.2c0.1,0.7-2.3,0-2.6-0.5c0.7-0.5,1.1,0.1,2.2-0.2c-0.9-0.4-1.9-0.5-2.6-0.2
			C292.8,27.9,295.9,27.9,296.1,28.1z M295.4,31.2c1.7-0.2,4.2-0.8,5.8,0.5c-3.5-0.2-7,0.2-10.3,0.2c-1.1-0.1-1.7-0.4-2.4,0.2
			c-0.1-0.4,0.2-0.4,0.2-0.7c0-0.5-0.6,0.3-1.2,0c-0.4,0.1,0.1,0.3,0,0.7h-1.2c0.2-0.6,0.7-0.9,1-1.4c0.2,0,0.2,0.1,0.2,0.2
			C289.6,31,293.6,30.5,295.4,31.2z M290.6,35.3c-0.8-0.3-0.5,0-1.4,0C289,34.8,290.8,34.4,290.6,35.3z M288.9,26.9
			c0.4,0.4,0.3,1.3,0.7,1.7c-0.1,0.6-0.4-0.7-1.2-0.2C288.2,27.5,289,27.7,288.9,26.9z M291.6,19.5c0.2,0.8-2,1.2-1.9,0.2
			C290.6,20.3,290.5,19.4,291.6,19.5z M290.1,18.3c-0.3,0.5-1.7,0.1-2.4,0.2C287.7,17.6,289.8,18,290.1,18.3z M288.4,27.1
			c0,0.4-0.3,0.5-0.2,1c-0.3-0.2-0.9-0.2-1.2-0.5C287.4,26.8,287.9,26.9,288.4,27.1z M285.6,28.3c-1.4,0.3-2.8-0.1-4.6,0
			C282.2,27.6,283.7,28.1,285.6,28.3z M282.4,17.8c0.8,0.5-1.4,0.7-1.7,0.2C281.1,17.6,282.2,18.1,282.4,17.8z M282.7,26.9
			c-0.5,0.3-1.8,0.6-2.2,0.2C281.1,26.7,282,26.6,282.7,26.9z M280,27.6c-0.5,0-1.5-0.1-2.9,0c0-0.3-0.1-0.4-0.2-0.5
			c0.1-0.3,0.4,0,0.5,0.2c0.7-0.4,1.6-0.6,2.9-0.5C280.3,27.9,278.9,26.8,280,27.6z M279.8,15.6c0.2,0.9-1.7,0.5-1.9,0.2
			C278.3,15.3,279.1,16.2,279.8,15.6z M278.1,18c0,0.5-1,0.1-1.4,0.2C276.8,17.4,277.8,17.6,278.1,18z M272.4,28.8
			c0.1-0.2,0.3-0.4,0.2-0.7c0.7,0.3,1.6-0.3,2.2,0.5C274.4,29.1,273.1,28.7,272.4,28.8z M273.8,31c-0.3,0.7-1.2,0.7-1.9,1
			c0.2-0.4,0.6-0.7,0.7-1.2c0.2,0,0.2,0.3,0.2,0.5C273.3,31.3,273.3,30.9,273.8,31z M275.5,31.2c0,0.5-1,0.1-1.4,0.2
			C274,30.8,275.2,30.9,275.5,31.2z M274,25.2c0.5,0.2,1.2,0.2,1.7,0.5C275.4,26.2,274,25.9,274,25.2z M275,15.6
			c-0.1,0.8-1.2,0.4-1.7,0.2C273.4,15.3,274.5,15.8,275,15.6z M274,22.8c0.3,0.1,0.5,0.3,0.5,0.7c-0.7-0.1-0.9-0.3-1.2,0
			C272.3,23,274.1,23.2,274,22.8z M271.6,17.3c-0.8,0-1.7,0.1-1.7-0.7C270.4,17,271.7,16.4,271.6,17.3z M272.8,20.7
			c-0.8,0.3-2.8,0.4-3.4,0.2C270.3,20.5,272.2,20.6,272.8,20.7z M270.4,27.4c0.3-0.6,1.2,0.3,1,1c-1.2-0.4-1.4,0.3-2.2,0
			C269.3,27.3,271.1,28.2,270.4,27.4z M267.1,16.6h1.2c0.2,0.8-0.7,0.4-1.2,0.5V16.6z M266.4,17.8c-0.3,0.3-1.1,0.6-1.4,0.2
			C265.2,17.7,266,17.4,266.4,17.8z M264,25c0.8,0.5,1.3-0.2,1.9,0.2C265.6,25.6,263.7,26.3,264,25z M264.4,25.9
			c0.7,0.1,1.1,0.3,1.4,0.7c-0.1,0.8-1.1-0.7-1,0.5c-0.4,0-0.6-0.2-0.7-0.5c-0.4,0.9-2.7,0.1-2.6,1.4c-1.1-0.1-1.4,0.3-2.2,0
			c0.5-0.4,1.1-0.8,1.7-0.2c0.2-0.9-1.2-0.3-1-1.2C261.7,25.7,263.2,27.4,264.4,25.9z M263,16.3c-0.7,1.6-2.4-0.2-3.8,0.5
			C259.9,15.8,261.8,16.8,263,16.3z M260.8,18c-0.7,0.2-3,0.2-3.6-0.5C257.7,17.7,260.3,16.6,260.8,18z M252.4,17.5
			c-0.5,0.7-2.3,1-2.6,0C250.9,17.3,251.6,17.2,252.4,17.5z M249.6,19.2c0.7,0,1.3,0,1.2,0.7C250.3,20.4,249.3,20.2,249.6,19.2z
			 M249.1,26.7c1,0.5,0,1.5,0.7,2.2c-1.8,0-0.3-1.6-1.4-1.4C248.3,26.8,249.1,27.1,249.1,26.7z M251,31c-0.1,0.3-0.4,0.4-0.5,0.7
			c-0.5-0.1-0.2-0.9-1-0.7C249.8,30.3,250.6,31.1,251,31z M249.1,33.1c-0.6,0.4-1.4,0.4-1.9,0.2C247.6,33.1,248.7,32.8,249.1,33.1z
			 M247.4,28.3c0.2,0.8-0.8,0.3-0.7,1c-0.3-0.1-0.2-0.5-0.5-0.5C246.2,28.3,246.8,28.3,247.4,28.3z M245.5,26.7
			c0,0.7-1.1,0.6-1.4,0.2C244.2,26.1,244.6,26.9,245.5,26.7z M244.3,16.6c-0.1,0.5-0.7,0.4-0.5,1.2c-0.8,0.2-0.4-0.9-1-1
			C243,16,243.4,16.8,244.3,16.6z M240.2,26.4c-0.5,0.5-1.5,0.6-2.2,0.2c0.5,0.3,0.6,0.7-0.2,0.7c-0.1,0.6,1.3-0.2,1,0.7
			c-2-0.3-3,0-5.3,0.2c-0.3,0.1,0,0.4,0.2,0.5c-1.3,0.5-1.6-0.9-3.6-0.2c0.4-0.8,2.3-0.5,2.9-0.5c-1.8-2.6-4.5-0.4-7.2-1.7
			C229.9,25.9,235.3,26.6,240.2,26.4z M241.4,33.4c-1.4-0.1-4.6,0.1-5.8-0.2C236.9,32.8,240.1,32.5,241.4,33.4z M234,30.3
			c-0.2,0.6-0.8,0.8-1.7,0.7C232.6,30,233.2,30.5,234,30.3z M228.4,34.1c0.6,0.3,1.9-0.1,1.9,0.7C229.6,34.7,228.1,35.3,228.4,34.1z
			 M230.1,37.5c-1.4-0.8-2.4,1-3.1-0.5C228.1,36.7,229.5,36.3,230.1,37.5z M226.8,32.7c0.7,0.2,2.9-0.1,4.3,0
			C230.4,33.7,228.1,33.1,226.8,32.7z M229.2,31c-0.1,0.3-0.6,0.2-1,0.2c0-0.4-0.3-0.5-0.2-1h0.7C228.6,30.9,228.2,31.1,229.2,31z
			 M228.2,16.6c-0.8-0.2-1.4,0.4-0.2,0.2c-0.2,0.5-0.6,0.6-1.2,0.7c-0.5-1.4-1.6-0.9-3.4-1.2C223.9,15.9,227.6,15.2,228.2,16.6z
			 M224.1,17.3c-0.4,0.2-0.8-0.7-1,0C222.3,16.8,224.4,16.1,224.1,17.3z M223.2,18.5h0.7v0.7c-1-0.2-1.2,0.6-1.4,1.2
			c-0.2-0.1-0.4-0.3-0.7-0.2c0.2-0.9,0.9-0.2,0.5-1.4C222.8,18.5,223.2,19.5,223.2,18.5z M222.2,16.6c0.2,0,0.2,0.2,0.5,0.2v0.5
			h-1.2C221.4,16.8,222.2,17,222.2,16.6z M218.8,18.7c-0.7,0.8-1.5,0-2.9,0.2C215.6,18.5,218.1,18.9,218.8,18.7z M215.7,15.6v1
			c-0.4-0.5-1.7-0.1-1.7-1C214.4,16.1,214.8,15.4,215.7,15.6z M213.6,15.9v0.7c-0.2,0-0.2-0.3-0.2-0.5c-0.2,0.4-1.2-0.1-1,0.7
			c-0.5,0-0.2-0.8-0.7-0.7C212.2,15.4,213,16.3,213.6,15.9z M206.6,33.9c0.6-0.8,1,0.5,2.2,0c-0.1,0.7-1.2,0.4-1.9,0.5
			c0-0.2,0.3-0.2,0.5-0.2C207.3,33.8,206.9,33.9,206.6,33.9z M205.2,27.9c0.1-0.3,0.3-0.5,0.7-0.5C208.1,27.6,208.5,28,205.2,27.9z
			 M208.5,30.3c-0.6,0.1-0.5-0.4-1.2-0.2c0.2-0.4,0.6-0.5,1.2-0.5V30.3z M204.2,25.9c1.4-0.5,2.9-0.2,3.8,0.2
			C207.6,26.4,205.4,26.8,204.2,25.9z M206.1,22.1c0,0.9-1.2,0-1.2,0.5C204.2,22.2,205.9,21.6,206.1,22.1z M204.2,21.4v-1
			c0.4,0.3,0.8,0.6,1,1.2C204.9,21.4,204.6,21.4,204.2,21.4z M204.9,16.3c0-0.3-0.4-0.2-0.7-0.2c0.2-0.4,0.8-0.5,1.4-0.5
			c0.2,0.8-1,0.3-0.7,1.2c-0.9,0-2.1,0.1-2.2-0.7C203.2,16.5,204.2,16.3,204.9,16.3z M201.3,18.7c0.2-0.4,0.4,0,0.7,0
			c0.2-0.2,0.2-0.6,0.7-0.5c0,0.4,0.2,0.6,0.5,0.7C202.8,19.6,201.6,19.1,201.3,18.7z M203,34.8c-0.2,0-0.2-0.1-0.2-0.2v-0.7
			c0.4,0.3,0.9,0.4,0.7-0.5c0.6-0.1,0.8,0.3,0.7,1C204.1,34.8,203.1,34.3,203,34.8z M203.5,38.2c0.3-0.6,0.8-0.4,1.4-0.2
			C204.9,38.6,203.8,38.5,203.5,38.2z M204.9,36.3c-0.7,0-1.3,0-1.2-0.7C204.4,35.5,205,35.5,204.9,36.3z M204.7,27.9
			c-0.9,0.2-1.3-0.2-1.7-0.5c0.1-0.8,1.4-0.4,2.2-0.5C205.5,27.7,204.4,27.1,204.7,27.9z M205.2,36.3c1.4-0.5,2.6,0.1,4.3-0.2
			C209,37,206.1,36.4,205.2,36.3z M210,36.7c0.5-0.6,1.6-0.5,2.6-0.5C211.6,36.8,211.2,37,210,36.7z M210.9,33.9
			c1.2,0.1,0.5,0.6,1.4,0v0.7C211.6,34.6,210.8,34.7,210.9,33.9z M211.4,27.6c-0.4,0.3-1.5,0.3-2.4,0c0.4-0.9,2.2-0.4,1.9-1.4
			c0.2,0.4,1.6-1.3,2.2,0.2C212.1,25.8,210.2,27.7,211.4,27.6z M214.3,34.6c-0.6,0-0.3-0.2-0.2-0.5c0-0.2-0.3-0.2-0.5-0.2
			c-0.8-0.3,0.6-0.3,1-0.2C214.2,34.2,214.6,34.4,214.3,34.6z M212.8,32.7c0.1-0.5,1.2-0.1,1.7-0.2C214,33,213.5,32.9,212.8,32.7z
			 M214.5,26.9c-0.4-0.5-0.5-0.5-1.2-0.2c-0.1-0.9,0.7-0.7,1.4-0.7C214.9,26.4,214.6,26.6,214.5,26.9z M216,37.7v-1
			C216.9,36.6,216.9,37.9,216,37.7z M216.2,38.2c0-0.5,1-0.1,1.4-0.2c-0.1,0.5,0,0.8,0.5,0.7C217.7,39.2,216.8,38.2,216.2,38.2z
			 M215,31c0.3-0.3,0.3-0.6-0.2-0.7c0.1-0.5,1.2-0.1,1.7-0.2c-0.3,0.3-0.1,0.4,0,0.7c0.7,0,2-0.8,1.9,0.5
			C217,30.9,216.1,31.1,215,31z M221.2,39.4c-0.7,0.5-1.2,0.5-1.9,0.2c0.4-0.2,1.3-0.8,0-0.7c-0.2-0.3,1.5-1,2.2-0.5
			C221,38.7,219.9,39.3,221.2,39.4z M219.8,37.5c0.5-1.2-0.2-0.3-1.2-0.5c0.2-0.9,1.9-0.3,2.9-0.5C221.5,37.4,220.8,37.6,219.8,37.5
			z M221,31.2c-0.4,0-0.5-0.3-1-0.2c0.9-1.1-0.2-0.2-0.5-1.2c1.5,0.2,2.5-0.4,3.8,0.5c-0.1,0.6-1.7-0.2-1.2,1
			C221.6,31.4,221,30.2,221,31.2z M222.4,34.6c0-0.7,1.4-0.6,1.7-0.2C224,34.9,222.9,34.4,222.4,34.6z M225.6,28.3
			c-0.6-0.7-3.9,0.3-3.4-0.7c-1.5,0-1.1,0.9-2.6,0c-0.1-0.4,0.2-0.5,0.5-0.5c-0.3-0.3-0.9-0.4-1.2-0.7c-0.7,0.8-1.9,0.1-2.9-0.2
			c-0.5,0.1,0.3,0.4-0.2,0.7c-0.3-0.1-0.1-0.7-0.5-0.7c2.2-0.3,3.9-0.2,5.8,0.2c0.1,0.6-0.7,0.3-0.7,0.7c0.7,0.4,1.8-0.3,2.6,0.2
			c0,0.2-0.3,0.2-0.5,0.2c0.1,0.5,1.2,0.1,1.7,0.2c-1-0.5,0.9-0.8,1.2-1.4c-1.3,2,2.7,0,2.4,1.7C226.9,28,225.8,27.1,225.6,28.3z
			 M227.5,40.1c-0.4,0.1-0.6-0.4-0.7,0c-0.9-0.2,0.2-0.8-0.7-1c0.7,0.2,1.7-1.5,2.4,0C227.1,38.9,227.8,39.7,227.5,40.1z M233,40.1
			c-0.3-0.2-0.6-0.3-1.2-0.2c-0.4-0.5,0.2-0.5-0.2-1c-0.3,0.3-1,0.2-1.7,0.2c-0.5,0.1-0.1,1.1-0.5,1.2c-0.2-0.5-1.7,0.2-1.4-0.7
			c0.6,0.7,2.1-0.5,1-0.7c0.9-0.8,2.3-0.1,4.1-0.2V40.1z M235.6,39.4c-0.9-0.1-1.4-0.4-1.7,0C232.9,38.9,236,38.5,235.6,39.4z
			 M233.5,35.1c-0.5,0-0.5-0.6-0.5-1.2c1.9,0.3,2.9,0.6,4.6,0.5C237.8,36.1,234.5,34,233.5,35.1z M238,37c0.9-0.9,2.6-0.4,3.6,0.2
			C241.9,37.6,238.9,37.5,238,37z M239.5,34.8c0.6-1.3,3.9,0.1,5.5-0.2C243.3,35.9,241.2,34.4,239.5,34.8z M245.7,37.5
			c-1.1-0.3-3.1-0.2-1-0.7c0.4-0.1,0.4,0.2,0.7,0.2v-0.5C246.3,36.3,245.9,37.3,245.7,37.5z M244.3,31c-0.2,0.4,1.1,0.4,1,0
			c0.7,1-0.9,0.3-1.9,0.5c0.4-0.6,0.5-0.4,0.2-1.2c1.5,0.3,2.2,0,3.6,0c-0.6,1,0.3,0.7,0.2,1.7c-0.6-0.1-1.1-0.8-0.7-1.2
			C246,31.3,245,30.3,244.3,31z M246.2,37.5v-1c1.1,0.2,1.1,0.3,1.9,0.5c-0.1,0.2-0.3,0.4-0.2,0.7C247.1,37.8,247,37.3,246.2,37.5z
			 M247.6,39.1c0.3-0.5,1.5-0.1,2.2-0.2C249.4,39.6,248,39.7,247.6,39.1z M251.2,37.9c-0.6-0.7-0.6-0.5-1.4-0.7
			c0.2-1,1.8-0.9,1.7,0.2C251.2,37.5,251.3,37.8,251.2,37.9z M249.6,35.3c-0.5-1,2.3-0.1,1.4-0.7c0.4-0.8,0.7,0.4,1,0.5
			C251.4,35.5,250.4,34.8,249.6,35.3z M250.8,28.6c-0.1-0.6-1.1-0.2-1-1c0.9-0.1,1.2,0.4,2.2,0.2C251.9,28.4,250.9,28.1,250.8,28.6z
			 M253.2,37.9c0.2-0.8-0.8-0.3-1-0.7c0.4-0.7,1.1,0.3,1.9,0C254.2,37.9,253.6,37.8,253.2,37.9z M252.2,35.3v-0.7
			c0.8-0.2,0.8,0.4,1,0.7c0.2-0.3,0.9-0.1,0.7-0.7C255,35.3,253.2,35.7,252.2,35.3z M252.2,26.7c0.9,0.5,2.5-0.7,2.9,0.7
			C254.5,26.8,252.3,27.7,252.2,26.7z M258,37.7c0.6-0.7,2.6-0.7,2.9,0.5C259.6,38.3,259.4,37.4,258,37.7z M259.2,32.7
			c0.7,0.1,0.9,0.7,1.9,0.5C260.9,34.2,259,33.4,259.2,32.7z M260.4,31c-0.2,0-0.4,0.2-0.4,0.3c0.1,0,0.3,0.1,0.4,0.1
			c-0.4,0.1-0.5,0-0.4-0.1c-1.6-0.4-4,0.6-5.1-0.1c-0.1-1,0.6,0.2,0.7-0.7c0.3,0,0.2,0.4,0.2,0.7c0.8-0.2,1.4-0.4,1-1.2
			c1,0.4,1.6,0.5,2.4,0c0.5,1.6,3.7,0,6,1C264.6,32.5,261,32.2,260.4,31z M265.4,35.3c-0.8,0-1.3,0.5-1.4-0.5
			c0.8-0.3,0.8,0.1,1.7-0.2C265.5,34.8,265.4,35,265.4,35.3z M266.6,31.7c-0.6,0-0.9-0.3-1-1c1.3,0,2.1,0,2.6,0.2
			C267.8,31.3,267.2,31.5,266.6,31.7z M266.6,17.3c0.6,0.8,1.8,0.1,2.4,0.5C268.8,18.6,266.6,18.2,266.6,17.3z M269.2,39.6
			c0.9-1.3,3.4,0.2,4.6-0.5C272.8,40.4,270.6,39,269.2,39.6z M273.3,33.6c-0.1-0.9,2.7-0.3,3.4-0.2
			C275.8,34.1,273.7,32.9,273.3,33.6z M274,35.3c0-0.9,0.2-0.1,0.7-0.2v-0.5c0.6,0.2,1,0.6,1.2,1.2C275.2,35.8,274.5,35.7,274,35.3z
			 M276,34.8c0.1-0.3,2-0.6,1.7,0.2c-0.6,0-0.8-0.5-1,0.2C276.4,35.2,276.4,34.8,276,34.8z M276.4,39.1c0.9,0.6,2-0.1,2.9,0.2
			C278.6,39.8,276.9,40.1,276.4,39.1z M278.1,31.5c2.3-1.5,6.2,0.2,8.6-1c-0.3,0.9-0.8,1.6-2.2,1.4c0.1-0.3,0.5-0.2,0.5-0.5
			c-0.6-0.5-1.9,0.7-2.4,0.5C282.1,30.8,280.2,32,278.1,31.5z M283.6,35.8c-0.7-0.7,1-1,1.9-1c-0.3-0.4-0.3-0.6,0-1h0.5
			c0,0.2,0.1,0.2,0.2,0.2c-0.3,0.4-0.5,0.9-0.7,1.4C285.2,35.2,284.1,35.5,283.6,35.8z M285.6,36.3c-0.3,0.9-1.2,0-1.4,0.5
			C283.2,36.1,285,36.2,285.6,36.3z M283.2,39.4c-0.2,0-0.2,0.1-0.2,0.2c-0.8-0.6,1.1-0.3,1-0.5c0.3,0.1,0.2,0.5,0.5,0.5
			C284,39.9,283,40,283.2,39.4z M282.9,37.7c0.6-0.5,0.8,0.6,1.9,0.2c0.1-0.6-1.1,0.1-0.7-0.7c0.6,0,1.2,0,1.4,0.2
			C285.5,38.5,283.2,38.8,282.9,37.7z M285.6,39.9c1.1-0.7,2.4-0.7,3.8-0.2C288.5,39.8,287.2,39.8,285.6,39.9z M290.1,41.1
			c0-0.3-0.1-0.4-0.2-0.5c0-0.5,1-0.1,1.4-0.2C291.4,41,290.7,41,290.1,41.1z M297.6,35.1c-1.2,0.6-2.2-0.2-3.6,0.2
			C294.4,34.4,296.8,34.9,297.6,35.1z M294.7,38.2c0.4-0.9,2.4-0.9,2.9,0C296.9,37.8,296.2,38.3,294.7,38.2z M297.3,39.9
			c0.1-0.7,1.2-0.4,1.9-0.5C298.9,40.1,298.4,39.6,297.3,39.9z M298.3,37.5c0.3,0.3,0.8,0.3,1.4,0.2C299.7,38.4,298,38.4,298.3,37.5
			z M300.7,39.9c1-0.5,1.7-0.5,2.9-0.2C303.1,40.2,301.6,39.7,300.7,39.9z M302.4,35.8c0.5-0.3,2.1-1.3,2.6,0.2
			C304.1,35.4,303.1,36.3,302.4,35.8z M304.3,38.2c0.2,0.2,0.4,0.4,0.7,0.5c-0.3,0.4-1.7-0.2-1.7-1c0.7,0.2,2.2-0.1,1.4-0.7
			c0.3-0.5,1.1,0.6,1.9,0.5C306.2,38.9,305,37.8,304.3,38.2z M307.6,39.6c0.5-0.6,2.1-0.2,2.6,0C309.9,40.1,308.1,39.9,307.6,39.6z
			 M307.4,37.7c0.2-0.9,1.4,0.3,2.2,0.2C309.1,39.1,308.1,37.8,307.4,37.7z M302.6,31.9v-0.7c1.9-0.1,6.1-0.6,7.7,0.5
			C308.1,32.4,305.4,30.9,302.6,31.9z M308.1,27.1c1.5-0.3,1.8,0.7,3.4,0.5C311,28.8,308.7,28,308.1,27.1z M311.2,33.9
			c-0.3-0.8,1.2-1,1.4-0.5C312.7,34.2,312,33.5,311.2,33.9z M312.9,35.8c-0.7,0-0.6-0.7-1.2-0.7C311.8,34.7,313.3,35,312.9,35.8z
			 M313.2,31h0.5C317.7,31,313.8,32.4,313.2,31z M314.1,34.8c0,0.2,0.1,0.2,0.2,0.2c-0.1,0.7-0.8,0-0.5-0.5h1.7
			C315.2,34.9,314.5,35.2,314.1,34.8z M316.8,31.5c3.2-0.8,8,0.1,11.3-0.5c-0.1,1.2-2.2,1.1-2.4,0.5c-0.2,0.2-0.4,0.4-0.5,0.7
			c-2.9-0.1-5.3-0.9-8.2-0.2C317,31.7,316.9,31.5,316.8,31.5z M323.5,35.1c-0.3,0.5-1.8,0.3-1.7-0.5C322.5,34.6,322.4,35,323.5,35.1
			z M319.2,41.3c-0.2-0.2-0.1-0.7-0.5-0.7c0.1-0.5,1.4,0.1,1-1c0.4,0.7,2,0.2,2.2,1.2C319.9,40.2,321.2,41.6,319.2,41.3z
			 M320.4,39.9c-0.1-0.9,1.9-0.5,2.2-0.2C322.3,40.2,321,39.7,320.4,39.9z M318,37.9c-0.1,0-0.2,0-0.3,0.1c0,0,0-0.1,0-0.1
			c-0.2,0-0.5-0.1-0.8-0.1c-0.1-0.4,0.9-0.4,0.8,0.1C317.9,37.9,317.9,37.9,318,37.9c2-0.4,3.9-0.5,5.9,0.1
			C321.6,38.4,320,38.2,318,37.9z M324,33.9c-0.9-1.6,1.9-0.3,2.4-0.7C327,34.3,323.9,32.9,324,33.9z M325.6,35.8
			c0-0.3,0.4-0.2,0.7-0.2c0.1-0.5,0-0.8-0.5-0.7c0.2-0.4,2.5,0.4,3.8,0c0.1,0.6,0,0.9-0.2,1.2c-0.6-0.1-0.6-0.6-0.2-1
			C328.2,35.6,327.1,35.3,325.6,35.8z M330,37.2c-0.5,0.7-2.3,1.4-2.9,0.5h0.7c0.3,0,0.2-0.4,0.2-0.7C329.6,37,328.5,37.7,330,37.2z
			 M330.7,39.9c-1-0.2-0.6,1.2-1.7,1c0.1-0.3,0.3-0.5,0.7-0.5c-0.7-0.2-2,0.6-2.9,0c0.1-0.5,0.6-0.5,0.7-1c0.3,0,0.1,0.2,0,0.2
			c0.2,0.3,0.5,0.4,1,0.5c0-0.2-0.3-0.2-0.5-0.2C328.3,39,330.9,39.7,330.7,39.9z M330.4,31.9c0-0.3-0.1-0.4-0.2-0.5
			c2-1.2,4.7-0.1,8.6-0.5c0.2,0.8-0.7,0.4-1.2,0.5c0.5,0.8,0.3,0.8,0.5,1.7c-0.4,0-0.5,0.3-1,0.2c0,1.1-1.1,0.1-1.7,0.2
			c0-0.7,1.4-0.6,1.7-0.2c0.2-1.3-0.6-0.2-1-0.7c0.2-0.5,0.6-0.6,1.2-0.7C334.8,31.5,332.7,31.4,330.4,31.9z M337.9,35.5
			c-0.2,0.3-0.5,0.4-1,0.5c-0.2-0.7,0.2-0.9,0.2-1.4C337.8,34.5,337.4,35.5,337.9,35.5z M332.1,39.9c-0.4-0.6,1.9-1.1,2.4-0.2
			C333.7,40.2,333,39.3,332.1,39.9z M331.9,35.8c0.4-0.5,0.8-1,1.4-1.2c0.3,0.6-0.1,0.5,0.5,1c0.4-0.1-0.1-0.3,0-0.7
			c0.7,0,0.6,0.7,1,1c0.2-0.1,0.4-0.2,0.7-0.2c0.1-1-0.6,0.2-1-0.5c0.8-0.3,2.5-0.9,2.2,0.7c-0.6-0.2-1.5-0.6-1.4,0.5
			C334,36.2,333.5,35.5,331.9,35.8z M337.6,38.2c-0.8-0.3-2-0.3-2.9-0.5c0.6-0.5,2-0.1,1.9-0.2c0.3-0.1,0-0.4-0.2-0.5
			c1.2-0.8,3,0,3.6,0C340.6,38.2,337.7,37.3,337.6,38.2z M340,35.8c-0.9-0.4-0.7,0-1.4,0.2c0.6-0.6-0.6-0.3-0.2-1.2
			c0.7,0,1.4-0.6,1.9,0v-0.5c0.3,0.1,0.2,0.6,0.2,1C340.1,35.2,340.1,35.5,340,35.8z M339.6,29.8c0.4-0.4,1.1-0.5,1.9-0.5
			C341.2,29.9,340.4,29.8,339.6,29.8z M341.5,31.5c1.1-0.6,1.9-0.4,2.6-0.2C343.4,31.8,342.4,31.7,341.5,31.5z M343.6,27.6
			c-0.6-0.1,0.2,1.3-0.7,1c0.4-1.6-0.8-0.2-1.4-1c1.3-0.9,3.3,0.3,4.6-0.7c0.6-0.1,0.6,0.5,0.7,1C345.8,27.4,344.3,28.7,343.6,27.6z
			 M344.4,31.5c0.3-0.8,2.7,0.5,2.6-0.7c1.2,0.7,2.4,0.3,3.8,0.5c0.5-0.2,1.5,0.2,0.5,0.2h-1.4C348,32.2,346.4,31.4,344.4,31.5z
			 M346.3,35.3c0.2-0.5,1.7-0.3,1.9,0C347.9,35.9,346.7,35.4,346.3,35.3z M347.7,40.8c0.4,0,0.5,0.3,1,0.2c0-0.5-0.7-0.3-0.5-1
			c0.5,0.1,0.4,0.7,1.2,0.5C349.8,41.5,347.6,41.7,347.7,40.8z M347.7,40.3c-0.5,0.2-0.5-1.2-0.7-0.5c0.2-1.3,2.1-0.6,2.9-0.2
			C349.2,40.3,347.9,39.1,347.7,40.3z M349.6,37.7c0.7-0.4,2.1-0.4,2.6-0.2C351.8,38,350.6,38.1,349.6,37.7z M352,40.6
			c-0.3-0.4-0.4-1.3,0.7-1.2C352.8,40,352,39.9,352,40.6z M352.3,35.1c0.8,0.1,0.9-0.5,1.4,0c-0.1,0.2-0.2,0.4-0.2,0.7
			C352.9,35.8,352.2,35.7,352.3,35.1z M353,40.6c0.5-1,2.5-0.2,2.4,0.2C354.6,40.8,354,40.4,353,40.6z M355.6,39.9H354
			C354,39.2,355.9,38.8,355.6,39.9z M357.8,39.6c-0.3,0.4-1.6,0.4-1.9,0c0.6-1.5,3,0.8,3.4-0.5c0.3,0,0.1,0.2,0,0.2
			c0.1,0.3,0.7,0.1,0.7,0.5C359.9,41,358,40.7,357.8,39.6z M360,31.7c0-0.2-0.1-0.2-0.2-0.2c-0.5-0.2,0.3-0.4,0.2,0
			C362.5,30.8,362.2,31.6,360,31.7z M360.4,35.5c0.1-0.8,1.8-0.6,1.7,0.2C361.8,35.5,361.1,35.6,360.4,35.5z M361.4,41.3
			c1.3-0.8,3.2-0.3,4.6-0.5C365.2,42.2,362.9,41,361.4,41.3z M364.3,33.9c0-1,1.7-0.2,2.4-0.5C365.9,34.2,365.2,33.5,364.3,33.9z
			 M367.9,37.2c-0.5,0.5-1.5,0.6-2.2,0.2C366,36.9,367.2,37.4,367.9,37.2z M365.7,35.1c-0.4,0.5-1.8,0.1-2.6,0.2
			C362.8,35.1,365.2,34.5,365.7,35.1z M363.8,39.4c0.9-0.1,1.2,0.4,2.2,0.2C365.8,39.9,363.6,40.2,363.8,39.4z M366.2,39.9
			c0.9-0.4,1.3-0.8,2.2-0.2C368.1,40.2,366.9,39.7,366.2,39.9z M368.4,40.8c0.7-0.5,2.6,0.7,3.6,0c0-0.5-1-0.1-1.4-0.2
			c0.4-0.8,1.2,0,2.4-0.2C372.4,41.9,369.7,41.5,368.4,40.8z M370.5,36.7c0,0.4,0.3,0.5,0.2,1c-0.8,0-1.7,0.1-1.7-0.7
			C369.8,37.2,369.8,36.6,370.5,36.7z M369.3,34.8c0.5-0.1,0.5,0.3,0.5,0.7C371.4,35.7,368.8,36.4,369.3,34.8z M374.6,37.2
			c0,0.5-0.9,0.1-1.2,0.2c0.6-0.6-0.5-0.5-1-0.7c0-0.5,1-0.1,1.4-0.2C373.7,37.2,374.4,37,374.6,37.2z M374.4,40.1
			c-0.2,0.5-0.8-0.7-1.7-0.2c0.1-0.8,1.4-0.4,2.2-0.5C375.1,40.4,373.5,39.2,374.4,40.1z M362.4,31.5c0.5-0.2,2.2-1.3,2.4-0.2
			c4.4-0.1,7-0.5,12,0C373,32.2,366.6,31.4,362.4,31.5z M380.4,39.1c0.8,0.7,2.2-0.6,2.2,0.7C381.8,39.7,380.5,40,380.4,39.1z
			 M384,39.6c-1.3,0-0.2,0-0.2,0.7c-0.5-0.1-0.5-0.6-1-0.7c0-0.3,0.2-0.1,0.2,0c0.3,0,0.2-0.4,0.2-0.7h0.7V39.6z M384.2,35.1
			c-0.9-0.1-1.4,0.1-1.4,0.7c-0.5-0.6-2.5,0.2-2.4-1c1.8,0.5,2.4-0.3,4.1-0.2c0.5,0.4-0.2,0.6,0.2,1.2
			C384,35.8,383.9,35.4,384.2,35.1z M384.9,37.2c0.3-0.4,2.2-0.5,1.9,0.5C386.1,37.7,385.9,37,384.9,37.2z M386.6,39.4
			c0-0.7,2.1-0.6,2.4-0.2C388.8,39.8,387.5,39.4,386.6,39.4z M395.7,39.4c-0.4,0.4-0.6,0-1.4,0.2v-0.7h1.4
			C395.6,39.1,395.4,39.3,395.7,39.4z M399.6,38.9c2.1,0.6,3.7-0.5,5.3,0.5C402.6,38.9,400.5,41.1,399.6,38.9z M402.7,37.7
			c-0.7,1-1-0.3-1.7-0.5c0.2-0.8,0.6-0.3,1.2-0.2C401.9,37.3,401.8,37.9,402.7,37.7z M402.9,34.8c0.3-0.5,1.9-0.3,2.2,0
			C404.4,35.2,403.5,34.9,402.9,34.8z M394.5,31.5c-1.9-0.5-3.2-0.3-4.3,0c-4.1-0.4-9,0.1-13.2,0c10.1-1.6,18.7-0.3,28.6-1
			C402.4,32.4,398.4,30.4,394.5,31.5z M432.7,19.9h1.4c0.2,0.9-0.9,0.3-1.4,0.5V19.9z M430,16.8c0.5-0.2,0.8,1.1,1.2,0.2
			c0.2,0.2,0.2,0.6,0.7,0.5c-1,0.3-2.3,0-3.6,0.5C428.4,16.7,429.8,18.1,430,16.8z M432.2,28.8c-1.1,1-3.7,0.2-5,0.2
			C428.4,28.5,430.6,29,432.2,28.8z M427.2,17.5c0,0.7-1.9,0.4-1.9-0.2C426.1,17.1,426.3,17.7,427.2,17.5z M426.4,27.9
			c-0.8,0.1-1.1-0.2-1.7-0.2C424.8,27.3,426.7,27.1,426.4,27.9z M423.3,17.5c-0.6,0.6-1.3,0.4-2.2,0.2
			C421.6,16.9,422.3,17.7,423.3,17.5z M414.7,14.9c0.4-0.1,1.2,0.7,1.4,0c0.3,0,0.1,0.2,0,0.2c0,0.4,0.3,0.5,0.2,1
			c-0.2,0.1-0.4,0.2-0.5,0.5c-0.8-0.2-0.2-0.5,0-1c-0.2,0.1-0.4,0.3-0.7,0.2C415.5,15.1,414.4,15.7,414.7,14.9z M414.4,28.1
			c-0.2,0-0.2-0.3-0.2-0.5c-0.7,0.4-1.2,0.1-1.7,0C412.9,27.1,415.3,27.4,414.4,28.1z M407.5,31c0.2-0.9,1.1,0.6,1.2-0.2
			C409.4,31.6,408,31.4,407.5,31z M409.2,27.9c-0.6-0.1-1.3-0.1-1.7-0.5C407.3,26.3,409.5,26.7,409.2,27.9z M409.4,39.4
			c0-0.8,1.1-0.5,1.7-0.7C411,39.9,410.1,38.9,409.4,39.4z M410.6,34.8c-0.5,0-0.6,0.4-1.2,0C411.1,34.3,413,34.7,410.6,34.8z
			 M410.4,30.7c1.4-1,2.1,0.5,3.6-0.2C414.3,31.5,411.4,31.3,410.4,30.7z M413.2,37c1.2-0.7,2.1-0.3,3.8-0.2
			C415.6,37.5,415,36.9,413.2,37z M416.8,39.4c0-0.6,2.5-0.9,2.4,0H416.8z M414.7,31c0.8-0.6,4.4-1.1,4.6,0
			C416,31.3,417,30.8,414.7,31z M418.8,27.4c0.9-0.2,1,0.4,1.9,0.2C420.6,28,418.5,28.2,418.8,27.4z M420.4,39.1
			c0.2-0.6,1.4-0.6,1.4,0.2C421.2,39,421.1,39.6,420.4,39.1z M421.9,30.3h1c0,0.3,0.1,0.4,0.2,0.5C422.9,31.3,421.7,30.9,421.9,30.3
			z M423.3,39.1c0.1-0.3,0.7-0.3,0.7,0c0.2-0.2,0.4-0.4,0.5-0.7c0.3,0.1,0.2,0.5,0.5,0.5C425,39.6,423.6,39.5,423.3,39.1z
			 M428.4,38.4c0.9-0.1,1.2,0.3,1.7,0.5C429.7,39.6,428.5,39.2,428.4,38.4z M424.5,31c2-1.7,6.3,0,8.4-1c0.4,0.3,1.4,0,1.7,0.5
			C431.9,31.2,427.4,30.7,424.5,31z M434.8,34.1c0.8,0.3,0.5,0,1.4,0C436.6,34.9,434.5,34.9,434.8,34.1z M445.6,30.5
			c-0.4,1.1-1.9,0.5-2.9,0.2C443.2,29.7,444.5,30.9,445.6,30.5z M437.7,30.5c0.5-0.2,1.6-0.3,2.9-0.2
			C440.6,31.2,438.1,31.2,437.7,30.5z M439.9,34.6c0.1-0.8,1.2-0.4,1.7-0.2C441.5,34.9,440.4,34.4,439.9,34.6z M440.6,38.9
			c0.7-0.6,2.2,0,2.9,0.2C442.7,39.6,441.8,39.1,440.6,38.9z M440.1,36.7c2-0.5,3.7,0,6-0.2C444.1,37.2,442.3,37.2,440.1,36.7z
			 M449.2,31c-1.2,0.1-1.5,0.1-3.1,0c0.4-1,2.4-0.7,4.1-0.7C450.1,31.3,447.9,30.1,449.2,31z M451.9,18c0-0.3-0.1-0.4-0.2-0.5
			c0.2-0.5,1.4-0.1,1.2-1c1.2,0,1.5,0.2,2.9,0.5c-0.4,0.5,0,0.3,0,1C453.9,17.2,453.7,18.1,451.9,18z M453.8,30.3h2.4
			C455.8,31.1,453.8,31.4,453.8,30.3z M455.2,20.4c-0.1-0.9,1.3-0.3,1.9-0.5C456.8,20.4,456.1,20.5,455.2,20.4z M458.8,39.1
			c0.5-0.6,0.9-0.3,1.7-0.2C460.3,39.8,459.6,39.1,458.8,39.1z M464.4,29.3c-0.6-0.4-1.7,0.4-2.4-0.2
			C462.5,28.9,464.2,28.6,464.4,29.3z M462.2,34.6c0.2-0.9,1.3,0.1,2.4-0.2C464.1,35.1,463.3,34.7,462.2,34.6z M473.2,16.1
			c-0.2,0.7-2.1,0.8-1.9-0.2C472,16.4,472.3,16.2,473.2,16.1z M468,39.4c0.4-0.8,0.8-0.1,1.7-0.5C469.6,39.6,468.6,39.3,468,39.4z
			 M468.7,30.7c-0.6-0.4,1.6-0.2,2.2-0.2C470.4,31.3,469.9,30.7,468.7,30.7z M471.3,29.3c0-0.3-0.1-0.4-0.2-0.5
			c0.1-0.6,1.1-0.1,0.5,0.2C473.7,28.9,473.1,29.5,471.3,29.3z M469.9,27.9c0.8-0.8,2.2,0,3.8-0.2C473.1,28.7,471.4,27.5,469.9,27.9
			z M474,18c0.3-0.5,1.5-0.1,2.2-0.2C475.8,18.5,474.6,18.3,474,18z M476.8,39.4c0.3-0.7,1.5-0.5,2.2-0.2
			C478.3,39.6,477.7,39.5,476.8,39.4z M485.7,16.1c0,0.5-0.6,0.5-1.2,0.5c1-1.2-2.7-0.8-3.6-0.7c1.6-1,3.2-0.3,5-0.5
			C486.3,16.1,484.4,15.9,485.7,16.1z M509,29.8c-0.8,0.6-2.4,0.5-3.8,0.5C505.6,29.3,507.8,30,509,29.8z M486.4,16.3
			c0.7-0.2,0.5-0.2,1.2,0C487.6,17,486.4,17.5,486.4,16.3z M487.4,18.5c0.1-0.4-0.2-0.5-0.2-0.2c-0.9-0.4,0.6-0.4,0.2-1
			c1,0.3,1.2,0.2,1.9-0.2c-0.3,0.3-0.1,0.4,0,0.7c0.1-0.3,0.1-0.6,1.2-0.5c-0.1,0.4,0.2,0.5,0.5,0.5
			C490.2,18.6,488.3,17.8,487.4,18.5z M495.3,17.3c-0.1-0.5,0.2-0.6,0.2-1c-0.9,0.1-1.6,0-2.2-0.2c0,0.6,0.8,0.5,1.4,0.5
			c-1,0.3-2.8,0.2-4.6,0c0.2-0.5,1.3-0.1,1.9-0.2c-1.5-0.7-3.2-0.1-3.8-0.7c1.5-0.9,3.7,1,4.8-0.2c1.1,1,2.8-1,2.9,1.2
			c0.9-1.6,1.1-0.8,2.9-1c-0.1,0.5-0.4,0.9-1.2,0.7c0.3,1,1.2,0,2.2,0.2C498.8,17.5,496.3,17.5,495.3,17.3z M498,37.7
			c0.6-0.6,2.2-0.1,3.1-0.2C500.8,38,498.7,37.8,498,37.7z M501.1,17.1c0.5-0.9,1.8-0.3,2.4-0.2C503.1,17.8,502,16.5,501.1,17.1z
			 M499.9,16.1c1-0.4,2.7-0.7,3.8-0.2C502.6,16.7,501.5,16.1,499.9,16.1z M504.4,31.9c0.6-0.7,1.2-0.1,2.4-0.2
			C506.1,32.3,505.2,32.1,504.4,31.9z M508,32.2v-0.5h1.7C509.9,32.6,508.6,32,508,32.2z M506.6,16.8c0,0.3,1-0.4,0.2-0.7
			c0.7-0.5,1.8,0.2,2.2,0.7c0.7-0.5,1.3-1.3,2.2-0.5C509.8,16.7,506.9,18.7,506.6,16.8z M513.1,40.3c0.9-1,2.3,0.1,3.8-0.5
			C516,40.7,513.7,40.6,513.1,40.3z M512.1,16.6c1.3-0.9,3.2,0.1,4.8-0.5C516.3,17.4,514.2,16.3,512.1,16.6z M538,16.8
			C540.5,16.8,539.4,18,538,16.8L538,16.8z M545.5,17.3h1.4C547,18.2,545.5,18.1,545.5,17.3z M613.2,19.5c0.2-0.7,0.2-0.5,0-1.2
			c0.6-0.1,0.5,0.4,1.2,0.2c-0.3,0.3-0.3,0.6,0.2,0.7C614.6,19.8,613.6,19.3,613.2,19.5z M613.6,46.8c1-0.9,1.2,0.2,2.6,0
			C616.8,47.2,613.9,47.2,613.6,46.8z M627.3,48.3c0.5-1,1.9,0.6,3.4,0.2C629.8,49.2,628.3,48.4,627.3,48.3z M207.1,39.9
			c0,0.3,0,0.7-0.2,0.7c0-0.5-2.2-1.1-1.4-0.2c0.8-0.7,1.2,1,2.2,1c0.1-0.7,0.2-1.3,1.2-0.7C208.7,39.8,207.8,39.9,207.1,39.9z
			 M301.2,41.1c0.1,0.3-0.9,0.6-0.2,0.7c0.1-0.3,0.3-0.5,0.7-0.5c-0.5,0.7,0.4,0.1,1.2,0.5C302.9,40.9,301.6,41.5,301.2,41.1z
			 M234.7,13.9c-0.2,0.1-0.5,0-0.5,0.2c0.5-0.2,1.5-0.7,1.7-0.7c-0.3-0.4-2.1-0.4-2.4,0C233.8,13.9,234.5,13,234.7,13.9z
			 M235.9,13.5C235.9,13.5,235.9,13.5,235.9,13.5C235.9,13.4,235.9,13.4,235.9,13.5z M423.1,14.9c0.3-0.6,0.9,0.3,1.2-0.5
			c-0.2-0.1-0.5,0-0.5-0.2c0.1,0,0.3-0.2,0-0.2c-0.4,0.6-0.8,0.4-1.2,0C422.5,14.5,422.7,14.9,423.1,14.9z M364,14.4
			c-1.3,0.5-1.7-0.8-2.6,0.2C362.5,14.8,363.3,15.1,364,14.4z M407.2,15.1c0,0.3-0.3,0.4,0,0.5c-0.1-0.6,0.7-0.3,0.7-0.7
			c-0.8,0.3-1.1-1.1-1.7-0.2C406.4,15,407.2,14.7,407.2,15.1z M447.8,14.9c-0.7,0.1-2.2-1.2-2.4,0C446.5,14.2,446.8,16.1,447.8,14.9
			z M176.6,39.9c-0.1,0.8-0.4-0.2-1.4,0.2C175.1,41.5,177.9,40.2,176.6,39.9z M428.4,40.6c-1.1,0.1-1,0.1-2.2,0
			c0.1,1.2,3,0.6,3.1,0.2C428.5,40.6,427.8,41.4,428.4,40.6z M429.8,41.1c1.4-0.2,2.9-0.1,3.8-0.2C432.3,40.5,430.6,40.4,429.8,41.1
			z M461.7,40.8c0.6,0.2,2.1,1,2.4,0C463.3,41,461.8,40.6,461.7,40.8z M265.2,42c0.3,0,0.5-0.1,0.7-0.2c-0.3,0.3-0.3,0.6,0.2,0.7
			c0-0.3,0.1-0.5,0.2-0.7C266.2,41.3,264.6,41.9,265.2,42z"/>
	</g>
</g>
<g id="strokeT20_1_" display="none">
	<g display="inline">
		<path d="M707,42.2c0,0.4-1.2,0.8-1.2,0.5c0.9-1.2,2.2-1.7,1.2-3.4c-1.5-0.5-2.8-0.2-4.3-0.2c-12.9,0.1-29.1-2.4-41.8-2.9
			c-3.9-0.1-10.4,0.2-12.4,0c0.1,0,0.2,0.2-0.1,0.2c-3-0.9-7.6-0.3-12-0.7c-5.3-0.5-11-2.1-16.1-1.9c-1-0.5,0.3,0.3,0.7,0.5
			c-1,0.2-1.4,1-2.2,1.4c0.4,0,0.8,0,0.7,0.5c-1.4,0.6-0.2,0.2-1.4,0c-0.2,1.7,1.7-0.2,2.2,0.7c-0.3,0.4-2.1,0.4-2.2,0.7
			c1,0.1,2.4-0.1,2.6,0.7c-0.7,0-1.3-0.6-2.2,0c0.3,0,0.7,0,0.7,0.2c-1,0-2.5-0.2-2.4,0.2c0.4,0.1,1.4-0.3,1.4,0.2
			c-0.1,1-1-0.3-1.2,0.7c6.4,2.8,13.7,2.3,20.2,3.8c5.4-0.7,17.6,1,23.8-0.5c3,1.5,5.8,1.1,9.4,1c0,0.3-0.4,0.2-0.5,0.5
			c0.6-0.1,1.7,0.3,1.9-0.2c-0.5-0.1-1.5,0.3-1.2-0.5c1.4,0.4,2.3,0,4.1,0.5c0,0.4-0.7,0.1-0.7,0.5c0.8-0.3,1.7,0.5,1.9,0
			c1.7-1,7.4,0.4,10.1,0.5c-0.1,0.4-0.7-0.2-1,0.5c0.2,0.2,1.3,0.5,1.4,0c-0.2,0-0.3-0.4,0-0.5c2-0.2,3.4-0.2,5.5,0
			c-0.5,0.4-3.6,0.3-2.6,0.5c1.9,0.7,4.2-0.5,4.6,0.7c0.9-1.2,3.1,0.4,3.8-0.7c-0.5-0.1-1.6,0.3-1.7-0.2c0.8,0.1,2.2-0.3,2.6,0.2
			c-0.1,0.6-1,0.4-1.2,1c1.8-0.1,3.9,0.2,5-0.5c-0.7-0.5-1.5,0.4-1.7-0.5c2.4,0.5,4-0.8,5.5-1.2c-0.3,0-0.7,0-0.7-0.2
			c0.6-0.3,1.7-0.5,0.7-1c0.9,0.1,1.2-0.2,1.4-0.7C706.9,42.9,707.3,42.5,707,42.2z M699.1,45.6c0.7-0.2,0.7,0.4,1.4,0.2
			C700.6,46.5,698.7,46.7,699.1,45.6z M676.8,44.9c-1,0.3,3.4,0.4,3.6,0.2C679.5,44.7,678,44.9,676.8,44.9z"/>
	</g>
</g>
<g id="strokeT19_1_" display="none">
	<g display="inline">
		<path d="M734.9,14.4c-0.7,0.2-0.6-0.3-1.2-0.2c-0.4,0.8,0,1.2,0.7,1.4C734,14.8,734.3,14.8,734.9,14.4z M732,15.1
			c-0.6,0.1-1.5,1.1-1.7,0.2c0.9-0.7,1.7-0.4,2.6-0.2c-0.2-1.6,1.6-0.8,1.7-1.4c-1-0.4-0.9-0.2-1.4-0.2c-0.5-0.5,0-0.6,0-1.2
			c-0.8-0.6-2-0.8-2.6-1.4c-23.7-3-47.8-4.2-72.5-6.2c-0.6-0.1-0.2,0.9-1,0.7c0.1-0.3,0.4-0.4,0.5-0.7c-1.2,0.2-5.2-0.8-3.6,0.2
			c-1.3,0.2-2.3-0.2-1-0.7c-1.5-0.3-3,0.6-3.8,0c0.3-0.1,1.2,0.3,1.2-0.2C642,4.1,626.6,2.9,617,0c-0.4,0.9-1.2,0-1.9,0.5
			c-0.3,0.8-0.6,1.5-1.2,1.9c0.8,0,1.1,0.5,1.9,0.5c-0.9,0.9,0.5,0.9,0.7,1.4c-1.3,0.6-2.8-0.9-4.1,0c0.4,0.6,2,1.4,1.7,1.9
			c-0.4,0.1-1-0.7-1.2,0c1.7,0.4,3.2,2,4.8,1.2c-0.4,0-0.6-0.2-0.7-0.5c0.6,0.3,2,0.2,1,0.7c1.6,0.8,3.7-0.3,4.6,1.4
			c-0.5,0.1-0.8-0.7-0.7,0.2c0.7-0.2,2.1,0.3,2.4-0.2c0.8-1.2,3.8,0,4.8,0c0.9,0,1.5-0.6,2.4-0.7c1.2-0.1,2.9,0.8,4.3,1
			c3.8,0.3,7.2,0,12.5,0.5c-0.5,0.8,0.6-0.1,0.5,0.7c1-1.5,6,1.7,6.7,0c0.3,0.8,1.7-0.5,2.6,0.5c-0.3,0-0.7,0-0.7,0.2
			c17.2,1.6,31.3,1.1,47.4,3.9c0.4,0,0.7,0.1,1.1,0.2c-0.3-0.1-0.7-0.1-1.1-0.2c-2.8-0.3-7,0.3-7.1-0.8c-4.8,0.3-8.7-0.8-11.8-0.2
			c16.7,1,27.4,3.6,43.9,4.6c-0.5-0.2-0.6-0.6-0.7-1.2c-0.6-0.3-0.6,1.1-1,0.2c1-1.3,2.7,0.6,3.8-0.5c-0.3-0.6-0.7,0.4-1-0.2
			c0.4-0.2,0.4-0.9,1-1c-0.4,1.1,1.4,1.2,1.4,1c-0.7-0.3,0.9-0.2,0.5-1C732.7,16.5,732.5,15.7,732,15.1z M616.8,4.1
			c1,0.6,1.9,0,2.4,1.2C618.4,4.9,616.9,5.2,616.8,4.1z M625.2,6.5c0.2-0.5,2-1,1.9,0.2C626.5,6.5,626.3,6.5,625.2,6.5z M627.3,6.7
			c2.1-0.9,7,0.9,9.1,0c1.2,1,3.5,0.6,5.5,1.2C637.4,8.1,630.2,7,627.3,6.7z M642.5,8.2c1.1-0.9,1.8,0.4,3.6,0
			c-0.2-0.2-0.5-0.2-0.5-0.7c0.8,0,0.6,1.2,1.7,1C645.7,8.9,643.8,8.1,642.5,8.2z M649.4,8.9c0.3-0.3,1.3-0.5,0-0.5
			c-0.4-0.4,2.5-0.4,2.9,0C651.1,8.8,650.9,8.5,649.4,8.9z M693.1,8.9c0.8-0.1,0.8,0.4,1.7,0.2C694.7,9.5,692.8,9.7,693.1,8.9z
			 M685.2,11.3c-0.4-0.4-1.4-0.2-2.2-0.2C682.3,10.8,685.5,10.4,685.2,11.3z M698.6,11.5h-2.9c-0.1,0-0.1,0-0.2,0
			c0,0.1,0,0.1-0.1,0.2c0-0.1,0-0.2,0.1-0.2c-0.2-0.4-2.2-0.4-1.8,0c-1.1,0.1-5.7,0.4-8.2-0.7c0.7,0.3,1.7,0.3,2.6,0.2
			c-1.4-0.9-6.1,0-6.2-0.7c-0.7,0.2-1,0.7-2.2,0.5c0-0.5,0.8-0.1,1.2-0.2c-0.5-0.5-2-0.1-2.9-0.2c0,0.2,0.1,0.2,0.2,0.2
			c0.2,0,0.3,0,0.5,0c0.3,0,0.5-0.1,0.7,0c-0.2,0-0.5,0-0.7,0c-0.2,0-0.4,0-0.5,0c-6.8,0-16.8-0.8-22.1-1.5c1-1.9,2.8-0.5,4.1-0.2
			c1,0.2,3.7-0.4,6,0c0,0-0.3,0.3-0.5,0.2c0.6,0.3,1.8,0.4,2.4,0.5c3,0.2,6.9,0.2,9.1,0.7c1.1-1,6.9,0,10.3,0.2
			c3.6,0.2,7.2,0.3,10.6,0.7C699,11.1,699.5,11.6,698.6,11.5z M699.8,12.2c0.3-0.4,0.2-0.6-0.5-0.5c0.8-0.7,2.4,0,3.4,0
			C702,12.1,700.8,12.1,699.8,12.2z M704.6,12.2c2.6-0.5,5.5,0.8,8.6,0.5C711.3,13.5,707,12.6,704.6,12.2z M728.6,15.6
			C730.2,14.8,730.7,16.4,728.6,15.6L728.6,15.6z M729.3,16.3c0.4,0.4,0.6-0.2,1.4,0C731,17.3,729.4,17,729.3,16.3z M682.8,13.9
			c-0.2,0-0.5,0-0.5,0.2c0.3,0,0.5-0.1,0.7-0.2c0.4,0.5,1.8,0.1,2.6,0.2C685.2,13.7,682.9,13.9,682.8,13.9z M628.3,9.6
			c0.3,0.1,0.1,0.3,0,0.5c0.6-0.1,1-0.4,1.4-0.7C629.3,9.5,628.3,9.1,628.3,9.6z M615.3,3.4c-0.4-0.1-1.3-0.9-1.7-0.2
			C614,3.2,615,4,615.3,3.4z"/>
	</g>
</g>
<g id="strokeT05_1_" display="none">
	<g display="inline">
		<path d="M532.3,30.5c0.5,0.1,1.1,0,1.9-0.2c-0.3-0.4-0.9-0.4-1.2-0.7c0.4,0,0.9,0.1,1-0.2c-0.7-0.2-1.2-0.6-1.7-1
			c0.4,0,0.6-0.2,0.7-0.5c-3.4-1.9-10.1-2.6-14.6-2.6c-1.6-1.5-5-0.6-7.4-1c-1.7-0.2-3.5-0.9-6-1c-3.1-0.1-5.9-0.6-9.6-1
			c-4.8-0.4-9.5,0.2-14.2-0.2c-2-0.2-4-1.6-6.2-0.2c0.1-0.4-0.9-0.8-1-0.2c0.2,0.1,0.5,0,0.5,0.2c-2.1,0-4-1.1-6.5-0.5
			c0.4,0,0.9-0.1,1,0.2c-2.2-0.6-6.1-0.2-8.4-0.5c-1.5-0.2-3.8,0.1-5.8,0.2c-6.1,0.3-15.7,1.5-20.9,1.7c-1.9,0.1-6.5-0.4-5.3,0.5
			c-1.4-0.6-1.4,0.5-2.6,0.5c0.3,0.9,0,0.9,0.2,1.9c-0.4,0.7-1.4-0.5-1.2,0.5c1.7,1.4,0.3,2.1,2.4,3.1c12.1,0.5,24.7-1.8,37.9-1.9
			c15.1-0.1,30.6,1.1,45.1,2.6c6,0.6,11.9,1.5,17.3,3.4c-0.8,0-2-0.8-2.6-0.2c2.3,0.1,3.4,1.2,5.3,1c-0.1-1.1-2.5,0.1-2.4-1.2
			c2-0.1,3.9,0.6,5.3,0.5c0.4-1.7,0-1.2,0.7-2.4C533.3,30.8,532.5,31.6,532.3,30.5z M497,26.2c-0.2,0.6-1.9,0.5-2.4-0.2
			C495.4,26,496,26.3,497,26.2z M480.5,25c0,1-3.9,0.2-5.5,0.5C476.8,24.3,478.4,25.7,480.5,25z M472.8,25.9c-1-0.3,3.1-0.4,3.6,0
			C475.5,26.5,474.2,25.6,472.8,25.9z M477.1,26.2c1.4-0.5,4-0.2,5.5,0C480.9,26.8,478.5,26,477.1,26.2z M483.1,26.4
			c-0.2-0.4,2.8-0.3,3.4,0C485.6,27.1,484.3,26.2,483.1,26.4z M485.7,22.6c0.1-0.5,1.2-0.1,1.7-0.2C487,22.8,486.4,23.2,485.7,22.6z
			 M489.3,26.4c3.9,0.6,8.3,0.7,12.5,1C497.2,27.4,492.1,27.7,489.3,26.4z M499.4,26.9c3.6,0,8.1-0.6,10.1,1
			C506.1,27.4,502.5,27.1,499.4,26.9z M457.9,29c1.1-0.2,3,0.5,3.4-0.5C460.2,28.6,457.9,28.7,457.9,29z"/>
	</g>
</g>
<g id="strokeTS14_1_" display="none">
	<g display="inline">
		<path d="M359.5,12c-0.3-1,0.6-2.1-0.2-3.4c-11.8,0.8-27,0.1-34.8,0c-0.1,0.5,0.3,0.5,0.5,0.7c-16.1,0.5-33.6,0.6-48.5,1.4
			c0.4,0,0.9-0.1,1,0.2c-5.9,0.1-10.7,0.3-14.4,0.5c-0.8,0-3-0.6-2.9,0.2c-2.3-0.9-4.3-1.1-7-0.2c0,0.2,0,0.7-0.5,1.2
			c-0.6,0-1-0.1-1.2-0.5c0.4-0.5,1-0.7,1.4-1.2c-1.3,0-2.9-0.2-3.6,0.5c-0.9,0.1-0.7-0.9-1.4-1c-2.4,1-4.6-0.3-7.4,0.2
			c-1.9-0.4-4.9-1.2-5.3-0.5c0.3,0,1.1,0.4,1.4,0.7c-0.4,0-0.6,0.2-0.7,0.5c0.6,0,1.2,0,1.2,0.5c-1.1,0.2-1.9-1-2.4,0
			c-0.3-0.8,0.4-0.6,0.5-1c-0.7,0.2-0.7-0.4-1.4-0.2c0,0.4-0.2,0.8-0.5,1c-0.7-0.3,0-0.7-0.7-1.2c-1,0.5-2.2-0.6-2.6-0.5
			c-0.3,1.1,2.3,0.4,2.4,1.4c-1.5-0.1-2.6-0.6-3.4-1.4c0.2-0.4,0.8-0.5,1-1c-2.3,0-2.4-0.1-4.1,0.2c-0.2,0.4,0.7,0.8,0,1
			c0-0.6-0.4-0.7-0.2-1.4c-2.6-0.2-5-1.6-7.4-1.2c0.1,2.3-4.1,2.9-1.7,4.8c-1.5-0.4-0.9,1.4-1.9,1.4c0.5,1.1,2,1.2,2.4,2.4
			c-0.4,0.7-0.9,0-1.4,0.7c-0.1,0.7,0.5,0.8,0.7,1.2c-1.2-0.2-0.1,0.8-1,1.2c0.6,0.2,1.1,0.3,1.2,1c-0.1,0.5-1.3,0-1.2,0.7
			c0.8,0.2-0.3,0.5-0.2,0.7c1-0.2,1.2,0.4,1.4,1c-0.4,0.3-0.6,0.3-1,0c0.1,0.8,0.6,1.3,0.7,2.2c7.2,4.5,18.9,4,29,4.6
			c0-0.4-0.1-0.9,0.2-1c6.5-0.1,15.5,1.5,19.9-0.7c3,0.5,7.9-0.1,11.5,0c-0.6-0.1,0.3-0.7,0.5-0.2c-0.1,0.7-0.9,0.6-1.2,1
			c0.8,0.1,1.4,0.3,1.9,0c-0.6,0-0.6-0.9,0-1c0,0.2-0.2,0.3-0.2,0.5c1.6,0.3,2.4-1,3.6-0.7c-0.3-0.6-0.3-1.4-1.2-0.7
			c0.2,0,0.5,0,0.5,0.2h-1c0-0.5,0.6-0.3,0.5-1c-1.1,0.8-3,0.4-3.8-0.2c1-0.8,2.1-0.3,3.6-0.7c-0.8-0.7-2.9,0.6-3.4-0.7
			c1.4-0.3,2.3,0.2,3.4-0.2c-2.9-1-6.7-0.1-8.6-0.5c6.2-1.2,12.8,0.6,16.8-1.2c-0.5,0.1,0-0.7,0.2-0.7c1,0.2-0.3,1.2,0.7,1.2
			c0.6-0.1,0.2-1.1,0.7-1.2c0.4,0.3,1.3-0.1,2.2,0.2c-0.8-1.4-3.5-0.9-5,0c0.3,0,0.7,0,0.7,0.2c-1.3,0.3-2,0.1-3.4,0
			c0.4-0.5-0.1-0.4,0-1.2c-1.7,0.4-1.8,0.4-2.9,0.7c-1.4-1-3,0.7-3.4-1c7.5,0.1,9.5,0.1,14.4-0.5v1.4c1-0.3,1.2,0.5,0.7,1
			c1.1-0.5,1.5-1.4,2.4-1c-0.5-0.8-2.4-0.2-2.9-1c1.4-1.2,5.5-0.1,5.5,0c0.5,0,0.8-0.7,1.4-0.7c2.5-0.2,5.2,0.3,7,0.7
			c0.7-0.8,1.2-0.8,2.4-0.5c-0.1,0.4-0.4,0.6-0.5,1c1-0.5,2.7,0.3,3.4,0c-0.3,0-0.3-0.7,0-0.7c0.8-0.1,1.4,0.1,1.2,1
			c0.6,0,1.1-0.1,1.4-0.5c-0.4,0-0.8,0-0.7-0.5h1.2c0.1,0.6,0.1,0.9,1,1.2c0.1-0.6,0.6-0.8,1.2-1c-0.5,0.5,0.1,0.3,0.2,0.7
			c1.1-0.2,1.6,0.2,1.9-0.5c-0.5-0.5-0.7,0.1-1.4,0c0-0.3,0.1-0.5,0.2-0.7c-0.6,0.1-1.1,0.4-1.2-0.5c1.3-0.3,0.8,0.4,1.7-0.5
			c-0.1,0.5,0.7,0.3,0.7,0.7c0,0.3-0.4,0.5,0,0.7c0-0.3,0.3-0.4,0.5-0.5c-0.6,0.6,0.6,0.3,0,1c2.2,0.9,4.6-2.1,6-1.2
			c-0.5-0.1-1.1,0.7-1.7,1.2c1.1,0.6,1.8-0.4,3.1-0.7c-0.5,1.3,0.7,0.7,1,1.7c0-1.4,2.2-0.9,2.6-1.2c-0.4,0-0.8-0.2-1-0.5
			c1.7-0.2,2.1,0,3.8-0.5c-1.8,1.1-3.6,2.2-5,1.7c0.1,2,3.7,0.5,5.3,1c-0.1-0.6,0.9-0.2,0.7-1c-0.6-0.1-1.9,0.3-2.2-0.2
			c2.6-0.4,8,0.5,11,0c0,0.4,0.6,0.2,0.5,0.7c-1.5,1.2-3.6-0.3-4.8,0.7c6.7,0.5,11.1,0.3,16.6,0.5c0.4-0.8,1.7-0.7,2.2-1.4
			c-0.8,0.2-0.4-0.5-0.2-0.7c-0.6,0.1-1.2,0.5-1.2-0.5c0.3,0,0.5-0.1,0.7-0.2c0,0.2-0.2,0.3-0.2,0.5c2.5-1,1.6-5.4,3.4-7.2
			c1-0.6,2.5-0.7,2.6-2.2C362.2,11.1,360.5,11.7,359.5,12z M239,11.5c-1-0.2-1,0-1.9-0.2C237.1,10.6,239.3,10.5,239,11.5z M239,12.7
			c0.4-0.8,0.4-1.1,0.5-1.7h0.7c0,0.8,0.5,0.5,0.7,1.4C240.4,12.7,239.5,13.2,239,12.7z M241.2,12.2c0.8-0.1,1.1,0.2,1.7,0.2
			C242.8,12.8,240.9,13,241.2,12.2z M242.1,11.8c0-0.5,1-0.1,1.4-0.2C243.6,12.2,242.5,12.1,242.1,11.8z M274.8,25.2
			c0.7-0.3,0.9-0.2,1.4,0.2C276.2,26.2,274.5,26.1,274.8,25.2z M274.5,25c-0.8,0.5-1.4,1.2-2.9,1C272.2,24.7,273.6,25.3,274.5,25z
			 M268.1,21.1c-1.2,0.1-2.1,0.4-3.1,1.2c0.9-1.5-0.7-0.2-1.2,0.2c0.1-1.5-0.9-0.6-1.7-1.2C264,21.1,266.5,20.4,268.1,21.1z
			 M261.3,21.1c0.2,0.8-0.4,0.7-0.5,1.2c-0.3,0-0.2-0.4-0.2-0.7h-0.7C260.1,21.2,260.7,21.1,261.3,21.1z M253.4,22.8
			c1.5,0.2,3.3-0.2,4.3,1C256.5,23.6,254.1,24.3,253.4,22.8z M258.7,25.4c0.8-0.6,1.2-0.3,1.9,0C260.4,25.9,259,25.7,258.7,25.4z
			 M261.3,25.4c-0.1-0.6,1.7-0.7,1.9-0.2C263.2,26.4,262.1,25.1,261.3,25.4z M258.2,23.3c3.1-0.1,5.5-0.1,11,0
			C265.9,24.1,260,24.3,258.2,23.3z M268.5,25.4c0.7,0.3-1-0.2-1.4,0.2c0.3-0.7,0.4-1.1-0.7-1c0.6-0.6,2.2-0.5,3.6-0.5
			c-0.5,0.3-1.1,0.7-1.9,0.7C268.1,25.2,268.5,25.1,268.5,25.4z M276.5,22.3c-1.3-0.6-2.4,0.2-4.6,0c-0.4-1,1.2,0,1.2-0.7
			c-0.9-0.8-1.3,1-2.4,0.7c0.6-2.6,4.9-1.5,7.2-1.4C277.7,22.1,276.6,21,276.5,22.3z M279.6,22.1c0.6,0.2-0.4,0.7-1,0.5
			c0.4-0.9-1.1,0-0.7-1C278.3,21.8,279.4,22.5,279.6,22.1z M282,13.7c-0.5-0.3,1.5-0.3,1.9-0.5C284.1,14.2,282.6,13.5,282,13.7z
			 M286.1,13.7c0.7-0.5,1.1-0.5,1.7-0.2c0.7,0-0.6-0.7,0.5-0.5c-0.1-0.3-0.6-0.2-1-0.2c0.7-1,1.1,0.3,1.9-0.2c0.1,0.5-0.7,1,0.2,1
			C288.5,14.2,287.5,13.6,286.1,13.7z M293.7,13.2C292,13.9,291.5,12.3,293.7,13.2L293.7,13.2z M294,13.4c0.6-0.7,2.4-1.1,2.4,0H294
			z M296.9,13.2c-0.4-0.3,1.4-0.5,1.7-0.2C298.3,13.9,297.6,13.1,296.9,13.2z M311.3,20.2c1.3-1,4.3-0.3,5.3-0.5
			C315.1,20.5,312.9,20,311.3,20.2z M334.1,20.6c0.4-0.5,0-0.3,0-1h1.4c-0.3,0.9-0.5,0.4,0.2,1c0.6,0.1-0.1-1.1,0.7-0.7
			c-0.3,0.3-0.3,0.6,0.2,0.7C336.1,21.4,334.8,21.1,334.1,20.6z M339.8,20.9c-0.3,0.7-0.3-0.4,0.2-0.2c-0.5-0.7-1,0.6-1.7,0.5
			c0-0.2-0.3-0.2-0.5-0.2c0-0.2,0.3-0.2,0.5-0.2c0-0.3-0.4-0.2-0.7-0.2c0.1-0.3,0.6-0.2,1-0.2v0.7c0.5,0,0.5-0.6,0.5-1.2
			c0.8-0.2,0.7,0.4,1.2,0.5C340.3,20.6,340.1,20.8,339.8,20.9z M342.2,19.9c0.5-0.5,0.9-0.1,1.4,0C343.8,20.5,342,20.8,342.2,19.9z
			 M344.6,22.6c-0.6-0.1,0.3-0.4,0-1c0.3,0.7,1.9-0.8,1.9,0.5C345.7,22.1,344.9,22,344.6,22.6z M354.2,23.8c-0.7-0.3-2.4,0-4.1,0
			c-0.2,1.1,0.9-0.5,0.7,0.7c-1.7,0.2-4-0.3-5.3,0.2c1.5,0.6,3.3,0,4.3,0.7c-0.2,1.4-3.7,0.3-2.9,1c-1,0.3-1.3-0.2-1.9,0.2
			c3.4,0,6.8,1.2,9.1-1c-0.4-0.3-0.4-0.9-0.7-1.2C354.2,24.8,354.7,23.8,354.2,23.8z M338.4,22.6c-0.7-0.1,0.4-0.4,0.2-0.7
			c-0.9,0.2-0.9,0-1.4,0.2C336.9,22.8,338.2,23.1,338.4,22.6z M324.2,22.3c0.7,0.1,1.4-1.1,1.2,0.2c0.6-0.4,1.7-0.4,2.2-1h-3.1
			C324.5,21.9,324.4,22.1,324.2,22.3z M321.8,21.8h0.5c-0.1,0.3-0.4,0.4-0.5,0.7c0.6,0,0.8-0.4,1.2-0.7
			C322.9,21.7,321.9,21.3,321.8,21.8z M319.7,22.3c0.8,0,1.8,0.2,1.7-0.7C320.5,21.6,320.1,21.9,319.7,22.3z M312,24.2
			c-0.2,0.1,0.2,0.2,0.2,0.2C313.2,25.4,315.4,22.5,312,24.2z M305.3,22.6c2.7,0.1,5.5,0,6.7-0.7c-1-0.2-3.6-0.5-4.8,0.2
			c-0.2-0.5,0-1.7-1-1c0.4,0.5,0.6-0.3,0.7,0.2c-0.3,0-0.3,0.4-0.2,0.7C306.2,21.5,305.6,22.2,305.3,22.6z M306.7,23.5
			c-0.2-0.5,1.3,0.1,1.9-0.2c0.3-0.1-1.7-0.6-1.7-0.2c0,0.4-0.7,0.1-0.7,0.5c0.3,0.1,0.4,0.3,0.5,0.5c-0.2,0.5-1.5-0.1-1.7,0.5
			c1.5,0.9,2.8-0.5,5,0C309.1,23.2,307.1,24.6,306.7,23.5z M303.6,20.9c0.7,0,1.3-0.1,1.7-0.5C304.7,20.6,303.4,20,303.6,20.9z
			 M301.7,23.3c-0.7,0.1-1.9-0.3-1.9,0.5C300.4,24.4,301.1,23.5,301.7,23.3z M301.4,24.5c0.1,0.6-1.1-0.6-1.2,0.2
			c0.8-0.3,1.1,1.1,1.7,0.2C301.6,25,301.7,24.5,301.4,24.5z M298.3,21.1c0.5,0.8-0.5,0.9-1,0.7c0-0.5,0.8-0.2,0.7-0.7
			c-1,0.3-1.9-0.8-2.2,0.2c1-0.1,0.6,0.8,0.2,1.2c-0.1,0-0.3,0-0.2,0.2c1.3-0.6,3.1,0.1,3.6-1.7C298.7,21,298.8,21.6,298.3,21.1z
			 M296.6,24c-0.2-0.6,1.6-0.6,2.2-0.2c-0.2,0-0.5,0-0.5,0.2c0.6,0,1.2,0,1.2-0.5C298.9,23.2,295.8,22.9,296.6,24z M295.7,23.5
			c-0.3,0.8,0.5,1.7,1,1C295.3,24.7,296.8,23.5,295.7,23.5z M293.7,24.2c-0.3,0.3-0.1,0.7,0.2,1c-0.1-1.1,1.2,0.4,1.2-0.7
			C294.5,24.7,294.3,24.2,293.7,24.2z M290.6,22.3c0-0.1,0-0.3-0.2-0.2c0.1,0.5-1.3,0.6-0.5,1c0.3-0.5,1.5-0.1,2.2-0.2
			C292.3,21.6,290.5,22.9,290.6,22.3z M288.7,23.3c-1.4,0.2-3.7,0.1-6.2,0.7c0.3,0,0.3,0.4,0.2,0.7c-0.3,0-0.7,0-0.7,0.2
			c2.7-0.4,3.8,1,5.8,0c-0.9-0.4-2,0.4-2.6-1c1.2,0.3,2.4-0.5,3.6,0C288.6,23.6,289.1,23.4,288.7,23.3z M282,27.4c1-0.2,1,0,2.2,0
			C284.2,26.1,282.2,26.8,282,27.4z M280.8,23.8c-0.2,1,1.4,0.7,1.4,0C281.5,24,281.5,24,280.8,23.8z M232.8,9.6h-1.4v0.5
			C231.8,9.9,233,10.5,232.8,9.6z"/>
	</g>
</g>
<g id="strokeTS04_1_" display="none">
	<g display="inline">
		<path d="M146.1,36.5c-0.1,0-0.3-0.2,0-0.2c-0.3-1.1-1.8-1-2.9-0.7c-0.6-0.6-0.7-2.1,0.2-2.4c0.8,0,1.3,0.5,1.7-0.2
			c-0.6-0.3,1.1-0.2,0.5-1.2c-0.5-0.6-1.8-0.5-2.2-1.2c-0.3-1.4,0.1-2.5-0.7-3.6c-1.6,1-2.6-1-4.1,0.5c-0.7-0.9-2.7-0.4-4.1-0.5
			c-4-0.2-8.5-1.1-12.5-1.2c-17.7-0.3-37,0.4-52.3,0c0.1,0,0.3,0.2,0,0.2c-0.9-0.5-2.4,0.5-3.1-0.7c-0.6,1.3-2,0.3-3.4,0.7
			c0.2-1.9-5.2,0.7-6-1c-1,1-7-0.1-8.9,0.5c-0.7-0.1-0.9-1.9-1.4-1.4c0.6,1.7-3.2,1.8-3.1,0.2c-0.2,0.8-0.6,0.3-1.2,0.2
			c0.1,0.9-0.4,1.2-1.2,1.2c-0.3-0.5-0.6-1-1.2-1.2c-0.2,0.5,0.7,0.8,0,1c-1.7,0-2-1-2.9-0.7c0.1-1.5,1.8,0.1,2.4-1
			c1,1.5,2.8,0.7,4.3,0c-1-0.4-1.2,0.1-2.6,0.2c-0.6-0.3,0.5-0.8-0.5-0.7c-2.4,0.6-4-0.1-6.5,0c0.2,1.1,2.2,0.3,2.9,1
			c-1.1,0-1.8,0.2-1.4,1c-0.8,0.4-1.2-0.2-2.4,0c0.7-0.4-0.4-1.3-0.5-0.7c0.6,0,0.1,0.8-0.2,0.7c-0.5,0.1-1.9-1.3-2.6-0.2
			c0.1-1.1-2-1.4-2.4-0.7c0.4,0,1.2-0.2,1,0.5c-4.8-0.5-10.4-1.3-15.8-2.2c0.1,0.7-0.9,0.4-1,1c-0.3,0.8,0.8,0.2,0.5,1
			c-3.9,0.2,0.6,0.2,1,1.9c-0.3,0-0.1,0.3,0,0.5c-1.1,0.3-1.8-0.2-1,0.7c-1,0.1-1.1-0.4-1.9,0c-0.1,1.6,3,1.9,1.4,3.4
			c0.4,0.3,0.4,0.9,0.7,1.2c-1,1.1-0.4,2.4-1.4,3.6c1.3,0.5,1.7,2.6,2.6,3.4c2.8,2.2,11,2.5,17.8,2.9c12.8,0.7,20.3,0.2,31,0.2
			c0.2,0.6-1.1-0.2-1,0.5c10.5,0.2,22.3,0.5,33.4,0C88.2,42,82.4,43,75.8,42.2c6.8-0.1,14.3-0.3,23.3-0.4c-0.2,0-0.4,0-0.5-0.1
			c-1.3-0.2-4.3-0.2-6.5,0c-5.9,0.4-13.2,0.2-19,0c-0.9,0-2-0.5-2.9-0.5c-1.2,0-3,1.3-4.1-0.5c0.5,0.6,1.5,0,3.1,0
			c4.4-0.1,10,0.5,14.6,0.5c11.5,0,21.4-1,33.1-0.2c0.1-0.4-0.2-0.4-0.5-0.5c0.6-1.3,0.6,0.6,1.2,0.7c0.9-0.4-0.6-0.4-0.2-1
			c1.2,0,2.2,0.6,3.6,1c-3.5,0.7-9.9-0.1-13,0c-1.3-0.1-3.7,0.3-6,0.5c0.2,0,0.4,0,0.7,0c6-0.1,15.4,0.3,22.6,0.7
			c1,0.1,4.3,0.4,2.9,1c0.4,0,0.9-0.1,1,0.2c2,0.1,3.9,0.1,5.8,0.2c3.7,0.3,7.6,1.9,10.3,0.5c-0.8-0.2,0-2.7,0.2-3.4
			c-0.8-0.9-0.3-2.3,0-3.4c-0.9,0-2.9,1.3-3.1-0.2C143.7,37.7,145.1,37.1,146.1,36.5z M44.9,35c0.1-0.3,0.4-0.6,0.5-0.2
			C48,34.7,46.9,35.2,44.9,35z M78.9,28.6c-2.3,0.8-9.3,0.7-12.5-0.2C69.6,28.7,75,27.8,78.9,28.6z M63.8,28.3
			c-3.4,1-9.5,0.4-13.4,0.2C53.6,27.8,58.2,28.6,63.8,28.3z M58.5,32.2c1.7-0.5,3.8-0.1,4.8,0C61.3,33,60.5,32.2,58.5,32.2z
			 M62.9,33.8c-0.9-0.1-1.9-0.2-2.6-0.5C61.3,33.4,62.7,32.1,62.9,33.8z M61.7,41c1.2-0.5,2.5,0.1,3.8-0.2
			C65.2,41.7,62.4,41.3,61.7,41z M75.1,42.2c-2.9,0.4-7.4,0.4-10.3,0C68.7,41.7,72.1,42.3,75.1,42.2z M61.9,35.8
			c-1.6-0.6-5.2,0.1-6.7-1c1.2-0.1,3.3,0.8,3.8-0.5c2.4,0.9,5.9-1.1,8.4,0.7C66.3,35.9,61.4,35.5,61.9,35.8z M67.7,35.5
			c0.9-1.1,2.3-1.3,3.8-0.7c-0.1-0.2-0.2-0.4-0.5-0.5c0.2,0,3.3,0.2,4.1,0.7C72.6,35.8,71,35.2,67.7,35.5z M71.7,33.6
			c-0.5-1.9-5.1,1.2-6.5-1c1.1,0,0.9,0.2,1.9,0c0-0.2-0.3-0.2-0.5-0.2c0.4-0.9,0.7,0.4,1.2,0.2c-0.4-0.9,1.9-0.1,2.4-0.7
			c0.9,0.7-1.3,0.4-1.9,0.5c1,0,5.1,0.6,6.9,0.7c1.1,0.1,4.2-0.4,1.9-0.7c2.4-0.6,4.2-0.4,6.5-0.5c-0.1,0.2-0.2,0.4-0.2,0.7
			c1.2-0.4,1.1-0.8,2.4-0.7c-0.6,0.8-2,0.9-2.9,1.4c-0.1-0.5,0.2-0.6,0.2-1h-1.2c0.1,0.9,0.8-0.3,0.7,0.7c-0.2,0.6-1.9,0.3-2.9,0.7
			c0-0.8,1.4-0.2,1.2-1.2c-0.2-0.5-1.3-0.1-1.9-0.2c0.5,0.4,1.1,0.4,1.7,0.2C78.3,34.3,74.6,33.3,71.7,33.6z M77,34.8
			c2.7-0.4,5.2-0.1,7.7,0.2C82.6,35.6,78.6,36.1,77,34.8z M84.9,35.3c0.3-1,1.1,0.1,2.2-0.2C86.8,35.7,85.6,35.5,84.9,35.3z
			 M88.1,32.2c1.9-0.6,3.6,0,5.5-0.2c-0.2,0.1-1.4,1.1-2.4,1.2c0-0.9,0.4,0.1,0.7-0.5C91.1,32,88.8,32.8,88.1,32.2z M95,36
			c-1.2-0.9-4.1-2-5.3,0c-0.2-0.4-0.7-0.6-1.4-0.5c0.1-1.5,2.9-0.4,3.4-1.7c1.5,0.9,2.2,0,4.1,0.5C96.2,35.6,94.7,34.9,95,36z
			 M96.2,35c1.3-1.5,3.4,0.2,5-1.2c1.3,0.2,1.9,0.7,2.6,1C101.6,35.6,98.6,34.9,96.2,35z M105.6,32.2c0,0.2,0.3,0.2,0.5,0.2
			c-1.2,0.3-4.4,0.4-5-0.7c2.1,0.6,4.2-0.1,6,0.2C107,32.5,106,32,105.6,32.2z M107,35.3c1.2-0.9,5.5-1,6.7-0.7
			C112.2,35.9,109.7,34.8,107,35.3z M109.4,32.6c-0.1,0.3-0.6,0.2-1,0.2c0-0.4,0.4-0.6,0-0.7c-0.1,0.2-0.2,0.4-0.2,0.7
			c-0.5-0.1-0.5-0.7-1-0.7c0.1-0.6,1-0.1,1.2,0c0.4-0.4,0.6,0,1.4-0.2C110.7,32.1,107.8,32.4,109.4,32.6z M118.1,34.8
			c0-0.6,0.8-0.5,1.4-0.5C119.5,35.1,118.3,35,118.1,34.8z M118.8,35.8c0.6,0,1.2,0,1.4,0.2C120.2,36.4,118.4,36.5,118.8,35.8z
			 M119.7,34.6h2.4C121.9,35.3,119.7,35.6,119.7,34.6z M125,41c0-0.5,1-0.1,1.4-0.2C126.5,41.5,125.3,41.4,125,41z M123.1,35
			c0.9-0.9,2,0.3,3.6,0C126.9,35.4,123.7,35.4,123.1,35z M123.3,32.6c0.3-0.6,1.5,0,1.9,0C124.6,33.2,123.7,32.7,123.3,32.6z
			 M105.8,29c-1.5,0.1-3.1-0.5-4.1-0.5c-1.2,0.1-3,1.8-4.1-0.2c-6.9,0.6-9.2,0.6-18.5,0.5c1.4-1,2.4-0.3,4.1-0.2
			c0-0.2-0.1-0.2-0.2-0.2c13-0.1,30.2-0.7,45.4,0.7C122.2,29.3,112.6,28.8,105.8,29z M144.9,25c-1.4-0.2-2.4,0.5-3.6,0.5
			C142.4,25.8,144.5,25.9,144.9,25z M102.2,41.8c-1,0-2,0-3,0C100,41.9,101.1,41.9,102.2,41.8z M72.7,24.2c1-0.8-1.2-1-1.4-0.5
			C71.9,24.3,72.4,23.5,72.7,24.2z M60.2,24.7c-0.1,0.1-1.2,0.4-0.5,0.5c0.4-0.1,1.1-0.9,0.5-1.2c0,0.5-0.8,0.2-0.7,0.7
			C59.9,24.8,60.1,24.4,60.2,24.7z M53.5,24c-1.1,0.5-1.5,0.1-1.9-0.2c0,0.2-0.2,0.3-0.5,0.2C50.9,24.8,53.7,24.8,53.5,24z
			 M46.1,24.5c-0.5-0.1,0.4-0.6-0.5-0.7c0,0.3,0,0.7-0.2,0.7c0-0.2,0-0.5-0.2-0.5c0,0.2,0,0.3-0.2,0.2v0.5c0.4,0,0.8,0,1-0.2
			C45.8,24.6,46,24.8,46.1,24.5z M28.5,23.3c0.8-0.2,0.9,0.2,1.2,0.5c-0.4-0.9,0.8-0.1,0.7-0.7C30,23.1,27.9,22.9,28.5,23.3z
			 M24,23.8c1,0,2.9,0.8,3.4-0.2c-1.1-0.1-0.5-0.4,0-0.7c-0.6,0.1-1.7-0.3-1.9,0.2c0.3,0,0.7,0,0.7,0.2C25.4,23.3,23.7,23.5,24,23.8
			z"/>
	</g>
</g>
</svg>
