<?xml version="1.0" encoding="utf-8"?>
<!-- Generator: Adobe Illustrator 14.0.0, SVG Export Plug-In  -->
<!DOCTYPE svg PUBLIC "-//W3C//DTD SVG 1.1//EN" "http://www.w3.org/Graphics/SVG/1.1/DTD/svg11.dtd" [
	<!ENTITY ns_flows "http://ns.adobe.com/Flows/1.0/">
]>
<svg version="1.1"
	 xmlns="http://www.w3.org/2000/svg" xmlns:xlink="http://www.w3.org/1999/xlink" xmlns:a="http://ns.adobe.com/AdobeSVGViewerExtensions/3.0/"
	 x="0px" y="0px" width="139px" height="24px" viewBox="20 15.1 139 24" enable-background="new 20 15.1 139 24"
	 xml:fpace="preserve">
<defs>
</defs>
<g id="strokeTL03_1_" display="none">
	<g display="inline">
		<path fill-rule="evenodd" clip-rule="evenodd" d="M455.5,29.3c0.3-1.1,2.8,0.1,3.1-1c-1.4,0.3-4-0.6-4.6,0.5
			C455,28.3,455,29,455.5,29.3z M591.9,29.6c-0.1,0-0.3,0.4,0.2,0.5c3.4,0.5,6.8-0.2,10.1-0.2c1,0.4,4.1,1.2,5.8-0.2
			c-1.1,0.5-2.2,0.2-3.1,0c-1.7-0.3-4.6,0.1-8.4,0c-3.9-0.1-11.2-0.8-11,0.2c-0.7-0.6-3.1-1.3-3.6,0
			C585.5,30.5,588.8,29.5,591.9,29.6z M332.2,30.3c1.2-0.1,1.6-0.1,2.4-1c-0.8,0.2-2.2-0.3-2.6,0.2
			C332.4,29.7,332.5,29.9,332.2,30.3z M452.2,29.8c0.2,0.4,2,0.4,2.2,0C454,29.5,453.1,30,452.2,29.8z M396.5,30.5
			c1.3,0.2,3.6-0.1,5.5,0C401.2,29.3,398.1,30,396.5,30.5z M436.1,30.3C439.5,30.7,437,29.4,436.1,30.3L436.1,30.3z M446.4,30.1
			c0.9,0.1,2.6,0.5,3.1-0.2C448.6,30,447,29.5,446.4,30.1z M484.6,30.1c1.1-0.2,1.7,0.6,2.2-0.2C486.2,29.9,484,29.6,484.6,30.1z
			 M512.2,30.3c4.2,0.1,1.6-0.3,0.5-0.5C512.7,30.1,512.2,30,512.2,30.3z M382.1,30.5c0.9,0.6,1.6-0.3,2.2,0.2
			C384.2,29.7,382.7,30.3,382.1,30.5z M388.8,30.1c-0.9,0.4-2.6,0-3.4,0.5C386.1,30.8,388.9,31.3,388.8,30.1z M406.8,30.5
			c1.8-0.2,4.2,0.3,5.5-0.2C410.9,29.8,408,29.9,406.8,30.5z M415.5,30.3c-0.2,0.4,3.1,0.4,3.4-0.2
			C417.3,30.2,416.6,29.9,415.5,30.3z M618.5,30.1c-1.1,0-2.4-0.1-2.9,0.5C616.8,30.5,618,31.1,618.5,30.1z M627.9,30.7
			c-1.1,0.2-2-0.8-2.2,0.1c-1.9-0.8-5.1-1.1-7-0.2C620.5,30.5,624.7,31.6,627.9,30.7z M285.4,30.3c-1,0.5-1.8-0.3-2.6,0.5
			C283.5,30.5,285.4,31.3,285.4,30.3z M630.5,31.3c-0.1-0.9-1.6-0.9-1.7,0C629.6,30.9,629.5,31.3,630.5,31.3z M637.9,31.5
			c-0.1,0-0.3,0-0.2-0.2c-0.2,0-0.3-0.2-0.5-0.2c0.3,0.5-5.2-1-4.8,0.5C633.4,30.9,636.1,32.4,637.9,31.5z M653.3,32
			c-5.6-0.2-10-0.9-15.6-0.7c3.6,1.2,7.6,0.7,11.3,1C650.4,32.3,652.2,33.2,653.3,32z M266.9,32.5c1,0.2,2.4-0.3,1.7-1
			c-0.5,0.9-1.3,0.1-2.2,0C266.1,32.3,267.2,31.7,266.9,32.5z M368.4,42.8c-1,0.4-1.3,0.4-2.2,0.5c-0.6,0.1,0.3,0.6,0.5,0.7
			C367.8,42.3,368.3,44.8,368.4,42.8z M355.2,31.9c-0.1-0.1-0.4-0.1-0.7-0.1C354.7,31.8,354.9,31.8,355.2,31.9z M700.3,50.2
			c-0.5-0.8-0.5,0.7-0.7,0c0.5-1.9,1-3.3,0.7-5.5c0.6-0.1,0.8-0.6,1.4-0.7c-0.9-1.6-0.4-2.9-1.9-4.3c1.1-0.8-0.7-1.4,0.2-2.6
			c-1-0.2-1.9-0.5-2.6-1c1.1,0.2,1.3-0.4,1.4-1.2c-1.3-0.8-2.6,0.1-4.1,0.2c-4.4,0.3-12.5-1.5-19.2-1.9c-3.8-0.2-7.4-0.1-10.6-0.2
			c-3.1-0.2-8.7-2.1-12-0.2c15.7,0.5,27.5,1.4,41.8,3.6c-0.6,0.4-0.3,0.4,0,1c-26.9-1.9-59.2-4.3-88.6-4.8c0.7,0,1.5,0.2,1,0.7
			c-1,0.3-1.1,0.2-1.2-1c-3.5-0.2-4.4,0.2-7.4-0.2c-0.1,1,1.4,0.4,1.2,1.4c-0.7-0.2-2.1,0.3-2.4-0.2c0.8-0.4,1.3,0.3,1.9-0.2
			c-0.4-0.3-1.2,0.2-1.7-0.5c0.4,0.1,0.6-0.3,0.2-0.5c-4.8-0.1-10.4,0.2-14.9-0.2c-0.3,0.2-0.1,0.9-0.7,0.7c0.2-0.8-3.5-0.8-3.8,0
			c-0.4-0.1,0-0.3,0-0.7c-0.9,0.5-1.5-0.1-2.6,0c0,0.4-0.5,1.3-1.9,1c-0.5-1.6-4.7-0.9-6.2-0.7c0.8,0,2,0.8,1.7,1.2
			c-0.8-0.4-2.2,0.3-3.1-0.2c0.5-0.1,0.5-0.4,0.2-0.7c0.3,0.2,1.1,0.9,1.4,0.2c-0.5-0.3-1,0.1-0.5-0.7c-11.1,0.4-16.8-0.9-24.5,0.5
			c-0.8-1.1-5.4-0.7-7.3-0.5c0.5,0,1,0.4,0.5,0.5c-1.3,0-2.1-1-3.4-1.2c-1.4-0.2-3.1,1.2-4.8,0c0.1,1.3-2.1,0.1-1.9,1.4
			c1,0.3,1.9-0.7,2.2,0.2h-2.9c0.5-0.6,0.5-0.6,0-1.2c-3.5,0-4.8-1.2-7.2,0.5c1-1.6-5,0.1-3.1-1.2c-4.3,1.2-6.8-0.6-10.3,0.5
			c-1.5-0.7-5.5,0.4-7.4-0.2c-0.7,0.6-2.3-0.4-3.6,0c0.3,0,0.6,0.1,0.2,0.2c-4.2-0.3-6.9,0.5-10.1-0.7c-2.2,1.5-4.8,0.1-6.5,0.5
			c0-0.3,0.4-0.2,0.5-0.5c-1.2,0.4-1.8-0.1-2.4,0.7c-0.6,0-0.3-1-1.2-0.7c-2.6,0.8-6.6,0.7-9.6,0.2c0.3,0,0.7,0,0.7-0.2
			c-0.6,0.1-1.7-0.3-1.9,0.2c0.4,0,0.9-0.1,1,0.2c-1.8,1-2.4-1.1-4.1,0c0.8-0.7-1.2-0.6-1.7-0.5c-3.5,0.9-7.5,0.6-10.1,0.5
			c0-0.4,0.7-0.1,0.7-0.5c-3.1-0.2-4,0.7-6,0.7c-0.1-0.3,0.9-0.6,0.2-0.7c-0.1,0.5-0.6,0.5-1,0.7c0.6-1.1-0.8-0.6-0.5,0
			c-0.6-0.1-0.8-0.6-1.4-0.7c-0.2,1.4-1,0.3-1.7,0.2c-1.2,1.5-7.3-0.5-6,0.5c-2.4,0.2-3.6,0-4.6-0.2c1,0.7-3.2,0.6-3.6-0.2
			c0.1,0.5-0.1,0.9-0.5,1c-2.3-0.6-3.8-0.6-5.8-0.2c0-0.3,0.4-0.2,0.5-0.5c-1,0.6-2.9-0.1-4.3,0.2c0.4,0,0.6,0.2,0.7,0.5
			c-3-1.4-5.8,0.6-9.1-0.5c-4.6,0.9-12.5,0.3-18.2,0.5c-0.7,0,0.6-0.7-0.5-0.5c-0.5,0.1-1.6-0.3-1.7,0.2c0.5,0.2,1.9-0.4,1.7,0.5
			c-0.7-0.9-3.6,0.7-2.6-0.7c-4.6,1.3-10,0.3-12.7,0.7c0-0.3,0.3-0.3,0.2-0.7c-1,1-4.6-0.1-3.8,0.7c-2.4-0.7-4.7,0.8-6-0.5
			c-3.8,0.2-5.5,0.7-7.5,0.4c0,0,0.1,0.1,0.1,0.1c-2.9,0.1-4.3-0.2-6.2,0.2c0-0.3,0.4-0.5,0-0.7c-1.9,0.9-6.1,0-6.7,0
			c-1.4-0.1-4,1.3-6.7,0c-1,0.1-0.1,0.7-1,0.7c-1.1,0.3-0.6-1-1.7-0.7c-3.6,0.9-10.3,0.4-16.5,0.2c0.2,0,0.4,0.1,0.1,0.2
			c-4.3-0.4-10.5,0.4-14.4-0.4c0.2,0.1,0.3,0.2,0.2,0.4c-2.8-0.2-6.9-0.4-9.6,0.2c0.5,0.4-0.3,0.7-0.2,1c-0.7-0.2,0.1-1,0-1.4
			c-2.9-0.2-7.4,0.7-9.4-0.5c-2.6,1.2-8.8,0.1-13,0.5c0.4,0.9-0.6,0.5-0.7,1c1,0.2,2.6-0.3,3.1,0.2c-2.5,0.2-3.7,0.1-6,0
			c-0.8-1.8-3.4-1-4.3-2.2c1.9-0.2,5.2-0.2,5.5-1.2c-1.5-0.6-5.1,0.1-7-0.7c0.6-0.1,2.9,0.2,2.4-0.2c-5.2-0.4-13.2-1.3-17.5,0
			c0.6,0.2,2.1-0.5,1.9,0.5c-2.2-0.1-5.6,0.7-7.7,0.2c-0.7,0,0.6,0.7-0.5,0.5c-1.3-0.1-2.4,0-3.4,0.2c-1.5-0.2-3.1,0.3-0.7,0.2
			c3.5,0.3,8.3-0.6,11,0.5h-9.1c-0.4,0.1,0.1,0.4-0.2,0.5c-9.5-0.2-18.8,0.4-26.4,0c-3.7,0.4-13.9-0.6-18.2,0
			c-0.7-0.4-0.7-0.2-1.4-0.5c-6.2,0.6-14.7,0.5-22.6,1c-6.1,0.4-12.5,0-18.7,0.2c-42,1.7-88.9,3.2-133.9,5.3
			C10.8,37.5,5.7,37.3,1,38.5c-0.1,0.2,0,0.5-0.2,0.5c0.5,2.5-0.1,3.3,0.7,5c-0.7,0.7-0.7,1.3-1.4,1.7c-0.2,1.1,1.4,2.8,0.7,4.3
			c0.3,0.6,1,0.9,1.2,1.7c9.4,1.6,18.9-0.5,28.6-0.5c13.3,0,26.8-1.1,40.3-1.7c12-0.5,24.1-1.4,36-1.2c14.7,0.2,30.7-1.4,45.1-1.9
			c1.5-0.1,3.5-0.2,5.3-0.2c0.4,0,0.8,0.5,1.2,0.5c1.1-0.1,1.9-0.6,2.9-0.5c5.7,0.5,13.6-0.8,21.1-0.5c5.3,0.2,11.1,0,16.3,0
			c4.4,0,8.2,0.6,12,0.5c8.3-0.2,17.6-0.2,26.6-0.2c6.6,0,13.4-0.3,19.7,0c8.7,0.4,17,0.4,25,0.5c4.3,0.1,7.6,0.1,10.8,0.2
			c0.5-0.1,0.7-0.6,1.4-0.5c-0.1,0.3-0.4,0.5,0.2,0.5c24.4-0.2,39.8,0.4,57.4-0.2c1.9,1.1,4.5-0.4,7.2,0c0,0.2-0.2,0.3-0.2,0.5
			c6.2-0.1,16.9-0.6,24.2-0.2c0.6,0.1,0.3-0.7,0.7-0.7c0.6,0.4-0.5,0.8,0.5,0.7c2,0,5.3-0.1,6.2,0c3.2,0.4,7.6-0.5,9.8-0.7
			c0.5-0.1,0.6,0.3,1,0.7c1-1.6,1.7-0.2,2.2,0c0.1,0,3.5,0.1,5.3-0.2c0.5-0.1,1.1-0.7,1.7-0.7c1.9,0,3.4,1.6,5,0.2
			c0.3,0.5,0,0.2,0.5,0.5c13-0.1,26.8-0.7,41.8-0.7c17.9,0,30.9,1,47.8-0.2c-0.1,0.6,3,0.7,4.6,0.5c3.1-0.5,11.5,1.5,15.4-0.2
			c0.9,1.5,3.1,0.1,4.8,0.7c0.4,0,0.1-0.7,0.5-0.7c-0.2,1.1,0.4,0.3,0.5,0.7c4.8-0.1,11,0.2,15.6-0.2c-0.1,0-0.2,0.1-0.2,0.2
			c12.4,0.3,25.8,0.4,37.7-0.2c5.1,1.5,11.5,0.5,16.8,0.5c5.9,0,13,1.4,19,0.5c25,2.9,53.7,1.8,77.5,6.5c0.8,0.1,0.6-0.6,1.2-0.7
			c0.2,0.4,0.8,0.5,1.4,0.5C700.9,52.2,700,51.1,700.3,50.2z M156.7,32.9c-0.4,0.8-1.3,0.1-2.2,0.5
			C154.5,32.4,156.1,33.1,156.7,32.9z M140.4,33.4c0.7-0.3,1.2,0.7,1.4,0C143,33.9,140,34.4,140.4,33.4z M147.6,33.7
			c0.1-0.3,0.5-0.2,0.5-0.5h2.2C149.7,33.6,148.3,33.3,147.6,33.7z M150.7,33.4c-0.6-0.4,1.6-0.1,1.9-0.5
			C152.8,33.9,151.3,33.2,150.7,33.4z M156,37.3c-0.9,0-2.3,0-3.1,0C153,36.5,160.1,37,156,37.3z M159.4,44c-0.4-0.1-0.6-0.4-1-0.5
			c0.1-0.3,0.5-0.2,0.5-0.5c0.2,0.1,0.4,0.3,0.7,0.2C159.5,43.4,159.4,43.6,159.4,44z M157.5,32.7c0.4,0.5,2.2-0.2,2.2,0.7
			C159,33.1,157.5,33.6,157.5,32.7z M161.5,33.2c0.6-0.7,2.8,0.2,3.4-0.5c0.5,0.1,1.4-0.3,1.2,0.5C165.1,33,163.2,33.3,161.5,33.2z
			 M163.7,37c0.3-0.5,1.7-0.1,2.4-0.2C165.8,37.3,164.4,36.9,163.7,37z M164.9,40.4c0.5-0.3,1,0,1.9-0.2
			C166.8,40.9,165.3,40.7,164.9,40.4z M174.3,43.5c-0.3-0.1-0.2-0.5-0.5-0.5c0.4-1.1,1.3,0.2,2.2,0
			C175.7,43.9,174.8,42.8,174.3,43.5z M175.7,32.5c0.6-0.5,2-0.2,2.6,0C178.1,32.9,175.2,32.8,175.7,32.5z M179.1,32.2
			c1.1,0.1,1.2,0.2,2.2,0C181.4,33,178.9,33,179.1,32.2z M183.1,36.3h1.7c-1.5,0.4-3.4,0.6-5,0.2C180.4,36,182.1,36.4,183.1,36.3z
			 M181.7,40.1c0.5-0.2,2.3-1.1,2.4,0H181.7z M184.6,43.7c-0.8-0.6-1.2-0.3-1.7-1.2C184.1,42.1,185.1,42.7,184.6,43.7z M184.8,43
			v-0.7c1.2,0.3,1.8,0,3.4,0.2C187.4,43.5,185.6,42.8,184.8,43z M186,39.9c0.3-0.5,1.7-0.1,2.4-0.2C187.9,40.2,186.8,40.2,186,39.9z
			 M187.5,36.5c-0.7-0.9,1.3,0.2,1.7-0.5C190,37.1,187.4,36.1,187.5,36.5z M192.7,36.1c0.8-0.1,1.3,0.1,1.9,0.2
			C194.5,36.6,192.5,36.9,192.7,36.1z M193.2,42.5c0.6-0.5,1.1,0.2,1.9-0.2C194.8,43.8,193.9,43.3,193.2,42.5z M251.1,36.8
			c-0.8-0.4-1.5,0-2.9-0.2C248.6,36.2,251.1,35.9,251.1,36.8z M248.9,39.9c0.1-0.4-0.2-0.5-0.5-0.5c0.6-0.4,0.9,0,1.9-0.2
			c-0.6,0.5-1.9,1.3-2.9,0.7C247.8,39.2,248.3,40.2,248.9,39.9z M216.3,32.5c-0.2,0.4-0.8,0.5-1.4,0.5
			C214.6,32.1,215.8,32.6,216.3,32.5z M214.6,32.9c-0.9,0.2-1.1-0.3-1.9-0.2C212.8,32.4,214.8,32.1,214.6,32.9z M198,36.5
			c0.7-0.9,1.6-0.1,2.9-0.2C200.4,36.8,198.9,36.4,198,36.5z M204.5,38c1.3-0.8,2.4-0.6,3.4-0.2C207.2,38.3,205.5,37.8,204.5,38z
			 M202.6,36.8c1.7-1.3,3-0.4,5.8-0.7C206.9,37.4,204.1,36.4,202.6,36.8z M198.7,32.7c3.9-1.1,7.7,0.1,11.3-0.2
			C206.4,33,202.3,32.6,198.7,32.7z M210.3,43.3c0.3-0.3,0.2-0.5-0.2-0.5c0.6-1,2.5,0.2,3.8,0C213.3,43.6,211.5,43.1,210.3,43.3z
			 M213.9,40.1c0.2-0.4,2.2-0.4,2.9-0.2C216.3,40.4,214.7,40,213.9,40.1z M212.9,36.5c1.9-0.5,4-0.2,5.8,0
			C216.3,36.8,215.6,36.8,212.9,36.5z M217.5,32.2c0.4,0.4,1.4,0.2,2.2,0.2C219.4,33,217.3,33.4,217.5,32.2z M219.9,32.7
			c0-0.6,0.8-0.5,1.4-0.5C221.5,33.1,220.4,32.5,219.9,32.7z M221.5,43c0.1-0.3,0.5-0.2,0.5-0.5c1-0.1,1,0.8,2.2,0.5
			C223.3,44.2,222.6,42.8,221.5,43z M221.8,39.9c0-0.9,1.5-0.3,1.9-0.7C223.7,39.9,222.4,40.5,221.8,39.9z M220.8,36.5
			c-1.1-0.6,3,0.2,3.4-0.5c0.6-0.1,0.9,0,1.2,0.2C224.3,36.8,222.3,36.4,220.8,36.5z M227.5,43.3c-1.1-0.3-1.5,0.4-1.7-0.7
			c0.7,0.3,1.2,0.3,1.9,0C227.7,42.7,227.5,42.9,227.5,43.3z M233.8,44.9c-0.7-0.2,0.2-0.5,0-1c0.6,0.2,0.5,0.1,1.4,0.2
			C235.3,45,233.9,44.3,233.8,44.9z M230.4,42.8c2.8-0.1,5.9-0.7,8.4,0.2C236.4,43.4,232.9,43.8,230.4,42.8z M241.2,36.1
			c0,0.2,0.3,0.2,0.5,0.2C241,36.6,236.6,36.5,241.2,36.1z M247.9,43.5c-0.2,1.1,0.6-0.3,0.7,0.5c0,1.3-0.9,0.2-1.9,0.5
			c-0.1-0.5,0.3-0.5,0.7-0.5c0-0.2-0.2-0.2-0.2-0.5c-0.4,0-1.2-0.2-1.9-0.5c3.7-0.7,6.5,0.4,10.1-0.2
			C254.9,44,250.7,43.3,247.9,43.5z M255.1,44.7c0.7-0.5,1.3-0.4,2.2-0.2C257,45,255.8,44.5,255.1,44.7z M255.6,43.5
			c0.4-0.6,2.6-1.1,2.6,0C257.8,43.8,256.7,43.3,255.6,43.5z M266.4,43c0.6,0,0.7,0.4,1.4,0.2C268,44.2,266.2,43.7,266.4,43z
			 M267.6,37c0.9-0.9,3.8-0.4,4.8-0.5C271.2,37,269.4,37,267.6,37z M335.5,39.7c0.4-0.4,1.1-0.4,1.7-0.5
			C337.5,40.4,336,39.7,335.5,39.7z M336.3,36.8c0.1,0.9-1.3,0.3-1.9,0.5C334.7,36.8,335.4,36.7,336.3,36.8z M335.1,33.2
			c-0.7,0.3-1.7,0.2-2.4,0C333.4,32.8,334.7,32.6,335.1,33.2z M317.1,38.5c-0.8,0.1-1.1-0.2-1.7-0.2
			C315.4,37.9,317.4,37.7,317.1,38.5z M315.1,36.5c-0.2,0.4-1,0.3-1.4,0.5C313.8,36.1,314.6,36.3,315.1,36.5z M314.4,34.9
			c-0.1,0.8-1.2,0.4-1.7,0.2C312.8,34.6,313.9,35,314.4,34.9z M313.2,33.2c-0.6,0-1.2,0-1.4-0.2C311.8,32.6,313.6,32.4,313.2,33.2z
			 M304.6,36.3c0,0.2-0.2,0.2-0.2,0.5h1c-0.4,0.5-2.2,0.3-2.2-0.5H304.6z M303.9,39.2c0.2,0.8-0.8,0.9-1.2,0.5
			C302.7,39.1,303.3,39.1,303.9,39.2z M295.5,32.7C294.1,33.9,293,32.7,295.5,32.7L295.5,32.7z M280.8,33.2
			c-1.9-0.2-4.5,0.1-6.2-0.2C276,32.4,279.4,32.3,280.8,33.2z M275.3,44c0-0.4-0.2-0.8-0.5-1c0.4-0.9,1.7,0.5,1.9-0.2
			c0.3,0.2,0.4,0.5,0.5,1C276.3,43.5,276.1,44,275.3,44z M275.8,37c-0.1-1,1.5-0.3,2.2-0.5C278,37.5,276.4,36.8,275.8,37z
			 M278.2,43.3c0.2-0.6,1.1-0.5,1.9-0.5C280.2,43.7,278.8,43.1,278.2,43.3z M279.9,40.1c0,0.2-0.1,0.2-0.2,0.2h-0.5
			c0.7-0.5-0.2-1.3,1.2-1.2C280.4,39.6,279.2,39.9,279.9,40.1z M279.4,36.5c0.5,0.4,0.5-0.2,1,0.2C283.5,36.5,279.6,37.8,279.4,36.5
			z M282.3,36.5c1.3,0.4,1.9,0,3.4,0.2C285.4,37.3,282.7,37.3,282.3,36.5z M286.1,38c0.1,0.9-1.3,0.3-1.9,0.5
			C284,37.5,285.5,38.2,286.1,38z M282.7,40.6c0.7-0.4,2.9-0.3,3.6,0C285.1,41,283.9,40.7,282.7,40.6z M281.5,33.2
			c0.6-0.8,5.3-0.7,6,0C285.6,33.1,283.8,33.1,281.5,33.2z M290.2,32.9c0.7-0.2,2-1.5,1.9,0.2C291.4,33.1,290.5,33.3,290.2,32.9z
			 M291.6,38.2c0.1-0.3,2-0.6,1.7,0.2C292.7,38.4,291.9,38.5,291.6,38.2z M293.3,40.9c-1.1-0.6,2.2-0.9,1.9,0
			C294.5,41.1,293.4,40.5,293.3,40.9z M294.7,44.7c0.2-0.2,0.3-0.5,0.2-1c0.8-0.3,0.8,0.1,1.7-0.2c-0.5-0.8-1.8,0-2.9,0
			c0.2-0.6,1.3-0.2,1-1.2c1.4,0.7,1.2,0,2.9,0c0.1,0.4-0.2,0.4-0.2,0.7c0.4-0.1,0.5,0.2,0.5,0.5C296.7,42.9,296.5,45.1,294.7,44.7z
			 M297.6,44.2c-0.1-0.8,0.7-0.5,0.5-1.4c0.3,0.8,2,0,1.9,1.2C299.1,44.1,298.3,44.5,297.6,44.2z M302.7,42.5c-0.7,0.2,0.2,0.5,0,1
			c-0.3,0-0.7,0-0.7,0.2c-0.9-0.7,0.3-0.6-0.2-1.4c1.3-0.3,1.4,0.5,2.4,0.5c0.1-0.6-1.1,0.1-0.7-0.7c2.2,0.3,3.4,1.2,5,0.5
			C307.5,43.8,303.5,43.3,302.7,42.5z M309.1,43.7c0-0.3,0.4-0.2,0.7-0.2c0-0.3,0-0.7-0.2-0.7c1.6-0.7,3.4,0.6,4.6,0.5
			C313.1,44,310.9,43.6,309.1,43.7z M317.5,43.5c0.4-0.8-0.1,0-0.5-0.5c-0.7,0.2,0.6,0.4,0.2,1c-1-0.2-1.9-0.5-2.6-1
			c1.2-0.5,2.3-0.6,4.3-0.2C319,43.5,318.1,43.4,317.5,43.5z M316.3,40.9c1.1-1.1,2.6-0.5,4.3-0.2C319.9,41,318,40.8,316.3,40.9z
			 M324,32.9c-0.5,0.3-1.6,0.2-2.2,0C321.9,32.8,323.4,32.5,324,32.9z M323.1,43.5c-0.3,0-0.7,0-0.7,0.2c-0.3,0.1,0-1.1,0.2-1.2
			C323.3,42.3,323,43.1,323.1,43.5z M323.5,40.9c-0.2-0.9,1.1-0.3,1.7-0.5C325.2,41.1,324.2,40.8,323.5,40.9z M327.9,43
			c-0.7,0.2-0.9-0.2-1.4-0.2C326.4,42.4,328.2,42.2,327.9,43z M331.2,40.9c1-0.4,2.1-0.6,4.1-0.5C334.4,41.3,332.6,40.9,331.2,40.9z
			 M333.6,43.3c0-0.7,1.4-0.8,1.7-0.5C335.3,43.5,334.3,43.2,333.6,43.3z M334.8,44c0.1-0.3,0.4-0.4,0.5-0.7c0.9,0.3-0.3,0.9,1,0.5
			c0,0.3,0.1,0.4,0.2,0.5C336.3,44.7,335.2,44.1,334.8,44z M337,40.9c-0.8,0.1-0.6,0.1-1.4,0.2C336.3,40.2,338.9,40.5,337,40.9z
			 M340.6,33.4c-0.7-0.3-0.9,0.1-1.9,0C338.7,33,340.7,32.5,340.6,33.4z M338.7,44c0-0.4,0.8-0.1,1-0.5c-0.3-0.4-1.4-0.3-0.7-1
			c0.2,0,0.2,0.3,0.2,0.5c0.5-0.1,0.7-0.6,1.4-0.5c0.2,0.6-0.5,0.5-0.7,0.7c0.1,0.4,0.8,0.2,0.5,1c0.4,0,0.5-0.3,1-0.2
			C340.8,45.4,339.9,43.4,338.7,44z M339.1,40.6c2-0.4,4.5-0.3,6.7,0C344.1,41.1,340.2,40.9,339.1,40.6z M343.2,33.4
			c0.2-1,2.2-0.2,3.1-0.5C345.6,33.7,344.2,33,343.2,33.4z M370.6,32.9c-0.3,0.5-1.7,0.1-2.4,0.2C368.9,32.6,369.8,32.8,370.6,32.9z
			 M356.2,32.9c-0.7,0.6-0.9,0.3-1.9,0.5C354.3,32.7,355.5,33,356.2,32.9z M355.7,37c-0.1,0.3-2.2,0.6-1.9-0.2
			C354.7,36.6,354.9,37.1,355.7,37z M348.5,42.5c1.1,0.5-0.3,1-1,0.5C347.4,42.4,348.7,43.2,348.5,42.5z M348.3,43.7
			c0.8,0.4,1.1-0.7,2.2,0C350,44.1,348.7,44.8,348.3,43.7z M349.2,43.3c0.5-1,1.5-0.4,2.6-0.5C351.5,43.8,349.8,42.8,349.2,43.3z
			 M350.4,38c-0.6-0.4,1.5-0.7,1.4,0.2C350.8,38.6,351,37.4,350.4,38z M356.2,44.2c1.6-1,2.8-0.2,4.1-0.2
			C359.4,44.6,357.6,44.2,356.2,44.2z M360,43.5c-0.3,0-0.1-0.2,0-0.2c-0.7,0.2-1.2-0.2-2.6-0.2c0.9-1.1,1.5-0.4,3.1-0.5
			C360.7,43.2,360,43,360,43.5z M352.8,40.4c-0.1-0.3,0.7-0.8,0.7-0.2c0.3,0,0.2-0.4,0.2-0.7h1.4c0,0.4-0.8,0.1-1,0.5
			c1.5,0.3,2.1,1,3.4,0c0-0.2-0.3-0.2-0.5-0.2c0.2-0.9,0.8,0,1.7-0.2c0.5,0.4-0.3,0.7,0.5,1c0.5,0.1,0.4-1.1-0.2-0.7
			c0.6-0.6,1.4,1.1,2.6,1.2C358.6,41.1,355.6,40.9,352.8,40.4z M361.9,33.2c0.6-0.6,2.2-0.1,3.1-0.2
			C366.9,33.2,362.1,33.4,361.9,33.2z M366.7,44c-0.3,0.6-1.2-0.3-1-1c-1,0.1-0.7,0.1-1.7,0c2.1-0.9,4.2-0.5,6.7-0.7
			c0.2,0.8,0,1.1,0.2,2.2C369.2,43.9,368.5,44.7,366.7,44z M368.7,41.1c-0.4-0.8,1.2-0.7,0.5-1c0.4-0.5,1.6-0.2,1.9-0.7
			C371.4,40.1,369.6,40.8,368.7,41.1z M372.3,44.2c0.9-0.6,1.5-0.2,2.9-0.2C374.6,44.7,373.3,44.2,372.3,44.2z M373.5,39.4
			c0.3-0.5,1.7-0.1,2.4-0.2C375.5,39.7,374.2,39.3,373.5,39.4z M376.8,33.2c-0.6,0-1.4,0.1-1.7-0.2
			C375.2,32.6,377.1,32.4,376.8,33.2z M382.8,40.9h-2.4C380.6,40.2,383.1,39.8,382.8,40.9z M377.1,33.2c0.8-0.9,2.7,0.1,3.8-0.5
			C380.4,33.7,378.3,33,377.1,33.2z M383.5,44.7c-1.5-1.1-3.6-0.2-4.8-0.7c-0.5,0,0.3-0.6,0-1.2c1.2,0,2.5-0.9,3.1,0
			c-0.1,0.3-0.4,0.4-0.5,0.7c-0.7-0.2-1-0.7-2.2-0.5c1.6,1.3,3,0.5,5.5,0.7C384.9,44.6,383.3,43.7,383.5,44.7z M387.6,40.4h1.2
			c0.2,0.8-0.7,0.4-1.2,0.5V40.4z M388.6,44.2c-0.7-0.2-2-0.4-3.1,0c0.1-0.6,0.8-0.7,0.5-1.7c1.3-0.2,1.1,1.2,2.6,0.7V44.2z
			 M388.1,42.8v-0.5h1.2C389.5,43.1,388.6,42.7,388.1,42.8z M388.1,38v-0.5h1.2C389.5,38.3,388.6,37.9,388.1,38z M391,32.7h1.4
			c0.2,0.9-0.9,0.3-1.4,0.5V32.7z M393.4,44c-1-0.7-0.6-0.7-2.4-0.2c0-0.2-0.3-0.2-0.5-0.2c0.7-0.7,0.9,0,1.9-0.5
			c-0.2-0.2-0.6-0.2-0.5-0.7c1.2-0.4,0.8,0.8,1.7,0.7C393.4,43.2,393.4,43.6,393.4,44z M394.3,40.6c-0.4-0.8-0.5-0.7-1.4-0.5
			c0,0.3,0.4,0.2,0.7,0.2c0.4,0.2-2,0.6-2.2,0.2c0.1-0.5,1.1-0.1,1.2-0.5c0-0.2-0.3-0.2-0.5-0.2c0.1-0.2,0.7-0.4,0.2-0.5
			c0.2-0.7,0.6,0.3,1,0.2c0-0.3-0.1-0.4-0.2-0.5C394.3,38.3,394.8,40,394.3,40.6z M395.5,40.9c-0.1-0.2-0.2-0.4-0.5-0.5
			c-0.1,0.4-0.2,0-0.2-0.2c1.3,0.4,2.6,0.1,4.3,0.2C398.4,41.1,397,40.5,395.5,40.9z M399.6,36.5c-0.4-0.1-1.2,0.2-1-0.5
			c0.4,0,0.5-0.3,1-0.2V36.5z M397.9,32.9c-0.9,0.1-1.2,0.4-1.9,0c0.1-0.3,1.6-0.5,1.4-0.2h3.1C400.2,33.2,398.8,32.8,397.9,32.9z
			 M440.7,32c0.7,0,0.7,0.3,1.7,0.2c0,0.1-2.2,0.4-3.1,0.2C438.7,32.3,440.3,32,440.7,32z M438.5,32.2c-1,0.4-2.5,0.3-3.4,0.2
			C436.1,32.1,437.6,31.8,438.5,32.2z M429.6,34.9c0.1,1.1,1.1,1.1,1.4,1.9c-1-0.2-1.9,0.6-2.6,0c0.2-0.9,0.8,0,1.7-0.2
			c0.4-0.9-1.1,0-0.7-1c0.2,0,0.2-0.1,0.2-0.2c-0.3,0-0.7,0-0.7-0.2C426.1,35.4,427.4,34.5,429.6,34.9z M416.4,32.5
			c-0.9,0.3-2.6,1-3.4,0C414.2,32.8,414.9,32.3,416.4,32.5z M405.4,32.5c0,0.8-2.9,0.8-2.9,0C403.9,32.7,404.2,32.5,405.4,32.5z
			 M401.5,36.1c1.1,0.7,1.5-0.3,2.6-0.2c0,0.3-0.8,0.9-0.2,1C403.6,37,401.4,37,401.5,36.1z M404.4,42.5c-0.3,0.9,0.7,0.5,0.5,1.2
			c-1.4-0.7-2,0-3.1-0.2c1.8-0.5,1.9-1.2,3.8-1.4C405.6,42.6,405,42.6,404.4,42.5z M401.8,40.6c0.5-0.4,1.7-0.2,2.4-0.5
			c-0.2-0.2-0.4-0.4-0.7-0.5c0.8-0.8,1.2,0.9,2.2,0.7C404.5,40.6,403,40.8,401.8,40.6z M407.3,42.1c0.6-0.1,0.9,0,1.2,0.2
			C408.3,42.8,407.3,42.9,407.3,42.1z M405.6,32.7c2.3-0.2,5-0.8,6.5,0.2C409.9,32.9,407.4,33.1,405.6,32.7z M413.5,43.7
			c-0.5,0.1-1.7-0.4-1.4,0.5c-0.3-0.8-0.3-1.4-0.7-1.7c0.3,0,0.4-0.1,0.5-0.2c0.4,0.2-0.1,0.4,0.2,1c1.4,0.2,0.7-1,1.4-1V43.7z
			 M413.8,36.3c0.7,0.5,0.9,0.8,1.9,0.5c-0.2,0.8,0.8,0.3,1,0.7C415.7,38,413.8,37.4,413.8,36.3z M416.9,40.4
			c0.6-0.5,1.1-0.3,1.9-0.2C418.4,40.6,417.6,40.7,416.9,40.4z M418.8,43.3c0.1-0.5,0-0.8-0.5-0.7c0.7-1.4,0.8,0.8,2.2,0.2
			C420.2,43.1,419.6,43.3,418.8,43.3z M416.9,32.7c4.8-0.8,7-0.4,11.5-0.2C424.6,33,420.6,32.6,416.9,32.7z M424.8,41.8
			c0.2,0.5,2.3-0.7,2.4,0.5C426.9,41.6,425,43.1,424.8,41.8z M426.7,39.9c1.1,0,1.7,0,3.6-0.2C429.7,40.4,427.3,41.1,426.7,39.9z
			 M428.2,42.1c0.1-1.2,1.2,0.1,1.9-0.2c0.9,0.3-1.8,0.3-0.7,0.7C429.2,42.9,428.5,41.8,428.2,42.1z M429.6,43.3
			c-0.1-0.5,0.2-0.6,0.2-1c0.5-0.1,0.5,0.3,0.5,0.7c0.5,0,0.8-0.2,0.7-0.7c0.4,0.2,0.8,0.4,0.7,1H429.6z M431.5,39.4
			c-0.3,0-0.2,0.4-0.2,0.7h-0.7c0-0.2,0.3-0.2,0.5-0.2c-0.6-0.2-0.3-1.1-1-1.2c-0.2-0.6,1.4-0.1,0.5,0c0.2,0.4,0.6,0.5,1.2,0.5
			C432.2,39.3,431.8,39.4,431.5,39.4z M430.1,32.5c1.2-0.5,1.9,0,3.4-0.2C432.9,32.9,431.5,32.6,430.1,32.5z M437.8,42.3
			c-0.7-0.8,0.8-0.7,1.2-0.5C439.1,43.2,437.9,41.8,437.8,42.3z M439,36.8c-2.4-0.1-2.6,0.2-4.6,0.5c0-0.8,0.9-0.8,0.5-1
			c1.7-0.8,2.7,0.5,4.6-0.7C439.8,36.5,438.8,36,439,36.8z M439.2,38.7c0-0.5,0.6-0.5,1.2-0.5c-0.2,0.9,0.7,0.3,1,1.2
			C440.3,39.5,440.4,38.5,439.2,38.7z M443.8,43c-0.2,0.3-0.6-0.1-1.2,0.2c-0.3-0.8,0.4-0.6,0.5-1c-0.5-0.6-1.2,0.4-0.7,1
			c-0.9-0.3-1.2-0.6-2.2-1.2c0.5-0.8,2.4-0.3,3.6-0.5C444,42.4,442.7,42.6,443.8,43z M442.6,32.5c0.3-0.7,1.3-0.5,1.9-0.2
			C444.3,32.8,443.2,32.3,442.6,32.5z M446.4,43.3c-0.7-0.3-1.4-0.5-1.4-1.4c1.8,0.3,1.4,0.2,2.9,0.2
			C447.5,42.6,446.8,42.7,446.4,43.3z M445,33.9v-0.5c0.6,0.2,1.1,0.3,1.2,1c-0.8,0.5-0.8-0.9-1-0.2C445,34.2,445,34,445,33.9z
			 M450.3,40.4C447.4,40.5,448.3,38.6,450.3,40.4L450.3,40.4z M450,41.8c0.3-0.5,1.5-0.1,2.2-0.2c-0.3,1,0.4,0.8,0.7,1.2
			C452.3,44,450.8,42.5,450,41.8z M444.7,32c4.3,0.4,7.1-0.1,11.8,0C453.8,32.7,447.9,32.8,444.7,32z M467.3,32
			c-0.3,0.9-3.1,0.5-3.8,0.2C464.8,31.6,465.8,32.3,467.3,32z M458.4,32c1-0.1,0.9,0.3,1.7,0C460.4,32.7,458.1,32.7,458.4,32z
			 M461.8,40.4c-1.3-0.1-1.9,0-2.6-0.2C459.6,39.2,461.4,39.3,461.8,40.4z M464.9,43c-1-0.5-2.2,0.2-4.1,0c0.6-0.1,1.1-1-0.5-0.5
			c-0.2-1.8,2.5-0.5,4.3-0.7C464,42.4,465.2,42.1,464.9,43z M464.9,36.3c0.4,0.1,1.4-0.3,1.4,0.2C466.5,37.4,464.5,37.1,464.9,36.3z
			 M466.8,40.9c-0.5-0.3-0.8-1-1.4-1.2c0.2-0.7,2,0.2,2.2-0.5c0.3,0,0.1,0.2,0,0.2c0.2,0.2,0.4,0.4,0.7,0.5
			C467.9,40.3,466.9,40.1,466.8,40.9z M477.1,32.2c-1.1,0.6-3.3,0.1-4.8,0.2C473.5,31.4,475.8,32.2,477.1,32.2z M469.9,36.3
			c-0.3,0-0.2-0.4-0.2-0.7c0.2,0,0.2-0.1,0.2-0.2c0.5,0.7,1.1,0.1,1.7,0.5C471.3,37.2,470.1,35.1,469.9,36.3z M473.3,40.4
			c-0.9-0.3-0.9,0-1.7-0.2c0.1-0.8,1.3-0.5,1.7-1C474.1,39.3,473.5,39.9,473.3,40.4z M474.7,40.1c-0.9,0.1-0.8-0.7-0.2-1H474
			c0.2-0.5,1.3-0.1,1.9-0.2v1c-0.6,0-0.8-0.4-1-0.7C474.7,39.2,474.8,39.8,474.7,40.1z M475,43c0.6-0.3,1.5-1.2,1.7,0H475z
			 M477.9,42.8c-0.9,0.4-0.1-0.8-0.7-0.7c0.3-0.3,0.9-0.5,1.2-0.2C478.2,42.2,477.6,42,477.9,42.8z M476.9,40.4
			c0.6-0.6-0.4-0.2-0.2-1c0.8,0,0.8,0.8,1.7,0.7C478.3,40.7,477.3,40.2,476.9,40.4z M477.4,39.7c0-0.2,0.3-0.2,0.5-0.2
			c0-0.3-0.4-0.2-0.7-0.2c0.2-0.9,0.6,0,1.4-0.2C478.7,39.7,478.1,39.7,477.4,39.7z M478.8,41.6c0.6,0.7,1.2-0.6,1.7,0
			C480.1,41.9,478.7,42.8,478.8,41.6z M478.8,36.5c0.5-0.4,2-1.8,1.9,0H478.8z M503.8,36.5c-0.6,0.2-1.5,0.3-2.4,0.2
			c0.3-0.5,1.2-0.4,1.7-0.7c-0.4,0.1-0.7-0.5-1.7-0.5C502.1,34.8,503.9,35.1,503.8,36.5z M502.3,32c-1.7,0.9-3.2,0.2-5.8,0.5
			C497.9,31.7,500.6,32,502.3,32z M494.7,32.2c-1.9,0.6-4.9,0.1-7.2,0.2C489.8,31.5,492.1,32.3,494.7,32.2z M487,32.2
			c-1.2,0.6-3.4,0.1-5,0.2C483.3,31.9,485.6,32,487,32.2z M482.7,42.8c-0.5-0.1,0.4-0.6-0.5-0.7c0.4-0.3,0.9-0.1,1.9-0.2
			C483.9,42.8,482.7,41.5,482.7,42.8z M484.1,43.7c0.1-0.5-0.3-0.5-0.7-0.5c0.6-1.4,1.9,0.3,2.6-1C485.6,43,485.2,43.7,484.1,43.7z
			 M485.5,36.5c0.4-0.1,2.1-1,2.2,0C487.1,35.9,486.5,36.8,485.5,36.5z M489.6,40.1c-0.6,0.6-2.1,0.1-2.2-0.7c0.6,0.6,1.2-0.2,2.2,0
			C489.5,39.6,489.2,40.1,489.6,40.1z M491.5,39.7c0.4-1.1,2.1,0.4,2.9-0.5c0.4,0.5-0.4,0.6-0.2,1.2
			C493.6,39.9,492.9,39.4,491.5,39.7z M494.4,41.6c0.4-0.2,1.1-0.1,1.2,0.7C494.7,42.5,494.8,41.8,494.4,41.6z M497.5,41.8
			c0,0.2,0.1,0.2,0.2,0.2c0,0.7-0.7-0.6-0.5,0.5c-0.4-0.3-1.5,0.1-1.4-0.7c1.2-0.1,1.3-0.1,2.2-0.2
			C498.5,41.8,497.9,41.8,497.5,41.8z M497.1,33.7c0.6-0.7,1-0.2,1.9-0.5C499,34.4,498.1,33.4,497.1,33.7z M499.7,37
			c-0.1-0.7,0.8-0.5,1.2-0.7V37C500.2,36.8,500.4,36.8,499.7,37z M502.3,39.7c-0.7-0.2-0.7-0.2-1.4,0c0.1-0.3,0.4-0.4,0.5-0.7
			c0.9,0,0.7,0.3,1.4,0C502.7,39.2,502.3,39.2,502.3,39.7z M503.3,40.6c0.5-0.8,0.8-0.3,0.2-1.2h1c-0.5-0.3-0.9-0.7-1-1.4
			c1.1,0.1,0,1.1,1.4,1c0,0.4-0.3,0.5-0.2,1c0.5-0.7,1.3-0.2,1.9,0.2C505.5,39.9,504.5,40.3,503.3,40.6z M504,36.3
			c0.5-0.4,1.2-0.5,1.7-1c0,0.4-0.3,0.9,1,1C505.8,36.6,504.9,36.4,504,36.3z M506.9,42.3c0.2-0.4,0.8-0.5,1.4-0.5
			C508.1,42.3,507.4,42.7,506.9,42.3z M507.6,32c1.2,0,1.8,0.1,2.4,0.2C509.8,32.5,507.5,32.8,507.6,32z M509.8,42.8
			c-0.1-0.6,0.4-0.5,0.2-1.2c0.3,0.7,0.8,1,1.7,1.7C510.9,42.9,510.6,43.3,509.8,42.8z M513.6,40.1c-0.2-1,1.4-0.2,1.2-1.2
			c0.8,0,0.2,0.4,0.5,1.2H513.6z M515.5,32.7c1.2-1.1,4.5-0.1,5-0.2C519.4,33,517.1,32.5,515.5,32.7z M517.2,36.3
			c0.9-0.4,2.1-0.5,3.1-0.7C519.7,36.3,518.1,36.6,517.2,36.3z M520.8,40.6c-0.4-0.5-1.9,0.1-1.7-1C520,39.7,521.2,39.3,520.8,40.6z
			 M522.7,40.6c-0.2-0.2-0.1-0.7-0.5-0.7c0.8-0.3,1,0.4,2.2-0.2C524.5,40.6,523.3,40.3,522.7,40.6z M525.1,39.7h3.4
			C528,40.1,526,40.5,525.1,39.7z M529.7,36.3c-0.2,0-0.2,0.2-0.5,0.2c-0.4-0.4,0.6-0.4,1.2-0.2c0,0.3,0,0.7,0.2,0.7
			C530.4,37.6,529.6,36.8,529.7,36.3z M529,32.7c0.1-0.2,0.3-0.4,0-0.5c0.3-0.4,1.7,0.2,2.4,0.2C530.9,32.7,530.1,32.6,529,32.7z
			 M558.3,32c-0.4,0.8-0.5,0.7,0.7,0.7c0.6,0.4-1.4,0.2-1.9,0.2C557.4,32.5,557.6,32,558.3,32z M539.5,36.3c0.1,0.7-0.8,0.5-1.2,0.7
			c0-0.4-0.3-0.5-0.2-1C538.4,36.3,539,36.3,539.5,36.3z M536.9,40.6c-0.3,0-0.1-0.2,0-0.2c0.1-0.4-0.9,0-0.7,0.5
			c-1.1,0-0.8-0.6-1.9-0.2c1-1-0.4,0.1-0.5-0.2c0.3-0.9,2.5-0.9,3.4-0.5C537.2,40.3,536.9,40.3,536.9,40.6z M535.5,35.6
			c0.5,0.3,1,0.6,1.7,0.7C536.7,36.9,535.3,36.4,535.5,35.6z M539.1,34.6c-0.1,0.8-1.3,0.9-1.4,0C538.5,34.6,538.3,34.9,539.1,34.6z
			 M538.3,40.6c0.1-0.4-0.2-0.5-0.5-0.5c1.2-0.7,2-0.4,3.4-0.2C541,41.2,539.4,40,538.3,40.6z M542.4,37.5c0.2-0.5,1.8-0.7,1.9,0.2
			C544,37.4,543.1,37.5,542.4,37.5z M545.1,42.5c0.9,0,1.8-1.2,3.4-0.5C547.4,42.2,546.1,43.2,545.1,42.5z M547.7,40.6
			c0.6-0.6,1.6-0.8,2.9-0.7C550.1,40.7,548.5,40.8,547.7,40.6z M549.9,32.9c0.1-0.1,3.7-1.2,3.8-0.5C554.1,33.5,551,32.7,549.9,32.9
			z M552.7,40.1c0.7-0.3,1.9-0.5,2.2,0.5C554,40.6,553.5,40.2,552.7,40.1z M557.1,40.9c0.4-0.5,0-0.3,0-1c0.5,0.1,0.9-0.2,0.5-0.2
			c0.2,0.1,1.4-0.1,2.2,0.2c-0.2,0.4-0.6,0.5-1.2,0.5C561.5,40.9,559.3,40.9,557.1,40.9z M561.9,35.3c0-0.7,1.1-0.6,1.4-0.2
			C563.1,35.6,562.2,35.7,561.9,35.3z M563.8,33.2c-0.6-0.2-1.3-0.3-2.2-0.2C560.9,32.7,564.1,32.2,563.8,33.2z M564,40.6
			c0.2-0.8,1.2-0.8,2.2-0.7C566.4,40.1,564.6,40.4,564,40.6z M568.6,35.8c-0.6-0.2-0.5,0.5-0.7,0.7c-0.8-0.3,0.1-0.9-0.5-1.2
			C567.6,34.8,568.9,35.1,568.6,35.8z M573.4,40.9c-0.3-0.2-0.4-0.5-0.5-1c0.3,0.3,0.8,0.3,1.4,0.2
			C574.4,40.8,573.4,40.4,573.4,40.9z M582,41.1c0.1-0.8-0.5-0.8-1.2-0.7c0.1-0.7,2.2-0.6,2.6-0.2C583.3,40.7,582.6,40.5,582,41.1z
			 M583.7,43.7c-0.3-1.1,0.8-1,1.7-1C585.4,43.7,584.4,43.6,583.7,43.7z M583.7,33.2c0.6-0.6,2.2-0.1,3.1-0.2
			C586.3,33.5,584.7,33,583.7,33.2z M593.1,33.4c-0.3-0.1-0.2-0.5-0.5-0.5c0.2-0.5,1.5-0.1,1.4,0.5
			C593.6,33.6,593.2,32.7,593.1,33.4z M593.3,39.9c0.6,0,0.7,0.4,1.4,0.2C594.7,40.9,593.2,40.7,593.3,39.9z M595.7,40.9
			c-0.7-0.4,1.2-1.1,1.7-0.5C597.1,41.3,596.1,40.2,595.7,40.9z M603.9,36.8c-0.4,0.5-1.8,0.1-2.6,0.2
			C601.6,36.5,603.1,36.9,603.9,36.8z M597.6,37.7c0.3-0.5,1.5-0.1,2.2-0.2C599.2,38.2,598.6,37.7,597.6,37.7z M602.2,41.3
			c0-1.6-2.1,0.3-2.4-1.2c1,0.3,3.1,0.1,3.4,0.5C603,41.3,602.8,40.9,602.2,41.3z M601.7,37.7c0.5-0.6,2-0.1,2.9-0.2
			C603.8,38.1,602.4,37.8,601.7,37.7z M609.6,41.3c-0.9-0.4-1.5,0.1-2.4-0.2c0.3-0.5,1.9-0.7,2.6-0.5
			C609.7,40.8,609.6,41,609.6,41.3z M609.9,35.6C608,36.4,607.6,34.7,609.9,35.6L609.9,35.6z M607.7,33.4c0.4-0.6,1.7-0.1,2.2,0
			C609.6,33.9,608,33.7,607.7,33.4z M610.1,40.6h1C611.3,41.5,609.9,41.5,610.1,40.6z M611.3,40.6c0.7-0.2,0.7,0.4,1.4,0.2
			C612.6,41.3,611,41.8,611.3,40.6z M630,38.7C627.4,39.6,627.1,37.8,630,38.7L630,38.7z M625,33.7c0.1,0.9-1.3,0.3-1.9,0.5
			C623.7,33.4,624,33.9,625,33.7z M617.1,33.7C618,33,621.2,34.5,617.1,33.7L617.1,33.7z M620.4,37.5c-0.3,0.5-1.8,0.3-1.7-0.5
			C619.2,37.3,619.7,37,620.4,37.5z M625.9,41.8c-2.9-0.2-5.1,0.3-7.2-1c1.5,0.5,3.7-0.3,5,0.6C623.2,40.9,626.1,40.9,625.9,41.8z
			 M625.2,38.5c-0.9,0-0.1-0.2-0.2-0.7h-0.5c0.5-0.7,1.4,0.3,2.4,0C626.3,38.5,625.1,37.6,625.2,38.5z M626.9,41.6
			c0.9-0.5,4.2-0.7,4.3,1C630.4,41.6,628,41.4,626.9,41.6z M632.2,41.8c0.9-0.6,2.5,0,3.4,0.2C634.5,42.7,632.9,41.6,632.2,41.8z
			 M640.8,39.7c0.2-0.4,0.9-0.8-0.2-0.7c0.1-0.4-0.2-1.2,0.5-1c0,0.3-0.1,0.4-0.2,0.5c0.1,0.3,0.4,0,0.5-0.2
			c0.4,0.2,0.7,0.6,1.2,0.7C641.7,38.9,641.8,39.4,640.8,39.7z M669.6,40.1c0.9-0.1,1.2,0.5,1.7-0.2c0.3,0,0.2,0.4,0.2,0.7
			C670.9,40.4,669.5,41.1,669.6,40.1z M695.5,37.3c0-0.4,0.4-0.6,0-0.7c0.4-0.3,2.2,0.1,2.4,1C697.1,37.4,696,37.7,695.5,37.3z
			 M623.8,41.4c0.1,0,0.1,0.1,0.2,0.2C624,41.5,623.9,41.5,623.8,41.4z M460.3,28.9c5.5,0.2,9.9-0.2,15.4,0.2
			c-0.2,0.1-0.5,0-0.5,0.2c0.8,0.3,0.6-0.4,1-0.5c7.4-0.2,12,0,16.8,0c-1.8-0.4-6.8-1-8.9-1c-6.5,0-14.2,0.9-21.8,0.5
			c-0.2,0-0.5-1-0.7-0.2C462.5,28.6,459.1,28,460.3,28.9z M511.2,29.3c22.2-0.3,42.3-0.2,64.8,0.7c-0.1-0.4,0.9-0.8,1-0.2
			c1,0,0-0.2,0-0.5c-18.9-0.9-43.3,0-60.2-1.2c-2.8,0.4-7.1,0.7-11-0.2c-3.6,0.9-8.2,0-12.2,0.7C498.8,29.5,503.3,28,511.2,29.3z
			 M395.8,30.3c0,0.1-0.1,0.1-0.1,0.2C395.7,30.4,395.8,30.4,395.8,30.3z M362.4,29.8c-2.9,0.7-8.1,0.8-11.3,0.2
			c-1.2,0.5-4.3,0.5-7,0.5c-0.8,0-2.4-1-2.6,0.5c11.7-0.2,23.5,0.4,34.6-0.7c-3.1-0.3-11.3,0.8-13.4-0.7c9.2,0.3,21.5-0.3,28.8,0.2
			c0.5-0.9,2.5-0.2,3.4,0c-0.5,0.5-1.8,0.3-2.4,0.7c1.1,0.1,2.9,0.3,3.3-0.1c-0.1,0-0.3-0.2-0.4-0.4c1.3-1,4.3-0.6,7.4-0.7
			c-0.4,0.5-0.7,0.8,0.5,0.7c0.8-0.3-0.7-0.1-0.2-0.7c1.2,1.4,3.3-1.4,3.8,0.7c0.2-1.1,3.1-1.1,4.1-0.5c0.9-0.6,1.8-0.3,2.9,0
			c1.5-0.4,4.8-0.9,7,0c1.6-1.4,4.5,0.8,6.2-1.2c-1.2,0.4-1.9-0.1-2.4,0c0.1,0,0.3,0.2,0,0.2c-1,0.3-4.3-0.2-4.1-0.2
			c-3.2,0.1-8,0.5-10.8,0.5c-0.4,0,0.1-0.5-0.2-0.5c-3.5,0-10.4,0.9-16.1,0.2c-1.1,0.9-9,0.6-10.3,0c-2.4,1.1-10.7,0-14.9,0.7
			c-2.7-0.5-9.6,0.6-13.7-0.5c-2.4,1.2-7.3-0.1-10.1,0.7C351.8,30.3,356.4,29.4,362.4,29.8z M396.5,28.9c-0.4,0.5-1.8,0.1-2.6,0.2
			C394.3,28.5,395.7,29,396.5,28.9z M444.5,28.6c2.3,0.3,8.5,0.7,9.1-0.2c-4.8-0.3-10,0.1-15.6,0.2c-3.3,0.1-9.1-0.9-9.6,0.5
			C433.2,28.6,439.3,29.5,444.5,28.6z M294.7,30.8c1.9-0.2,4.5,0.3,6-0.2c-0.4-0.2-1.2-0.1-1.4-0.5c1,0.2,2.7-0.3,3.4,0.2
			c0.1,0.6-2.3-0.1-1.4,0.5c8.2-0.4,18.5,0.8,24.2-0.2h-1c-2.1-0.2-3,0.3-3.8-0.5c4-0.3,7.7,0.4,11.5-0.2c-0.7-0.7-1.4-0.2-2.4-0.2
			c-3.4-0.2-16.1,0.9-18.5-0.5c0.1,0.1,0.5-0.1,0.5-0.2c-0.5,0.1-1.6-0.3-1.7,0.2c0.3,0,0.7,0,0.7,0.2c-1.3,0.4-3.7-1.1-2.2,0
			c-7.2,0.5-10.5-0.2-16.1,0.5c0.8,0.5,2.4,0.1,3.1,0.7C295.3,30.6,294.8,30.4,294.7,30.8z M320.2,30.5c-0.5-0.3-1,0.2-1.7-0.2
			C318.8,29.7,320.1,29.7,320.2,30.5z M316.6,30.1c0.7-0.3,1.1-0.1,1.7,0.2C318.2,30.6,316.3,30.8,316.6,30.1z M309.6,30.1
			c-0.7,0.7-1.4,0.4-2.6,0.2C307.4,29.7,308.8,30.2,309.6,30.1z M304.3,30.3c-0.6,0-0.7,0.5-1.4,0C304.6,29.8,306.8,30.2,304.3,30.3
			z M298.6,30.1c-0.3,0.4-2.5,1-2.6,0C297,30.5,297.5,30,298.6,30.1z M338.2,29.8v0.5c-0.1,0.4-1.1,0-1.2,0.5
			c0.7,0.7,1.7-1.2,2.4-0.5c0,0.4-0.7,0.1-0.7,0.5c0.9-0.2,1,0.4,1.9,0.2c0.3-0.5-0.6-0.9,0-1c0.8,0,3.2-0.1,3.6-0.5
			c-2.1-0.5-6-0.3-8.6,0C336.1,30.1,337.4,30.2,338.2,29.8z M615.1,30.1c-1.6-0.1-5.4-0.8-7,0C610,30.4,613.5,30.8,615.1,30.1z"/>
	</g>
</g>
<g id="strokeTML02_1_" display="none">
	<g display="inline">
		<path fill-rule="evenodd" clip-rule="evenodd" d="M91.2,0.2C90.3,0,89.6-0.2,89,0.4C89.7,0.3,90.9,0.7,91.2,0.2z M77,0.4
			c-1.3,0.2-3.2-0.3-4.1,0.2C74.2,0.5,76.1,1,77,0.4z M67.7,0.7c-1.4,0.2-3.5-0.3-4.6,0.2C64.5,0.7,66.6,1.2,67.7,0.7z M213.6,19.4
			c0.5,0.4,0.3,0,1,0c0.1-5.7,1.8-8.9,2.2-13.9c-0.4-0.3-1.5,0.1-2.2-0.5c0.2-0.4,1-0.3,0.7-1.2c-2.7-0.5-4.4,0.1-7.4-0.2
			c-0.4,1,1.2,0,1.2,0.7c-0.5,0.5-0.5,0.2,0,0.7c-0.6,0.4-1.8-0.1-2.2-0.7c0.9,0-0.1-0.4,0.5-0.7c-6.4,0.3-10.3-1.1-14.2,0
			c4.8,0.6,9.9-0.4,13.1,0.8c-0.6-0.2-0.8,0.2-0.2,0.6c-0.7-0.3-1.8,0.3-2.2-0.7c-0.4,0.7-0.2,0.7-0.5,1.2c-0.6-0.3-1.4-0.7-0.5-1.2
			c-1.7,0.2-2.3,0.3-3.4,0.7c0.4,0.1,1.4-0.3,1.4,0.2c-1.1,0.2-1.4-0.3-2.2-0.5c-0.8,1.2-2.1,0.2-3.6,0.7c0-0.3,0.4-0.2,0.5-0.5
			c-0.3-0.3-1-0.2-1.7-0.2c-0.2,1.1,0.7-0.4,0.5,0.7c-0.9-0.2-1.7-0.3-2.9-0.2c0.4-0.8-0.1-0.7-0.5-1.2c0,0.6,0,1.2-0.7,1.2
			c-0.8-0.1-1.1-0.7-1.9-0.7c-0.1,0.3-0.3,0.5-0.5,0.7c-0.5-0.4-1.2-0.5-1.7-1c-0.5,0.3,0.3,0.6-0.2,0.7c0-0.7-1.8,0.6-2.9-0.5
			c-0.9,1.3-4.3-0.1-4.6-0.2c0.2,0.6-3.5,0.1-2.4-1c-1.8,2.2-7.1,1.3-9.8,0c-0.1,0.2,0,0.5-0.2,0.5c-1.8-0.8-5.8-0.3-7-0.2
			c0.1,0,0.3,0.2,0,0.2c-3.8,0.1-6.7-0.7-9.6-1c-1-0.1-2.1,0.4-3.1,0.2c-0.3,0-0.5-0.7-0.7-0.7c-0.9-0.2-1.3,0.5-2.4,0.5
			c-2,0-4.7-0.5-7.2-0.5c-1.5,0-1.6-0.3-2.6-0.5C127.3,1,123,3.1,117.3,1.6c0.2-0.1,0.5,0,0.5-0.2c-6,1.4-12.8,0.1-18.7,0.7
			c0-0.3,0.3-0.4,0-0.5c-0.7,0.3-1.7,0.4-2.2-0.2c-1.3,1.3-3.6-0.7-5,0.7c-4.2-0.2-9.2-0.1-14.2,0c-2.4,0-4.9,0.6-7.2,0.2
			c0,0-0.1-0.1-0.3-0.3c0.1,0.1,0.1,0.3,0.1,0.5C59,2.1,42.7,5.5,30.9,0.4c-1.6,1.1-4.5,2.8-3.6,4.8c-1.7,1.2-0.5,3.1-1,5.8
			c1.3,1.9-1,3.4-0.2,5.3c0-0.1,0.2-0.3,0.2,0c-0.3,3.6-1.2,5.6,0,8.6c2.1,3.7,9.8,4.3,16.1,4.8C55,30.6,65.6,29.1,76.1,29
			c-0.2,0-0.3-0.4,0-0.5c4.2,1.1,10.4,0.1,14.9,0c-0.3,0-0.6-0.1-0.5-0.5c0.5-0.5,1.6-0.2,1.9,0.2c-0.4,0.1-1.2-0.2-1,0.5
			c4.2,0,10.9,0.3,13.7-0.7c0,0.3-0.3,0.3-0.2,0.7c0.7-0.2,2.1,0.3,2.4-0.2c-0.1-0.1-0.2-0.1-0.3-0.2c-0.1,0-0.3,0-0.4,0
			c-0.5,0.1-0.9,0.3-1.2-0.1c0.4,0,0.8,0,1.2,0.1c0.1,0,0.3,0,0.4,0c3.1,0.2,6,0.7,8,0c-0.1,0-0.1-0.1-0.2-0.1
			c-0.1,0-0.2-0.1-0.3-0.2c0.1,0.1,0.2,0.2,0.3,0.2c0.1,0,0.3,0,0.5,0c-0.1,0-0.2,0-0.2,0.1c1.4,0.5,4.1-1,3.4,0.4
			c1.2-0.4,1.6,0.1,2.4-0.2c-0.9,0,0.1-0.5,0-0.7h0.7c-0.1,0.3-0.4,0.4-0.5,0.7c1.3,0,2.6,0.2,2.4-0.7c1.1,0.4,2.6-0.3,2.9,0.7
			c1.1,0.2-0.3-0.6,0.5-0.7h0.7c0.1,0.4-0.4,0.6,0,0.7c0.2-0.7,0.6,0.3,1,0.2c0-0.4,0.2-0.6,0.5-0.7c0,0.3,0,0.7,0.2,0.7
			c0.9-0.2,3.6-0.7,3.4,0c0.1-0.8,3.9-0.6,1.9,0c1.7-0.6,2.3,0.3,3.6-0.5c-0.2,0.6,0.5,0.5,0.7,0.7c-0.1-1,2.1-0.9,2.6-0.5
			c-0.4-0.1-0.6,0.3-0.2,0.5c0.8,0.3,3-0.7,3.6-0.2c-0.3,0-0.7,0-0.7,0.2c0.8,0,3.5,0.4,2.9-0.2c3.7,1.3,6.8,0.7,9.8,1.2
			c-0.2,0.1-0.5,0-0.5,0.2c1.1-0.7,1.4,0.1,2.4,0.2c1.9,0.4,5.3-0.9,4.8,0.2c1.4-0.7,4,0.7,5.5-0.5c0,1,2.8-0.5,3.1,0.7
			c-0.7,0.1-1.2-0.6-1.4,0.2c1.3,0.2,2.4-0.7,3.1,0.2c0.1-0.4-0.4-0.6,0-0.7c0.7,0.3,1.3-0.7,1.7,0c0.2,0.7-1.1-0.2-1,0.5
			c1.9,0.3,3.1,0.1,4.1,0c-0.3-0.1-0.4-0.3-0.5-0.5c0.6,0.5,1-0.4,1.4,0.2c-0.3,0-0.6,0.1-0.5,0.5c0.6-0.3,1.1,0.7,1.4,0
			c-0.4,0.1-0.6-0.3-0.2-0.5c0.8,0.7,2.9,1.2,3.6,0c0,0.3-0.1,0.5-0.2,0.7c1.1,0.3,2-0.6,2.4,0.2c0.3-0.8,1.1-1.1,1.9-0.5
			c-0.6,0.6-1.4-0.5-1.4,0.5c1.8-0.6,4.4,0.7,5.3-0.5c0.5,0.4,0.3,0,1,0c0,0.2-0.2,0.3-0.2,0.5c6.6,0.1,14.4,0.6,20.6,1
			c-0.4-2.1,1.3-4.4,0.2-6.2c1.2-1,0.6-3.8,1.4-5C214,21.2,213.8,20.3,213.6,19.4z M66.5,14.6c0.2-0.6,1.9-0.6,2.4-0.2
			C68.3,14.6,66.9,14.9,66.5,14.6z M75.6,7.1c-0.1-0.6,2.3-0.9,2.2,0H75.6z M78.7,26.8c0.6-0.3,1.7-0.4,1.7,0.5
			C79.5,27.1,79.5,27.3,78.7,26.8z M77.7,14.6c1.2-0.6,2.1-0.3,3.8-0.2C80.4,15.1,79,14.6,77.7,14.6z M82.8,28.5
			c0.6-0.8,2-0.4,2.6-0.2C84.9,28.4,83.9,29,82.8,28.5z M86.6,14.3c-0.9,0.3-0.5-0.7-1.2-0.5C85.5,13.4,87.1,13.4,86.6,14.3z
			 M87.6,14.3h-0.7v-1C87.5,13.3,87.7,13.7,87.6,14.3z M88.8,5.9c0.7,0.4-0.3,1.1-1,1C87.6,6,88.6,6.4,88.8,5.9z M88.5,14.8
			c-0.5-0.2-0.7-0.7-0.7-1.4H89c0.1,0.7,0.2,0.4,0.5,1.2C89.2,14.3,88.6,14.3,88.5,14.8z M91.2,14.6c-0.1-0.1-0.9-0.6-1,0
			c-0.8,0,0.5-0.8-0.2-0.7c0-0.3,0.2-0.1,0.2,0c0.4,0,0.9,0.1,1-0.2C91.9,13.8,91,14.1,91.2,14.6z M91.7,14.6v-0.7
			c0.3-0.3,0.8-0.3,1.4-0.2C93,14.7,92.3,13.9,91.7,14.6z M97.9,6.9c-0.8,0.1-1.1-0.2-1.7-0.2C96.3,6.3,98.2,6.1,97.9,6.9z
			 M93.6,14.6c-0.4-0.9,1.3,0.2,0.5-0.7c0.2-0.4,0.4,0.1,1-0.2c-0.2,0.7,0.8,0.5,1.9,0.5C96.5,15.1,95,13.9,93.6,14.6z M98.4,14.6
			c-1.1,0.3-0.9-0.7-1.4-1c0.6-0.2,2.3-1,2.2,0.2C98.5,13.7,98.2,13.9,98.4,14.6z M99.1,14.3c0-0.6,0.9-0.3,1-1c0.4,0,0.5,0.3,1,0.2
			C100.6,14.2,99.8,14.7,99.1,14.3z M100.5,6.7c0-0.2,0.1-0.2,0.2-0.2c0-0.2-0.3-0.2-0.5-0.2c-0.8-0.6,1,0.2,0.7-0.2
			c0.3,0,0.1,0.2,0,0.2c0.1,0.4,0.3-0.1,0.7,0C102,7,101,6.5,100.5,6.7z M105.3,13.6c-0.6,0.5-0.9-0.2-1.7,0.2
			c0.1-0.7,1.2-0.4,1.9-0.5c-0.1,0.4,0.2,0.5,0.5,0.5C106,14.5,105.2,14.4,105.3,13.6z M106.8,14.3c-0.9,0.4,0-1.1-1-0.7
			c0.2-0.5,1.5-0.2,1.7,0C107.3,13.9,107,14.1,106.8,14.3z M107.7,14.3c1-0.6,0.8,0,0.2-1c1.5-0.3,1.2,0.5,2.4-0.2
			c-0.1,0.6,0.1,0.9,0.7,0.7c0.5-0.1-0.3-0.4,0.2-0.7c0.4,0.2,1,0.2,0.5,0.7c1-0.3,3,0,3.6,1C112.4,14.2,110.3,15.4,107.7,14.3z
			 M114.5,6.9c-0.2-1.1,0.9-0.3,1-0.7C116.2,6.6,114.8,6.8,114.5,6.9z M117.1,6.2c-0.9-0.3-0.5,0.7-1.2,0.5
			c-0.4-1.5,2.5-0.5,1.4,0.2C117.1,6.9,117.1,6.5,117.1,6.2z M117.3,14.6c-0.2-0.7,0.3-0.6,0.2-1.2c0.6,0,0.9,0.3,1,1
			C118,13.7,118.1,14.7,117.3,14.6z M119.5,2.8c0.8,0.4,1.3-0.2,2.2,0.2C121.6,3.8,119.6,3.5,119.5,2.8z M123.8,26.3
			c0.5,0.1,0.8,0.5,1.2,0.7C124.6,27.3,123.7,27.5,123.8,26.3z M136.3,6.9c0.3-0.4,1.2-0.7,1.7-0.2C137.9,7.2,136.8,6.8,136.3,6.9z
			 M136.5,3.1c1,0.5,3.1-0.5,4.1,0C140.3,3.8,136.7,4,136.5,3.1z M140.6,14.8c0.3-1.2,2-0.1,2.9-0.2C143,15.1,141.5,14.7,140.6,14.8
			z M145.2,14.8c-1.5-0.4-0.4-0.1-2.4-0.7c0.8-0.5,1.6,0.2,2.6-0.2C145.5,14.3,145.1,14.4,145.2,14.8z M153.6,4.7
			C153,4.8,153.3,4,152.9,4c1.2-0.2,4.2-0.2,5,0.7C156.9,5.3,154.5,3.8,153.6,4.7z M157.4,7.6c0.2-0.4,1.4,0.2,1.4,0.7
			C157.9,8.6,157.8,8,157.4,7.6z M170.6,29.5c0-0.7,0.6-0.7,1.2-0.7C171.6,29.2,171.4,29.6,170.6,29.5z M176.1,8.8
			c0.3-0.5,1.5,0.2,1.7,0.7C176.9,9.7,176.5,9.2,176.1,8.8z M180.2,17.2c0.5-0.5-0.2-0.8,0.2-1.2c0.7,0,0.8,0.4,0.5,0.7
			c0.5-0.1,0.8,0,0.7,0.5H180.2z M184.5,31.4c-0.2-0.7,1.6-1.2,1.4-0.2C185.2,31,185.1,31.4,184.5,31.4z M70,1.9
			c-0.6-0.4-1.3-0.8-1.4-0.1C69.1,1.9,69.7,1.8,70,1.9z M70.3,0.9c0.3-0.6,1.9,0.1,2.2-0.5h-1.9C70.6,0.8,69.8,0.7,70.3,0.9z"/>
	</g>
</g>
<g id="strokeTS02_1_">
	<g>
		<path d="M157,27.5c0.2-0.3,0.9-0.1,0.7-0.7c-1.1-0.4-1.2,1.5-2.2,0.5v-1c0.8-0.7,1,0.8,1.7,0c0.2-0.8-0.1-1.2-0.5-2.4
			c-0.7-0.1-1.2,0.6-1.4-0.2c-0.4-1.7,1.1-1.5,1.7-1.7c-0.4-0.8,0.7-2.1-0.2-1.9c-1.4-0.2,0,0.9-1,1c-0.7-0.4-0.5-1.7-1.2-2.2
			c1-0.7,1-2.2,0.5-3.4c-2.3,0.2-5.6,1-6,0.7c0.1,0,0.3-0.2,0-0.2c-0.5,0.4-0.2,0.7-0.5,1c-6.2-0.2-14.5,1.7-21.6,0.7
			c1.7-0.2,4.5,0.1,6.5-0.7c-3.2,0.2-6.2,0.1-9.6,0.7c1.1,0.5,2-0.3,2.9,0.2c-3.5,0.8-7.8,1-12.5,0.2c-0.6,1.3-2.3,0.1-4.1,1.2
			c-4.5-1.4-11.9,1.1-15.4-0.7c-0.1,0.4,0.4,0.6,0,0.7c-5-0.2-10.5,0-15.8,0.5c-2.4-1-4.8,0.1-7.4,0c-6.1-0.1-12.7-1.1-19-0.7
			c-6.2,0.4-12.3,1.5-18,1.2c-3.9-0.2-7.7,0.5-12.5-0.2c0.4,1.1-0.7,0.8-1,1.2c2.9,2.1,9.2,1.1,13.4,1C47.1,21.9,60.1,21,72,21
			c0.4,0.2-0.1,1.2,0.7,1c0.3-0.6-0.6-0.9,0-1c3.2,0.1,7-0.5,9.8-0.2c2.5,0.2,4.6-0.3,7.2-0.5c4-0.2,7.1,0.2,10.8,0
			c5-0.3,9.6-0.4,11.3,0.2c-4,0.6-7.9,0.5-9.1,1c-0.1-0.1-0.2-0.1-0.2-0.2c0.1,0.1,0.7,0.7,0.2,0.6c-1,0.3-0.3-1.1-1.2-1
			c-4.1,0.1-6.6-0.4-9.8,1.2c0.6-0.5-2-0.5-0.7-0.7c-1.7-0.9-4.1,0-7.2-0.2c-0.1,1.2,1.9,0.1,1.9,1.2c-6.7-0.2-11.9,0.4-18,0.5
			c-14.9,0.1-32.1,1.1-46.3,1.7c-0.1,0.9,1.1,0.6,1,1.7c-0.6,0.5-0.4,1.9-1,2.4c0.9,0.5,0,1.6,0.7,2.2c-1.1,1.1-1,2.1-1.2,3.6
			c3.5,4.6,13.2,4.5,20.6,2.9c0,0.5,0.5,1,1.2,0.2c-0.3,0-0.7,0-0.7-0.2c13.8-2.3,30.6-1,45.8-1.7c4.4-0.2,8.9-0.6,13-0.5
			c17,0.5,35.9-1.8,52.8-1.9c1.5,1,2.8,0.5,4.6,0C157.4,30.8,159,28.6,157,27.5z M68.9,24.8c0.1-0.3,2.2-0.6,1.9,0.2
			C69.9,25.2,69.8,24.7,68.9,24.8z M72.7,24.6c2.2,0.3,6.9-1.1,8.9,0.2C79.6,25.1,74.5,25.5,72.7,24.6z M85.9,24.6
			c-0.7-0.2-2.4,0.5-2.4-0.5h2.4V24.6z M86.2,22.2c0.2-0.9,0.8,0,1.7-0.2C87.4,22.7,87.1,22.1,86.2,22.2z M89.8,22.7
			c0,0.5-1,0.1-1.4,0.2v-1c0.6,0.6,1.7-0.6,2.2,0C90.1,22.6,88.6,22,89.8,22.7z M91.9,25.5c-0.1-1,1.3-0.3,1.9-0.5
			C94,26,92.5,25.3,91.9,25.5z M100.6,25.3c0-0.8,3.1-0.8,3.1,0C102.6,24.9,102,25.4,100.6,25.3z M112.8,20c0.6,0.1,1.8,0.5,2.6,0
			C115.9,20.7,113.1,21,112.8,20z M120.2,21.2c0.8-1.2-1.6-0.8-1.9-1c0.6-0.5,2.1-0.1,3.1-0.2c0.9,0.4-0.9,0-0.7,0.5
			c0.2,0.5,1.4,0.1,1.9,0.2C122.1,21.6,121.6,20.9,120.2,21.2z M125.3,20.3c-0.5-0.5-0.8,0.2-1.7,0
			C123.3,19.5,125.6,19.5,125.3,20.3z M126.5,20.7c-0.6-1.1,1.6-0.4,2.4-0.5c0.1-0.6-1.1,0.1-0.7-0.7c0.9,0.3,2.4-1,2.6,0.2
			c-1-0.1-0.7-0.1-1.7,0c0.5,0.9,0.9,0.2,1.9,0.2C130.7,20.8,127.5,20.7,126.5,20.7z M132.2,19.6c0,0-0.1,0-0.1,0
			c0.2,0.2,0.5,0.2,0.4,0.6c-0.5,0.1-0.3-0.5-0.7-0.5c0.1,0,0.2-0.1,0.3-0.2c0,0,0,0-0.1-0.1C132.1,19.6,132.1,19.6,132.2,19.6
			c1.2-0.5,3.9-0.9,4.6,0C133.2,19.4,134.4,20.1,132.2,19.6z M139.7,19.5c-0.3,0.4-1.3-0.7-2.4-0.2c0.8-0.7,1.6-0.1,2.9-0.5
			C140.4,19.3,138.9,19.3,139.7,19.5z M142.1,19.8h-1.2c0-0.4-0.2-0.6-0.5-0.7c0.1-0.3,0.6-0.2,1-0.2
			C140.6,19.8,142.3,18.5,142.1,19.8z M142.3,19.5c0-0.3,0-0.4-0.2-0.5c0.6-0.4,2,0.3,2.9,0.2C144.6,19.9,143.1,19.4,142.3,19.5z
			 M123.1,17.4c-0.9,0-1.7,0.1-1.9,0.2C121.7,18,122.9,17.9,123.1,17.4z M119,18.1c-0.2-0.1-0.3-0.2-0.2-0.5h-1
			C117.6,18.3,118.9,18.7,119,18.1z M102.5,18.1c-0.9,0.2-2.7-0.4-2.9,0.5C100.7,18,101.7,18.9,102.5,18.1z M81.1,21.5
			c-1.3,0-3.2-0.5-4.1,0.5C78.3,21.4,80.2,22.3,81.1,21.5z M76.6,21.5c-0.8,0.1-2.2-0.3-2.6,0.2C74.9,21.7,76.1,22.1,76.6,21.5z
			 M68.6,19.1C71.9,19.4,69.7,18.1,68.6,19.1L68.6,19.1z"/>
	</g>
</g>
</svg>
