<svg version="1" xmlns="http://www.w3.org/2000/svg" width="413.333" height="413.333" viewBox="0 0 310.000000 310.000000"><path d="M46.5 24.9c-7.8 2.8-10.9 4.7-14.7 8.9C22.6 44 23 37.7 23 155c0 82.6.3 103.5 1.4 107.5 3.8 14.2 11.8 22.3 24.6 25 6.5 1.3 207.3 1.4 213 .1 9.5-2.3 19.1-9 22.8-16.1 4-7.7 4-8.6 3.8-116.7-.2-97.3-.3-104.6-2-109.3-2.4-6.7-6.3-12.3-11.4-16.2-8.4-6.4-7.6-6.3-80.8-6.3-75.5 0-68.7-.7-85.9 9.1-23.3 13.3-38.6 30.1-42.4 46.4-4.1 17.4 7.3 39 26.5 50.3 11.1 6.5 18.9 8.6 32.4 8.7 13.4 0 17.6-.5 28.5-3.7 21.2-6.2 35.7-20.5 38.3-37.9 1-6.6-.6-15.9-3.3-18.9-1.6-1.8-1.7-2-.1-2 .9 0 1.9.7 2.2 1.5.4.8 1.2 1.5 2 1.5s1.4.7 1.4 1.5.9 2.3 2 3.2c1.1 1 2 2.3 2 3 0 .7.5 1.3 1 1.3.6 0 1 .9 1 1.9 0 1.1.5 2.1 1 2.3 1.9.6 3.8 10.5 3.4 17.7-.9 17-12.4 32.6-30.9 41.8-6 3-16.3 6.6-22 7.7-1.6.4-4.1.9-5.5 1.2-1.4.2-7 .7-12.5 1.1-5.5.3-10.4.9-10.9 1.4-.5.4-1.1 8.3-1.4 17.5l-.5 16.6 7.9-.6c4.4-.4 9.7-.9 11.9-1.1 19.2-2.1 49.6-3.5 53.5-2.4l2.5.6-2.7 1.1c-1.6.6-2.8 1.6-2.8 2.2 0 .5-.8 1-1.7 1.1-1.5 0-1.5.2.2.9 2.2 1 2.2 1-2 1.6-3.8.7-4.6 1.4-1.4 1.4 1.9 0 2.1.2.9 1-.8.5-2.6 1-4 1.1l-2.5.1 2.4.7c2.2.6 1.9.9-3.5 3.3-10.7 4.7-25.8 7.1-51.7 8.2-3.7.2-6.9.5-7.1.7-.2.2-.6 6.7-1 14.4-.6 13.6-.9 16.7-2.3 23-.4 1.6-.7 3.2-.8 3.5-.7 3.6-2.9 8-3.5 7-.8-1.4-2 1-2 4.1 0 1.9-1.9 2.2-3.1.5-.4-.5-1 .6-1.4 2.4l-.7 3.2-1.2-2.4c-.7-1.4-1.6-7.1-1.9-12.9-.4-5.7-.9-12-1.1-13.9-.3-1.9-.8-9.6-1.2-17-.3-7.4-.8-13.7-1-13.9-.2-.2-2.5-.8-5.1-1.2-13.5-2.3-25.6-7-31.5-12.2-1.6-1.3-2.8-2.9-2.8-3.5 0-1.3 8.9-3.4 14.8-3.4 5.4-.1 19.4 1.1 23.5 1.8 2.5.5 2.7.3 2.8-2.8 0-1.8.2-4.4.4-5.8.3-2 1.7-23.3 1.7-25 0-3.2-1-4.2-7.9-7.4-36.5-17.4-53.3-45.9-45.3-77 5.1-20.2 21.4-40.2 42.4-52.2l4.1-2.4H74c-19.1.1-23.2.3-27.5 1.9z"/></svg>